<svg width="19" height="25" fill="none" xmlns="http://www.w3.org/2000/svg"><path d="M9.468 6.219a3.141 3.141 0 100 6.282 3.141 3.141 0 000-6.282v0zm0 4.711a1.57 1.57 0 110-3.14 1.57 1.57 0 010 3.14v0z" fill="#2F3130" stroke="#2F3130" stroke-width=".8"/><path d="M15.496 3.373A8.46 8.46 0 009.911.845 8.431 8.431 0 004.098 2.77a8.707 8.707 0 00-3.052 5.39 8.794 8.794 0 001.278 6.08l5.927 9.257c.132.206.312.375.525.492a1.432 1.432 0 001.383 0c.213-.117.393-.286.525-.492l5.928-9.256a8.79 8.79 0 00-1.116-10.867v0zm-.199 9.996l-5.83 9.103-5.829-9.103c-1.784-2.787-1.402-6.516.91-8.868a6.95 6.95 0 012.257-1.534 6.855 6.855 0 015.325 0 6.95 6.95 0 012.257 1.534c2.312 2.352 2.694 6.081.91 8.868z" fill="#2F3130" stroke="#2F3130" stroke-width=".8"/></svg>