<svg width="198" height="175" fill="none" xmlns="http://www.w3.org/2000/svg"><g clip-path="url(#clip0)"><path d="M170.47 119.339h-5.163a77.808 77.808 0 0011.986-39.228 77.803 77.803 0 00-38.186-69.306A77.768 77.768 0 0031.429 40.239a77.814 77.814 0 002.361 79.1h-6.27a27.545 27.545 0 00-19.45 8.071A27.558 27.558 0 000 146.866v.607a27.561 27.561 0 008.07 19.456A27.545 27.545 0 0027.52 175h142.95a27.545 27.545 0 0019.451-8.071 27.563 27.563 0 008.069-19.456v-.607a27.56 27.56 0 00-8.069-19.456 27.545 27.545 0 00-19.451-8.071z" fill="#A6926A"/><path d="M170.47 161.908H27.52a14.48 14.48 0 01-14.44-14.445v-.607a14.483 14.483 0 0114.44-14.445h142.95a14.48 14.48 0 0114.441 14.445v.607a14.485 14.485 0 01-14.441 14.445z" fill="#FFFCF6"/><path d="M99.235 14.278a62.692 62.692 0 00-38.83 13.365 62.732 62.732 0 00-18.334 75.424 62.712 62.712 0 0028.36 29.707h57.617a62.712 62.712 0 0028.362-29.706 62.724 62.724 0 00-18.334-75.424 62.694 62.694 0 00-38.831-13.366" fill="#FFFCF6"/><path d="M73.586 104.561a35.218 35.218 0 01-11.13-25.479c0-19.677 16.656-35.68 37.093-35.68 20.436 0 37.092 16.003 37.092 35.68a35.293 35.293 0 01-11.13 25.479l-1.087-1.156a33.64 33.64 0 0010.649-24.323c0-18.805-15.94-34.092-35.534-34.092S64.014 60.277 64.014 79.082a33.64 33.64 0 0010.63 24.323l-1.058 1.156z" fill="#575757"/><path d="M75.497 102.484a32.57 32.57 0 01-7.573-10.721 31.474 31.474 0 01-2.656-12.68 31.944 31.944 0 019.994-23.226 35.382 35.382 0 0148.564 0 31.94 31.94 0 0110.003 23.225 31.456 31.456 0 01-2.655 12.671 32.589 32.589 0 01-7.573 10.721l-.422-.461a31.98 31.98 0 007.427-10.515 30.834 30.834 0 002.635-12.416 31.353 31.353 0 00-9.797-22.735 34.767 34.767 0 00-47.712 0 31.36 31.36 0 00-9.797 22.726 30.836 30.836 0 002.606 12.416 31.921 31.921 0 007.426 10.514l-.47.481z" fill="#88734B"/><path d="M118.339 96.398h-8.611a14.737 14.737 0 01-2.939-2.89c-1.15-1.405-2.521-3.251-4.115-5.538l-1.068-1.519a56.418 56.418 0 00-1.303-1.763 24.16 24.16 0 00-1.401-1.666c-.4-.455-.854-.86-1.352-1.206a4.73 4.73 0 00-1.538-.725 8.27 8.27 0 00-1.823-.176h-1.116v10.27c.012.61.058 1.218.137 1.822.056.34.162.67.313.98.147.293.37.54.647.716.352.21.741.353 1.146.421.595.103 1.199.15 1.803.137h.617v1.088H83.324V95.31h.98a9.717 9.717 0 001.754-.127c.4-.066.786-.206 1.136-.412.27-.162.493-.391.647-.666.159-.308.271-.639.333-.98.104-.606.163-1.218.176-1.833.04-.862.06-1.963.06-3.302V72.291c0-1.34-.024-2.427-.07-3.263a13.175 13.175 0 00-.166-1.803 3.537 3.537 0 00-.304-.902 1.353 1.353 0 00-.676-.568 3.977 3.977 0 00-1.263-.294c-.543-.059-1.274-.088-2.195-.088v-1.078h14.235v1.087h-.588a15.972 15.972 0 00-1.959.099c-.409.037-.809.14-1.186.303a1.42 1.42 0 00-.636.569c-.15.273-.258.567-.324.872a31.088 31.088 0 00-.205 5.066v7.389c.411-.046.816-.114 1.215-.206a5.806 5.806 0 001.254-.44 8.44 8.44 0 001.371-.844 16.01 16.01 0 001.597-1.381 39.232 39.232 0 001.96-2.088 58.811 58.811 0 002.4-2.94c.568-.725 1.077-1.378 1.528-1.96a21.24 21.24 0 011.264-1.499c.392-.45.774-.862 1.146-1.234.373-.373.764-.748 1.176-1.127a10.504 10.504 0 012.263-1.588 4.903 4.903 0 012.234-.617 2.389 2.389 0 011.518.411 1.462 1.462 0 01.52 1.215c.002.428-.136.844-.392 1.186-.389.45-.905.77-1.48.921a9.701 9.701 0 01-1.665.402 7.474 7.474 0 00-1.901.588l-.901.45c-.366.19-.751.419-1.156.687-.437.302-.856.629-1.254.98-.435.364-.838.764-1.205 1.195-.49.569-1 1.222-1.529 1.96a48.261 48.261 0 01-1.655 2.176 25.258 25.258 0 01-1.823 2.058 9.029 9.029 0 01-2.028 1.558l-.5.284h1.304a8.933 8.933 0 012.224.265c.728.195 1.4.561 1.959 1.068a44.747 44.747 0 015.232 6.134c2.443 3.267 4.353 5.406 5.731 6.419a8.815 8.815 0 004.899 1.607l-.04 1.078z" fill="#575757"/><path d="M28.128 142.015h-.422l.069-3.303h12.011l.069 3.313h-.392a5.714 5.714 0 00-.578-1.96 1.564 1.564 0 00-.784-.745 5.138 5.138 0 00-1.43-.137h-1.96v9.711a20.38 20.38 0 00.069 2.117c.02.29.154.561.372.754.341.197.735.283 1.127.245h.597v.471h-6.172v-.471h.647c.38.034.761-.045 1.097-.225a1.05 1.05 0 00.392-.696c.079-.729.108-1.462.088-2.195v-9.741h-1.871a6.517 6.517 0 00-1.607.128c-.344.149-.62.421-.774.764a5.887 5.887 0 00-.548 1.96m14.646 1.813h.245c.112.448.165.91.157 1.372a4.063 4.063 0 011.254-1.029c.44-.226.926-.343 1.42-.343a3.257 3.257 0 012.577 1.215 4.764 4.764 0 011.029 3.205 5.087 5.087 0 01-1.039 3.253 3.297 3.297 0 01-2.723 1.303 2.935 2.935 0 01-1.333-.313 4.141 4.141 0 01-1.205-.921v3.155c-.014.585.002 1.171.05 1.754a.667.667 0 00.283.47c.276.129.58.183.882.157v.471h-3.919v-.471h.275c.296.039.597-.035.842-.205a.855.855 0 00.225-.5v-10.897a.735.735 0 00-.264-.53 1.347 1.347 0 00-.813-.186h-.274v-.47a13.824 13.824 0 002.282-.51l.05.02zm.353 7.056c.284.39.64.722 1.048.98a2.19 2.19 0 001.166.343 2.248 2.248 0 001.803-.98 5.118 5.118 0 00.764-3.136 4.41 4.41 0 00-.745-2.793 2.156 2.156 0 00-2.939-.569 3.935 3.935 0 00-1.077 1.078l-.02 5.077zm15.499.039h.343c-.052 1.156-.565 1.734-1.538 1.734a1.315 1.315 0 01-.98-.362 1.961 1.961 0 01-.47-1.088 9.382 9.382 0 01-1.666 1.088 3.148 3.148 0 01-1.342.362 1.883 1.883 0 01-1.303-.49 1.632 1.632 0 01-.549-1.283 2.34 2.34 0 01.921-1.823 11.02 11.02 0 012.538-1.519l1.41-.637v-.402a5.44 5.44 0 00-.098-1.244 1.252 1.252 0 00-.519-.686 1.841 1.841 0 00-1.107-.304c-.914 0-1.42.327-1.518.98-.098.653-.373 1.013-.823 1.078-.373 0-.559-.196-.559-.588a1.79 1.79 0 01.745-1.245 4.252 4.252 0 014.095-.254c.372.209.667.532.843.921.161.513.231 1.05.205 1.587v3.362a6.263 6.263 0 00.108 1.509.453.453 0 00.47.333c.405 0 .654-.327.745-.98l.049-.049zm-2.694-3.499l-.98.451c-1.567.712-2.351 1.604-2.351 2.676-.017.367.09.729.303 1.028a.978.978 0 00.784.392c.348-.021.684-.129.98-.313.46-.278.887-.607 1.273-.98l-.01-3.254zm8.357.481c.459.021.913.1 1.352.235.335.104.647.27.92.49.227.187.405.425.52.696.111.27.168.56.166.852.014.377-.078.75-.264 1.078a1.97 1.97 0 01-.774.706c-.398.197-.824.33-1.264.392-.57.085-1.147.124-1.724.117h-3.41v-.48h.118c.17.017.34.017.51 0a1.07 1.07 0 00.323-.108.52.52 0 00.186-.176.742.742 0 00.088-.235c.01-.16.01-.321 0-.48v-5.38a2.348 2.348 0 00-.049-.412 1.1 1.1 0 00-.088-.245.404.404 0 00-.177-.167 1.198 1.198 0 00-.333-.088 4.645 4.645 0 00-.578 0v-.46l1.529-.059h1.548a7.148 7.148 0 012.86.431 1.479 1.479 0 01.98 1.431 1.619 1.619 0 01-.578 1.303 3.684 3.684 0 01-1.89.657l.029-.098zm-1.862-.088a9.82 9.82 0 001.382-.079c.304-.034.6-.124.872-.264a1.03 1.03 0 00.46-.5 2.02 2.02 0 00.127-.784 2.658 2.658 0 00-.068-.657.863.863 0 00-.314-.47 1.714 1.714 0 00-.695-.284 6.108 6.108 0 00-1.215-.098h-.549v3.136zm0 2.204v1.451a.74.74 0 00.079.264.53.53 0 00.186.196c.1.06.209.1.323.118.166.016.334.016.5 0 1.463 0 2.194-.653 2.194-1.96a2.347 2.347 0 00-.147-.853 1.339 1.339 0 00-.47-.597 2.286 2.286 0 00-.872-.353 6.312 6.312 0 00-1.322-.118h-.52l.05 1.852zm14.118-4.753v6.105a.658.658 0 00.284.481c.237.129.505.187.774.166h.196v.471h-3.968v-.471h.255c.284.027.569-.038.813-.186a.74.74 0 00.265-.529v-2.852h-4.047v2.852a.747.747 0 00.265.529c.244.148.53.213.813.186h.304v.471H68.5v-.471h.197a1.39 1.39 0 00.773-.166.65.65 0 00.285-.481v-6.124a.65.65 0 00-.285-.48 1.382 1.382 0 00-.773-.167H68.5v-.47h4v.47h-.255a1.34 1.34 0 00-.813.186.75.75 0 00-.265.529v2.401h4.066v-2.391a.75.75 0 00-.264-.529 1.34 1.34 0 00-.814-.186H73.9v-.471h3.968v.471h-.196a1.381 1.381 0 00-.774.166.65.65 0 00-.284.481m4.927 4.86l4.056-4.507a1.971 1.971 0 000-.422.673.673 0 00-.156-.313.718.718 0 00-.324-.196 1.95 1.95 0 00-.558-.069h-.304v-.47h3.968v.47h-.196a1.364 1.364 0 00-.784.167.674.674 0 00-.274.47v6.105a.677.677 0 00.274.47c.24.133.512.191.784.167h.196v.47h-3.968v-.47h.255a1.34 1.34 0 00.813-.186.75.75 0 00.265-.529v-4.714l-4.066 4.518v.196a.747.747 0 00.264.529c.245.147.53.212.814.186h.254v.47h-3.919v-.47h.187c.272.024.544-.034.783-.167a.676.676 0 00.275-.47v-6.105a.69.69 0 00-.275-.47 1.364 1.364 0 00-.783-.167h-.187v-.47h3.968v.47h-.255a1.34 1.34 0 00-.813.186.75.75 0 00-.264.529v1.676l-.03 3.116zm10.434-2.254l1.46-1.754a12.22 12.22 0 011.147-1.225c.27-.266.57-.502.891-.705.195-.131.422-.209.656-.226a.49.49 0 01.45.206.88.88 0 01.129.471.978.978 0 01-.47.921 1.394 1.394 0 01-.363.147l-.343.078-.382.098a2.2 2.2 0 00-.47.216 6.23 6.23 0 00-.608.411 8.79 8.79 0 00-.803.716c.365.738.692 1.372.98 1.901.287.529.555.976.803 1.342.194.304.407.595.637.872.148.181.312.348.49.5.108.094.23.17.362.226a.753.753 0 00.264.058h.265l.088.402a1.461 1.461 0 01-.823.265h-.343a1.667 1.667 0 01-.51-.167 3.22 3.22 0 01-.646-.421 5.048 5.048 0 01-.754-.804 10.8 10.8 0 01-.852-1.313 17.05 17.05 0 01-.931-1.96l-.324.353v2.871a.743.743 0 00.265.529c.244.148.53.213.813.187h.255v.47H89.36v-.47h.186a1.4 1.4 0 00.774-.167.65.65 0 00.284-.48v-6.164a.647.647 0 00-.284-.48 1.382 1.382 0 00-.774-.167h-.186v-.47h3.968v.47h-.255a1.34 1.34 0 00-.813.186.754.754 0 00-.265.53v1.675l-.02.872zm24.611 4.606h-3.331a5.96 5.96 0 01-1.127-1.235 38.58 38.58 0 01-1.587-2.371l-.411-.647c-.157-.248-.324-.5-.5-.754a10.53 10.53 0 00-.539-.716 3.108 3.108 0 00-.519-.519 1.728 1.728 0 00-.608-.314 2.887 2.887 0 00-.705-.078h-.431v4.41c.003.262.019.523.049.784.019.151.058.3.117.441a.758.758 0 00.255.303c.133.091.283.155.441.187.229.044.462.063.696.058h.235v.471h-5.555v-.471h.382c.227.004.453-.016.676-.058.154-.031.3-.091.431-.177a.735.735 0 00.255-.284c.06-.128.103-.263.127-.402a6.04 6.04 0 00.069-.784v-9.613a6.077 6.077 0 00-.079-.774 1.536 1.536 0 00-.117-.382.538.538 0 00-.245-.245 1.416 1.416 0 00-.49-.128 7.902 7.902 0 00-.843 0v-.47h5.516v.46h-.225a5.944 5.944 0 00-.755 0 1.4 1.4 0 00-.46.138.563.563 0 00-.245.245 1.435 1.435 0 00-.127.372 14.788 14.788 0 00-.089 2.166v3.165l.471-.088a2.17 2.17 0 00.48-.186c.188-.104.365-.225.529-.363.219-.185.425-.385.617-.598.222-.242.474-.539.754-.892.281-.352.592-.77.931-1.254l.588-.823.49-.647c.157-.196.304-.372.441-.529l.45-.48c.259-.264.552-.492.872-.676a1.74 1.74 0 01.862-.265.867.867 0 01.588.176.662.662 0 01.206.52.902.902 0 01-.147.509 1.13 1.13 0 01-.568.392c-.209.08-.426.139-.647.177a2.64 2.64 0 00-.735.255l-.352.196a5.62 5.62 0 00-.451.294 5.254 5.254 0 00-.48.401 4.124 4.124 0 00-.47.51c-.19.242-.386.519-.588.833l-.637.98c-.219.306-.455.6-.705.882a3.569 3.569 0 01-.784.666l-.196.118h.5a3.06 3.06 0 01.862.108c.281.086.537.241.744.45a18.762 18.762 0 012.019 2.627 13.616 13.616 0 002.204 2.743 3.18 3.18 0 001.901.686l-.01.5zm.646-4.165a4.606 4.606 0 011.147-3.194 3.771 3.771 0 012.836-1.291 3.753 3.753 0 012.836 1.291 4.607 4.607 0 011.147 3.185 4.543 4.543 0 01-1.166 3.302 3.798 3.798 0 01-2.822 1.205 3.764 3.764 0 01-2.812-1.224 4.571 4.571 0 01-1.166-3.283v.009zm1.519.04a5.469 5.469 0 00.647 3.096 2.305 2.305 0 001.822.89 2.316 2.316 0 001.822-.89 5.57 5.57 0 00.637-3.096 5.8 5.8 0 00-.627-3.126 2.268 2.268 0 00-2.859-.683 2.268 2.268 0 00-.805.683 5.764 5.764 0 00-.637 3.126zm11.894-.441c.458.021.913.1 1.352.235.335.104.647.27.921.49.226.187.404.425.519.696.111.27.168.56.166.852.014.377-.078.75-.264 1.078a1.964 1.964 0 01-.774.706c-.398.197-.824.33-1.264.392-.571.085-1.147.124-1.724.117h-3.4v-.48h.118c.169.017.34.017.509 0 .113-.018.222-.055.324-.108a.531.531 0 00.186-.176.759.759 0 00.088-.235c.01-.16.01-.321 0-.48v-5.38a2.377 2.377 0 00-.049-.412 1.12 1.12 0 00-.088-.245.408.408 0 00-.177-.167 1.196 1.196 0 00-.333-.088 4.645 4.645 0 00-.578 0v-.46l1.538-.059h1.548a7.148 7.148 0 012.861.431 1.478 1.478 0 01.98 1.431 1.63 1.63 0 01-.578 1.303 3.686 3.686 0 01-1.891.657l.01-.098zm-1.842-.088c.462.006.923-.02 1.381-.079.305-.034.6-.124.872-.264.206-.11.368-.286.461-.5.094-.251.137-.517.127-.784a2.64 2.64 0 00-.069-.657.86.86 0 00-.313-.47 1.714 1.714 0 00-.696-.284 6.101 6.101 0 00-1.215-.098h-.538l-.01 3.136zm0 2.204v1.451a.739.739 0 00.078.264c.045.08.109.148.186.196.1.06.209.1.324.118a2.6 2.6 0 00.499 0c1.463 0 2.195-.653 2.195-1.96a2.364 2.364 0 00-.147-.853 1.34 1.34 0 00-.47-.597 2.29 2.29 0 00-.872-.353 6.318 6.318 0 00-1.323-.118h-.519l.049 1.852zm13.824.902h.342c-.052 1.156-.565 1.735-1.538 1.735a1.335 1.335 0 01-.979-.363 1.955 1.955 0 01-.471-1.088 9.385 9.385 0 01-1.665 1.088 3.167 3.167 0 01-1.342.363 1.892 1.892 0 01-1.303-.49 1.632 1.632 0 01-.549-1.284 2.346 2.346 0 01.921-1.823 11.028 11.028 0 012.537-1.519l1.411-.637v-.402a5.467 5.467 0 00-.098-1.244 1.255 1.255 0 00-.519-.686 1.84 1.84 0 00-1.107-.304c-.915 0-1.421.327-1.519.98-.098.653-.352 1-.764 1.039-.372 0-.558-.196-.558-.588a1.79 1.79 0 01.744-1.245 4.25 4.25 0 014.095-.254c.372.209.667.532.843.921.162.513.231 1.05.206 1.587v3.361a6.217 6.217 0 00.108 1.51.455.455 0 00.47.333c.398 0 .646-.327.744-.98l-.009-.01zm-2.636-3.538l-.98.451c-1.567.712-2.351 1.604-2.351 2.675-.017.368.09.73.304 1.029a.974.974 0 00.784.392c.347-.022.684-.129.979-.313a7.21 7.21 0 001.274-.98l-.01-3.254zm8.191-2.753a2.266 2.266 0 00-.451 0 .815.815 0 00-.265.098.321.321 0 00-.137.156.549.549 0 000 .206c.083.65.119 1.305.108 1.96v1.156c-.016.424-.056.846-.118 1.265a8.268 8.268 0 01-.274 1.244c-.109.38-.278.741-.5 1.068a2.542 2.542 0 01-.783.745 2.164 2.164 0 01-1.147.284 1.957 1.957 0 01-.607-.088 1.555 1.555 0 01-.461-.225.978.978 0 01-.293-.324.76.76 0 01-.05-.637.662.662 0 01.148-.225.615.615 0 01.46-.196.69.69 0 01.49.186.598.598 0 01.196.441.684.684 0 01-.079.343.44.44 0 00-.078.206.192.192 0 00.02.108c.018.033.045.06.078.078a.502.502 0 00.235.049.77.77 0 00.568-.265c.188-.21.337-.452.441-.715.134-.316.239-.644.314-.98a13.2 13.2 0 00.206-1.176c.052-.405.088-.807.107-1.205v-2.401a2.344 2.344 0 00-.147-.735.517.517 0 00-.323-.314 1.846 1.846 0 00-.549-.068h-.098v-.471h7.201v.471h-.068a2.509 2.509 0 00-.696.078.636.636 0 00-.372.255 1.048 1.048 0 00-.147.49v5.909a.687.687 0 00.274.47c.239.133.512.191.784.167h.196v.47h-3.968v-.47h.255a1.34 1.34 0 00.813-.186.742.742 0 00.264-.529v-5.831c0-.172-.036-.343-.107-.5a.528.528 0 00-.304-.264 1.803 1.803 0 00-.598-.079l-.538-.019zm12.648 2.371h-5.212v.892a6.898 6.898 0 00.617 3.292 1.956 1.956 0 001.842 1.098 2.413 2.413 0 002.351-1.656h.441a2.805 2.805 0 01-1.156 1.617 3.324 3.324 0 01-3.684.049 4.062 4.062 0 01-1.381-1.509 4.824 4.824 0 01-.539-2.362 5.071 5.071 0 011.038-3.273 3.203 3.203 0 012.606-1.303 2.75 2.75 0 012.273.98c.513.601.813 1.356.853 2.146l-.049.029zm-1.548-.431a3.54 3.54 0 000-.412 1.956 1.956 0 00-.471-1.381 1.532 1.532 0 00-1.156-.49c-1.11 0-1.763.764-1.959 2.293l3.586-.01zm7.769 1.333c.459.021.913.1 1.352.235.335.104.647.27.921.49.226.187.405.425.519.696.111.27.168.56.167.852.013.377-.079.75-.265 1.078a1.964 1.964 0 01-.774.706c-.397.197-.824.33-1.264.392-.57.085-1.147.124-1.724.117h-3.4v-.48h.118c.169.017.34.017.509 0 .113-.018.222-.055.324-.108a.515.515 0 00.186-.176.759.759 0 00.088-.235c.01-.16.01-.321 0-.48v-5.38a2.377 2.377 0 00-.049-.412 1.12 1.12 0 00-.088-.245.406.406 0 00-.176-.167 1.212 1.212 0 00-.334-.088 4.645 4.645 0 00-.578 0v-.46l1.539-.059h1.547a7.148 7.148 0 012.861.431 1.481 1.481 0 01.98 1.431 1.612 1.612 0 01-.578 1.303 3.686 3.686 0 01-1.891.657l.01-.098zm-1.842-.088c.462.006.923-.02 1.381-.079.305-.034.6-.124.872-.264.206-.11.368-.286.461-.5.094-.251.137-.517.127-.784a2.639 2.639 0 00-.068-.657.868.868 0 00-.314-.47 1.714 1.714 0 00-.696-.284 6.097 6.097 0 00-1.214-.098h-.539l-.01 3.136zm0 2.204v1.451a.739.739 0 00.078.264.54.54 0 00.187.196c.099.06.209.1.323.118.166.016.333.016.5 0 1.463 0 2.194-.653 2.194-1.96a2.343 2.343 0 00-.147-.853 1.34 1.34 0 00-.47-.597 2.284 2.284 0 00-.872-.353 6.318 6.318 0 00-1.323-.118h-.519l.049 1.852zM44.087 75.574l-.078 2.342 1.9.079c.654.032 1.28.091 1.881.176a16.88 16.88 0 011.744.323c.514.124 1.01.308 1.48.55.352.164.669.397.93.685.189.192.297.447.304.716a.287.287 0 01-.117.205 1.084 1.084 0 01-.275.157 1.456 1.456 0 01-.362.098c-.124.01-.249.01-.373 0a.774.774 0 01-.333-.068.422.422 0 01-.166-.275 2.55 2.55 0 00-.422-.852 2.008 2.008 0 00-.98-.598 8.815 8.815 0 00-1.822-.372c-.777-.092-1.792-.16-3.046-.206a.5.5 0 00-.392.117c-.116.167-.19.358-.216.559 0 .088-.088.127-.215.127h-.226c0-.225 0-.45.069-.696.068-.245 0-.48 0-.725l.098-2.94v-1.607h.225c.137 0 .206.05.206.138.011.241.071.478.176.695a.44.44 0 00.382.177l6.8.225a.402.402 0 00.391-.196c.108-.223.18-.46.216-.705 0-.098.098-.147.215-.138h.216c0 .268-.026.552-.078.853v2.665h-.226c-.137 0-.205-.058-.225-.166a3.644 3.644 0 00-.147-.843.402.402 0 00-.392-.284l-7.142-.216zm.843-6.82l3.36.685.421-2.048a.392.392 0 00-.176-.43 2.833 2.833 0 00-.588-.305.215.215 0 01-.117-.274v-.206l.646.177.637.147.549.098.744.098a1.31 1.31 0 010 .205c0 .138-.098.216-.225.216-.22-.008-.44.008-.656.049a.392.392 0 00-.334.323l-.372 2.088 3.096.637c.186 0 .333-.05.44-.275a5.23 5.23 0 00.334-1.156l.147-.725a1.84 1.84 0 000-.686 1.746 1.746 0 00-.196-.559 2.219 2.219 0 00-.372-.48 6.068 6.068 0 00-.51-.45c-.059 0-.068-.108-.049-.216a.304.304 0 01.069-.128l.108-.117c.174.126.361.234.558.323l.627.304c.172.081.339.173.5.274.137.088.196.177.176.265-.02.088 0 .166-.078.304-.079.137-.069.274-.108.421l-.118.46c0 .157-.078.295-.098.402l-.587 2.872c-.053.254-.102.529-.147.823-.046.294-.089.571-.128.833h-.215c-.128 0-.196-.088-.187-.177a3.064 3.064 0 00-.049-.754.381.381 0 00-.323-.294l-6.642-1.411a.381.381 0 00-.402.117c-.145.217-.263.45-.353.696 0 .088-.107.118-.254.088h-.206c.104-.372.186-.699.245-.98.059-.28.11-.506.157-.676l.529-2.587c.078-.392.137-.735.166-1.029.03-.294.059-.49.079-.588.02-.098.107-.176.264-.186.18-.012.36-.012.539 0h.656c.21.015.42-.012.618-.078a.393.393 0 010 .254.225.225 0 01-.167.196l-.637.187a1.341 1.341 0 00-.803.666 2.504 2.504 0 00-.216.647l-.352 1.96zm4.81-12.368a.763.763 0 000 .52c.057.164.143.317.255.45.13.16.27.311.421.451.166.158.323.325.47.5.155.184.29.385.402.598.12.239.193.498.215.764.137-.231.302-.445.49-.637a2.48 2.48 0 01.51-.392c.17-.093.35-.165.539-.215.205-.053.415-.086.627-.098h1.744c.143.016.287.016.43 0a.982.982 0 00.304-.098.725.725 0 00.206-.167l.167-.206c0-.068.117-.078.215 0h.108l.108.069-.275.559c-.085.189-.163.369-.235.538a1.82 1.82 0 01-.225.422.765.765 0 01-.265.235.803.803 0 01-.323.078c-.13.012-.261.012-.392 0a18.908 18.908 0 00-1.636-.137 3.183 3.183 0 00-1.097.147 1.956 1.956 0 00-.441.216c-.13.09-.245.199-.343.323-.11.14-.206.291-.284.451a10.15 10.15 0 00-.275.617l-.068.167 2.86 1.127a.412.412 0 00.412 0 2.03 2.03 0 00.412-.51.215.215 0 01.088-.078c.05-.02.106-.02.157 0h.098l.107.059-.343.745c-.107.235-.205.46-.284.666-.078.206-.176.46-.264.735-.088.274-.186.539-.265.794h-.206c-.124-.053-.172-.121-.146-.206.048-.239.068-.482.058-.725a.383.383 0 00-.274-.314l-6.339-2.499a.412.412 0 00-.421 0 2.126 2.126 0 00-.44.578c0 .079-.128.098-.265 0h-.088l-.108-.058c.117-.236.225-.49.352-.755.128-.264.226-.51.304-.715.078-.206.176-.46.265-.725l.274-.814h.206c.137.05.186.128.166.206a2.14 2.14 0 00-.078.715.411.411 0 00.284.314l2.94 1.176.097-.245c.215-.375.317-.803.294-1.235a2.509 2.509 0 00-.47-.98 4.646 4.646 0 00-.804-.794 8.126 8.126 0 01-.823-.735 2.48 2.48 0 01-.538-.813 1.362 1.362 0 01.058-.98 1.28 1.28 0 01.137-.255.794.794 0 01.148-.166.323.323 0 01.313 0c.128.054.25.123.362.206.123.084.238.179.343.284.094.091.176.193.245.303a.293.293 0 010 .265.462.462 0 01-.088.157.606.606 0 00-.108.186" fill="#6C5426"/><path d="M56.921 51.683l-1.557 2.548 1.39 1.852c.054.076.12.142.197.196.163.098.421-.066.774-.49a.158.158 0 01.127-.069.284.284 0 01.137 0l.079.06.098.078-.441.627c-.15.222-.294.444-.431.666l-.275.48a13.31 13.31 0 00-.264.53l-.196-.089a.343.343 0 01-.118-.117.156.156 0 010-.167 2.42 2.42 0 00.177-.617.608.608 0 00-.108-.422l-4.899-6.8c-.098-.138-.107-.255-.058-.334l.107-.127 8.475 1.47a.586.586 0 00.44-.157 2.57 2.57 0 00.412-.392.315.315 0 01.127-.069.234.234 0 01.167 0l.078.06.089.078-.48.695c-.157.226-.294.451-.422.657-.127.206-.274.46-.43.745l-.412.764h-.206a.235.235 0 01-.118-.127.138.138 0 010-.098c.074-.18.13-.368.167-.559a.284.284 0 00-.108-.323.45.45 0 00-.196-.06l-2.322-.49zm-.578-.108l-3.439-.617 2.127 2.822 1.312-2.205z" fill="#6C5426"/><path d="M60.037 46.42l2.087 1.784a.44.44 0 00.519.068c.267-.146.515-.327.735-.538a.196.196 0 01.274 0l.078.078.079.098-.608.637c-.225.245-.46.51-.705.803-.245.294-.314.383-.5.618l-.5.666-.107-.069-.079-.058c-.098-.088-.127-.167-.078-.245a2.94 2.94 0 00.304-.676.382.382 0 00-.167-.383l-5.182-4.42a.41.41 0 00-.432-.097 2.125 2.125 0 00-.627.44c-.068.06-.156 0-.264-.058l-.137-.147.548-.578c.196-.203.373-.399.53-.588l1.224-1.44a3.057 3.057 0 011.96-1.206 2.32 2.32 0 011.812.598c.228.198.411.442.539.715.146.307.23.64.245.98.017.362-.033.724-.147 1.068a3.126 3.126 0 01-.617 1.078l-.784.872zm0-.901c.36-.371.582-.856.627-1.372a1.724 1.724 0 00-.745-1.303 3.11 3.11 0 00-.656-.432 1.626 1.626 0 00-.696-.166c-.252 0-.5.06-.725.176a2.38 2.38 0 00-.725.608l-.46.539 2.939 2.489.44-.54zm9.111-2.695a5.123 5.123 0 01-1.724.98 3.85 3.85 0 01-1.685.186 3.917 3.917 0 01-1.568-.549 5.574 5.574 0 01-1.362-1.166 4.9 4.9 0 01-.832-1.391 4.43 4.43 0 01-.314-1.647c.003-.591.13-1.175.372-1.715a4.469 4.469 0 011.225-1.587c.225-.196.431-.363.627-.51.196-.147.382-.284.578-.411.196-.128.382-.236.578-.334l.617-.313c.204.214.42.417.647.608.268.228.552.45.852.666a.422.422 0 01-.127.176.688.688 0 01-.167.108.177.177 0 01-.186 0 2.185 2.185 0 00-1.4-.46 2.577 2.577 0 00-1.392.705 3.752 3.752 0 00-.98 1.156 3 3 0 00-.323 1.264c-.006.452.085.9.265 1.314.21.459.491.882.832 1.254.373.443.821.818 1.323 1.107.448.259.94.435 1.45.52.469.08.95.06 1.41-.06a3.057 3.057 0 001.255-.587c.254-.207.478-.447.666-.715.14-.204.236-.434.284-.677a1.9 1.9 0 000-.686 5.516 5.516 0 00-.206-.764.334.334 0 01.108-.362.431.431 0 01.235-.118c.124.307.268.634.431.98.163.346.34.673.53.98-.288.34-.592.666-.912.98-.32.313-.686.64-1.097.98m2.185-11.593l3.683 6.095a.44.44 0 00.441.245c.29-.046.572-.139.833-.274.088-.049.167 0 .235.108v.215l-.803.422-.833.47-.813.51-.764.51-.079-.099-.058-.088c-.069-.117-.069-.196 0-.255.238-.177.452-.384.636-.617a.432.432 0 000-.51l-3.683-6.124-1.186.715c-.199.114-.38.256-.539.421-.123.13-.22.284-.284.451a1.47 1.47 0 00-.078.54v.666a.167.167 0 010 .127.263.263 0 01-.088.078.372.372 0 01-.255.06 6.939 6.939 0 00-.274-.834 5.85 5.85 0 01-.216-.598 1.968 1.968 0 01-.098-.382.207.207 0 01.098-.215l.235-.128.333-.166.353-.177.333-.176 3.83-2.303.304-.196.334-.235.303-.216.226-.157a.206.206 0 01.235 0c.107.085.206.18.294.285l.421.48c.189.212.392.412.607.598l-.078.107a.331.331 0 01-.108.098h-.117a.157.157 0 01-.128 0 6.078 6.078 0 00-.558-.352 1.525 1.525 0 00-.51-.177 1.292 1.292 0 00-.529 0c-.218.065-.426.16-.617.284l-1.038.794zm10.169-.931c.286-.07.578-.113.872-.127.29-.016.581.013.862.088.277.074.535.208.755.392.239.205.42.468.529.764.137.339.198.704.176 1.068a2.165 2.165 0 01-.304.98 2.94 2.94 0 01-.735.814 4.378 4.378 0 01-1.126.627l-1.96.764-.48.196-.5.226-.548.245v-.069a.481.481 0 01-.059-.117c0-.118 0-.197.059-.255.216-.127.417-.278.598-.451a.372.372 0 00.049-.412l-2.47-6.35a.372.372 0 00-.323-.274c-.25-.006-.5.017-.744.068-.098 0-.176 0-.235-.186a.275.275 0 010-.107.185.185 0 010-.079l.823-.264.646-.314 1.538-.598a4.27 4.27 0 011.254-.304c.332-.03.665.01.98.118.268.092.51.247.706.45.186.2.332.432.43.687.076.193.113.4.108.607a2.154 2.154 0 01-.107.627c-.072.216-.175.42-.304.608-.14.197-.308.373-.5.52l.01.058zm-1.9.549a2.713 2.713 0 001.43-.98 1.578 1.578 0 000-1.411 1.43 1.43 0 00-.921-.98 2.83 2.83 0 00-1.724.245l-.187.078 1.206 3.107.195-.06zm1.185 3.606a.322.322 0 00.176.186c.087.036.18.053.275.05.104.012.209.012.313 0l.294-.089c.29-.11.57-.248.833-.411.22-.134.41-.31.558-.52.133-.198.21-.428.226-.666a2.037 2.037 0 00-.167-.863 1.714 1.714 0 00-1.137-1.127 2.94 2.94 0 00-1.88.197l-.657.254 1.166 2.99zm5.976-9.358l.706 3.351 2.047-.431a.392.392 0 00.323-.333 2.86 2.86 0 000-.657.215.215 0 01.196-.215h.216c0 .195.03.418.088.666.059.248.098.464.118.647 0 .15.042.33.127.539.059.215.127.45.206.715l-.186.069a.225.225 0 01-.285-.118 2.875 2.875 0 00-.303-.588.392.392 0 00-.431-.176l-2.048.43.647 3.097c0 .187.176.285.421.294a5.292 5.292 0 001.195-.156l.725-.147a1.85 1.85 0 00.637-.255c.17-.107.318-.243.44-.402.122-.162.221-.34.295-.53.08-.21.15-.427.206-.646 0-.069.078-.108.176-.127a.295.295 0 01.147 0l.157.049a3.101 3.101 0 00-.079.637v.695c-.005.19-.021.38-.049.569 0 .157-.078.255-.166.264l-.304.089-.431.068-.47.079-.412.068-2.87.598-.804.186-.813.216v-.206c0-.127 0-.206.088-.235.239-.086.466-.202.676-.343a.382.382 0 00.137-.412l-1.4-6.673a.372.372 0 00-.265-.324 3.293 3.293 0 00-.784 0c-.088 0-.147-.059-.176-.196a.843.843 0 010-.107.697.697 0 010-.098l.98-.147.685-.128 2.587-.539c.392-.078.734-.166.98-.255l.568-.156c.117 0 .205 0 .274.166.079.163.147.33.206.5l.225.627c.068.199.174.382.314.54a.392.392 0 01-.216.127.225.225 0 01-.245-.07c-.147-.195-.294-.362-.421-.509a1.508 1.508 0 00-.421-.333 1.281 1.281 0 00-.51-.137 2.455 2.455 0 00-.676.059l-2.028.304zm14.676 5.751a.395.395 0 00.186.363c.222.096.456.162.696.196.088 0 .137.069.137.187v.244h-2.4l-.823.07a1.083 1.083 0 010-.128.961.961 0 010-.118c0-.118 0-.176.127-.186a2.46 2.46 0 00.676-.216.388.388 0 00.177-.382l-.079-3.243-4.203.098.069 3.243a.392.392 0 00.186.363c.225.097.462.163.705.196a.168.168 0 01.142.12.168.168 0 01.005.066.961.961 0 010 .117v.128h-2.41l-.832.069v-.128a.961.961 0 010-.117c0-.118 0-.177.127-.187.241-.036.476-.109.695-.215a.391.391 0 00.177-.382l-.157-6.801a.422.422 0 00-.166-.373 2.275 2.275 0 00-.706-.196c-.088 0-.137-.078-.137-.215a.776.776 0 010-.108v-.118h2.371l.813-.068v.117a.97.97 0 010 .108c0 .137-.043.21-.127.216a1.804 1.804 0 00-.686.215.441.441 0 00-.157.392l.069 2.999 4.203-.098-.069-2.999a.46.46 0 00-.167-.362 1.48 1.48 0 00-.685-.206c-.098 0-.147-.088-.157-.206a.776.776 0 010-.108 1.098 1.098 0 010-.117h2.381l.823-.069v.118a.97.97 0 010 .107c0 .138-.043.21-.128.216a1.777 1.777 0 00-.686.216.453.453 0 00-.156.392l.166 6.79zm9.67 1.432a.388.388 0 00.108.392c.199.14.417.252.646.333.089 0 .118.098.098.206v.225l-.774-.186-.803-.167-.784-.117-.823-.098v-.128a.97.97 0 010-.108c0-.117.079-.166.167-.166.238.008.475-.018.705-.079a.404.404 0 00.255-.333l.578-3.194-4.134-.745-.578 3.185a.388.388 0 00.107.392c.2.14.417.252.647.333a.168.168 0 01.108.206v.225l-.784-.186-.803-.167-.784-.117-.823-.098v-.128a.77.77 0 010-.117c0-.118.078-.167.166-.157.245.01.489-.017.725-.079a.39.39 0 00.255-.333l1.215-6.693a.417.417 0 00-.088-.392 2.315 2.315 0 00-.647-.333c-.088 0-.117-.108-.098-.235a.97.97 0 010-.108v-.118l.755.187.783.166.784.118.813.098v.127a.647.647 0 010 .108c0 .137-.078.196-.166.186a1.79 1.79 0 00-.715.079.439.439 0 00-.236.352l-.538 2.94 4.134.745.539-2.94a.477.477 0 00-.088-.392 1.476 1.476 0 00-.637-.343c-.098 0-.128-.117-.108-.235v-.225l.764.186.794.166.774.118.823.098v.127a.97.97 0 010 .108c0 .128-.079.196-.167.186a1.794 1.794 0 00-.715.079.453.453 0 00-.235.352l-1.215 6.694zm6.819-1.95a4.15 4.15 0 011.097.646c.264.218.484.484.647.784.141.27.219.568.225.872.002.314-.062.624-.186.912a3.062 3.062 0 01-.578.901 2.388 2.388 0 01-1.891.775 3.525 3.525 0 01-1.244-.294l-1.793-.745-.745-.294-.754-.265c.01-.066.026-.132.049-.196.059-.137.127-.196.215-.166.243.084.498.123.755.117a.413.413 0 00.343-.274l2.635-6.291a.385.385 0 000-.412 2.935 2.935 0 00-.578-.47c-.078 0-.088-.128 0-.255v-.079l.069-.107.744.362.725.324.98.392.833.294v.215c-.059.128-.137.177-.235.147a3.5 3.5 0 00-.902-.157.439.439 0 00-.431.294l-1.038 2.48 1.058.49zm-1.333 0l-1.499 3.586.706.294c.29.13.603.204.921.216.252.006.501-.051.725-.167.216-.113.403-.274.548-.47.163-.221.298-.462.402-.715a1.762 1.762 0 00.059-1.47 2.11 2.11 0 00-1.156-.98l-.706-.294zm4.762 5.781a.385.385 0 000 .412c.166.176.354.33.558.46.079 0 .088.128 0 .255v.079l-.068.108-.745-.363-.715-.323-.745-.285-.774-.274v-.206c.049-.127.118-.176.206-.147.233.061.474.088.715.079a.388.388 0 00.314-.275l2.635-6.291a.411.411 0 000-.421 2.13 2.13 0 00-.568-.451.128.128 0 01-.051-.05.137.137 0 01-.018-.068.404.404 0 010-.147v-.078l.069-.108.754.363.716.323.715.284.803.284v.206c-.059.127-.127.186-.215.157-.232-.07-.474-.1-.716-.088a.408.408 0 00-.323.284l-2.547 6.281zm7.759-3.616l-1.959 2.842 1.734 1.166a.39.39 0 00.46 0c.185-.12.356-.262.51-.421a.215.215 0 01.294 0l.078.068.078.079-.411.529-.382.53-.294.47c-.118.189-.242.404-.372.646l-.186-.088a.219.219 0 01-.109-.121.223.223 0 01.001-.163c.092-.2.161-.411.205-.627a.392.392 0 00-.166-.431l-1.734-1.167-1.764 2.617a.391.391 0 00.089.51c.296.285.625.535.979.744l.608.412c.189.134.401.23.627.284.197.035.4.035.597 0 .203-.028.401-.084.588-.167.208-.09.411-.19.608-.303h.215a.294.294 0 01.098.107l.069.147a3.174 3.174 0 00-.51.392l-.519.47a4.62 4.62 0 01-.451.363c-.137.098-.235.118-.313.069l-.245-.186-.353-.255-.382-.284-.333-.245-2.449-1.588-.696-.45-.725-.432.049-.108v-.078c.078-.108.157-.147.235-.108.228.111.468.194.715.245a.383.383 0 00.392-.186l3.811-5.654a.376.376 0 00.06-.206.376.376 0 00-.06-.206 3.257 3.257 0 00-.509-.598c-.069-.058-.059-.147 0-.264l.068-.088.079-.069.764.588.568.402 2.185 1.48c.333.225.627.411.892.548l.509.294c.098.066.121.17.069.314a4.094 4.094 0 01-.216.5l-.284.597a1.56 1.56 0 00-.167.598.392.392 0 01-.245-.068.224.224 0 01-.117-.226c0-.245.059-.47.078-.656a1.532 1.532 0 00-.049-.54 1.295 1.295 0 00-.254-.46 2.47 2.47 0 00-.52-.44l-1.538-1.128zm4.84 14.945a5.14 5.14 0 01-1.088-1.676 3.849 3.849 0 01-.254-1.676 3.91 3.91 0 01.48-1.587 5.552 5.552 0 011.117-1.402 4.878 4.878 0 011.352-.882 4.418 4.418 0 011.626-.382c.59-.02 1.177.084 1.724.304.627.26 1.187.658 1.636 1.166.196.216.382.422.539.608.157.186.304.372.431.558.128.186.245.373.363.559l.333.607a7.904 7.904 0 00-.578.667 9.587 9.587 0 00-.627.872.415.415 0 01-.186-.118.633.633 0 01-.108-.157.18.18 0 01-.027-.093.18.18 0 01.027-.093c.293-.413.435-.915.402-1.42a2.577 2.577 0 00-.755-1.363 3.739 3.739 0 00-1.195-.892 2.942 2.942 0 00-1.274-.274c-.451.01-.896.117-1.303.314-.461.22-.884.51-1.254.862a4.92 4.92 0 00-1.058 1.362c-.242.455-.401.95-.47 1.46-.062.474-.022.955.118 1.411.136.45.374.863.695 1.206.217.246.468.46.745.637.209.13.442.217.686.255.226.041.459.041.685 0 .257-.06.509-.14.755-.236a.332.332 0 01.362.098.438.438 0 01.128.236 31 31 0 00-.98.47 8.78 8.78 0 00-.98.568 16.33 16.33 0 01-1.029-.872c-.333-.307-.689-.66-1.067-1.058m8.327 2.214l.666.98c.242.355.427.745.549 1.157.093.318.126.65.098.98-.035.3-.139.589-.304.843a2.266 2.266 0 01-.666.646c-.298.2-.63.347-.98.431a2.388 2.388 0 01-.979 0 2.515 2.515 0 01-.98-.44 3.535 3.535 0 01-.872-.98l-1.068-1.627c-.137-.206-.284-.431-.451-.657l-.48-.637.157-.127c.127-.088.216-.088.274 0 .157.206.35.382.569.52a.41.41 0 00.441 0l5.652-3.656a.374.374 0 00.206-.362 3.258 3.258 0 00-.245-.745c0-.079 0-.157.118-.235l.098-.06h.098c.189.334.349.612.48.834l.372.588 1.137 1.734c.222.333.424.617.607.853.186.235.304.392.353.47a.245.245 0 01-.059.314 4.06 4.06 0 01-.392.372l-.5.441a1.592 1.592 0 00-.382.49.404.404 0 01-.196-.157.23.23 0 010-.255 9.45 9.45 0 00.324-.578c.081-.16.134-.332.156-.51a1.317 1.317 0 00-.058-.529 2.462 2.462 0 00-.304-.607l-.784-1.186-2.655 1.696zm-.46.304l-3.243 2.127.421.637c.168.272.388.508.647.695.203.144.439.235.686.265a1.61 1.61 0 00.715-.088 3.4 3.4 0 00.734-.372 1.75 1.75 0 00.872-1.186 2.104 2.104 0 00-.411-1.46l-.421-.618zm3.007 4.802a4.564 4.564 0 011.734-.372 4.704 4.704 0 011.676.284c.523.19 1.006.48 1.42.852.424.368.759.827.98 1.343.284.636.437 1.322.451 2.019a3.964 3.964 0 01-1.342 3.057c-.435.39-.932.705-1.47.931a4.895 4.895 0 01-1.881.421 4.053 4.053 0 01-3.057-1.303 5 5 0 01-.98-1.5 4.616 4.616 0 01-.382-1.724c-.009-.552.097-1.1.314-1.607.23-.52.563-.986.98-1.372.462-.42.996-.751 1.577-.98l-.02-.049zm-1.773 5.752c.147.372.375.707.666.98.282.259.616.452.98.569.376.12.772.167 1.166.137a3.853 3.853 0 001.264-.314 7.559 7.559 0 001.567-.882 4.397 4.397 0 001.078-1.117 2.852 2.852 0 00.235-2.793 2.714 2.714 0 00-.598-.882 2.572 2.572 0 00-.901-.578 2.937 2.937 0 00-1.136-.176c-.45.018-.892.12-1.303.304a7.44 7.44 0 00-1.607.91 4.768 4.768 0 00-1.117 1.147c-.27.391-.442.842-.5 1.313-.053.471.018.947.206 1.382zm5.555 6.38l-2.675.598a.44.44 0 00-.362.382 3.391 3.391 0 000 .911c0 .108-.059.177-.186.206h-.226a33.348 33.348 0 00-.147-.872 22.09 22.09 0 00-.215-1.049c-.049-.225-.118-.48-.196-.764-.078-.284-.157-.549-.225-.804h.196c.127 0 .205 0 .235.079.092.233.214.454.362.656a.383.383 0 00.402.098l6.652-1.499a.412.412 0 00.333-.284 2.18 2.18 0 000-.765c0-.088.059-.146.206-.186h.206c0 .245.078.51.127.784.049.275.098.54.157.784l.411 1.843c.231.75.165 1.56-.186 2.263a2.32 2.32 0 01-1.567 1.098 2.169 2.169 0 01-.892 0 2.479 2.479 0 01-.901-.373 2.93 2.93 0 01-.764-.764 3.106 3.106 0 01-.49-1.147l-.255-1.195zm.696.568c.081.512.337.98.725 1.323a1.723 1.723 0 001.479.186c.255-.057.502-.145.735-.264.213-.108.401-.262.548-.45.152-.203.253-.438.294-.687a2.379 2.379 0 000-.98l-.156-.696-3.733.843.108.725zm1.851 8.281c.02.429-.026.858-.137 1.274a2.653 2.653 0 01-.451.92 1.948 1.948 0 01-.656.51c-.283.13-.59.2-.901.206a3.068 3.068 0 01-1.068-.147 2.385 2.385 0 01-.882-.52 2.49 2.49 0 01-.607-.881 3.456 3.456 0 01-.245-1.255l-.059-1.96v-.793c0-.285 0-.549-.069-.794h.196c.157 0 .235 0 .245.127.028.256.101.505.216.735a.41.41 0 00.392.196l6.858-.215a.386.386 0 00.362-.196 2.84 2.84 0 00.186-.725c0-.089.079-.138.206-.138h.216v1.627c0 .382 0 .745.049 1.068.048.324 0 .627.078.882h-.225c-.147 0-.226 0-.236-.157a3.454 3.454 0 00-.235-.882.44.44 0 00-.441-.274l-2.694.088-.098 1.304zm-3.919 5.536a.385.385 0 00-.362.196 2.922 2.922 0 00-.186.706c0 .088-.079.137-.206.137h-.216v-2.42c0-.294 0-.569-.068-.824h.215c.138 0 .206 0 .216.128.041.238.117.47.225.686a.395.395 0 00.382.176l6.858-.215a.41.41 0 00.373-.196 2.13 2.13 0 00.176-.706.127.127 0 01.078-.108.395.395 0 01.147 0h.216v2.391c0 .294 0 .569.078.843h-.215c-.147 0-.226 0-.235-.127a2.148 2.148 0 00-.216-.686.408.408 0 00-.382-.177l-6.878.196zm3.331-6.751l-3.918.127v.764c-.006.336.058.67.186.98.099.23.254.433.45.588.193.15.418.254.657.304.27.056.547.08.823.069a1.752 1.752 0 001.362-.55c.314-.418.461-.938.411-1.46l.029-.823z" fill="#6C5426"/><path d="M136.18 78.543a36.9 36.9 0 01-6.214 20.495A36.885 36.885 0 0163.12 85.76a36.904 36.904 0 0115.66-37.88 36.879 36.879 0 0120.484-6.232 36.887 36.887 0 0126.099 10.799 36.908 36.908 0 0110.817 26.096z" fill="#972D2D"/><path d="M65.415 75.025a1.745 1.745 0 011.058-1.597 1.86 1.86 0 011.372-.01c.205.08.391.2.549.353.155.156.275.343.352.549.088.225.131.464.128.705a1.705 1.705 0 01-.51 1.225 1.734 1.734 0 01-1.224.5 1.853 1.853 0 01-.696-.127c-.204-.08-.391-.2-.549-.353a1.589 1.589 0 01-.352-.54 1.862 1.862 0 01-.128-.705zm.725-.254c0 .197.02.394.06.588.035.19.098.375.185.548.081.157.195.294.333.402.14.108.314.164.49.157a.823.823 0 00.686-.314 1.25 1.25 0 00.245-.803 3.25 3.25 0 00-.059-.598 2.186 2.186 0 00-.186-.578 1.296 1.296 0 00-.333-.431.764.764 0 00-.51-.167.843.843 0 00-.666.284 1.353 1.353 0 00-.245.912zm4.83-1.186a.696.696 0 00-.597.323 1.46 1.46 0 00-.226.862c-.028.42.09.835.334 1.176a1.088 1.088 0 00.9.422.978.978 0 00.412-.079l.294-.156h.108a.13.13 0 01.088.049l.059.088c-.06.068-.125.13-.196.186a1.61 1.61 0 01-.666.304 2.273 2.273 0 01-.5.049c-.204 0-.406-.037-.597-.108a1.39 1.39 0 01-.5-.314 1.49 1.49 0 01-.333-.519 1.961 1.961 0 01-.128-.735 1.72 1.72 0 01.147-.725 1.863 1.863 0 01.921-.921c.178-.086.372-.133.569-.137.175-.004.35.016.519.058.138.036.27.092.392.167.1.06.187.14.254.235a.52.52 0 01.089.284s0 .06-.079.079l-.176.049h-.294a.176.176 0 01-.157-.098l-.088-.226a.873.873 0 00-.186-.206.53.53 0 00-.333-.097m5.114 2.625a.186.186 0 00.137.177c.1.041.206.07.313.088a.089.089 0 01.07.098.364.364 0 010 .05v.068h-1.627v-.118a.088.088 0 01.068-.098c.101-.017.2-.047.294-.088a.186.186 0 00.137-.176v-1.078H73.9v1.078a.186.186 0 00.137.176c.094.04.193.07.294.088a.089.089 0 01.068.098v.118h-1.626v-.069a.4.4 0 010-.049.089.089 0 01.069-.098 1.43 1.43 0 00.313-.088.195.195 0 00.137-.186V73.84a.196.196 0 00-.137-.187 1.51 1.51 0 00-.313-.088s-.069 0-.069-.088a.334.334 0 010-.049v-.069h1.626v.069a.5.5 0 010 .049c0 .049 0 .078-.068.088-.101.02-.2.049-.294.088a.186.186 0 00-.137.177v.98h1.538v-.98a.186.186 0 00-.137-.177 1.372 1.372 0 00-.294-.088.078.078 0 01-.069-.088.5.5 0 010-.049v-.069h1.626v.069a.308.308 0 010 .049c0 .049 0 .078-.068.088a1.513 1.513 0 00-.314.088.187.187 0 00-.137.177l.069 2.39zm1.078.03a.5.5 0 01.147-.353.479.479 0 01.362-.147.441.441 0 01.343.147.53.53 0 010 .726.45.45 0 01-.343.147.49.49 0 01-.362-.147.5.5 0 01-.147-.373zm42.431-3.214h1.705c.003.02.003.04 0 .059v.059c0 .059 0 .098-.079.108a.982.982 0 00-.323.097.221.221 0 00-.096.089.219.219 0 00-.031.127v2.577a.234.234 0 00.146.225c.112.055.231.091.353.109a.101.101 0 01.061.038c.014.02.02.045.018.07a.393.393 0 010 .068v.049h-1.793v-.049a.263.263 0 010-.069.095.095 0 01.018-.069.096.096 0 01.06-.038c.118-.022.234-.058.343-.108a.216.216 0 00.137-.216v-2.587a.227.227 0 00-.127-.216 1.082 1.082 0 00-.314-.097.096.096 0 01-.06-.039.095.095 0 01-.018-.07.577.577 0 010-.058.193.193 0 010-.059zm4.497.921c.28.188.536.408.764.657.175.2.27.459.264.725.005.215-.046.427-.146.617-.093.171-.22.321-.373.441a1.645 1.645 0 01-.519.275c-.184.06-.375.089-.568.088a2.246 2.246 0 01-.588-.069 1.393 1.393 0 01-.49-.254 1.046 1.046 0 01-.313-.383 1.192 1.192 0 01-.108-.529c-.008-.28.09-.553.274-.764.225-.242.486-.447.774-.608a3.133 3.133 0 01-.441-.313 1.706 1.706 0 01-.274-.304.97.97 0 01-.137-.294 1.176 1.176 0 010-.314c.001-.144.028-.286.078-.421a1.07 1.07 0 01.245-.392c.121-.118.264-.212.421-.274.197-.078.407-.114.618-.108.198-.005.397.021.587.078.154.048.297.125.422.226a.937.937 0 01.352.735.977.977 0 01-.245.676 2.39 2.39 0 01-.578.49l-.019.02zm-.764.343a1.808 1.808 0 00-.441.5 1.172 1.172 0 00-.157.598 1.056 1.056 0 00.255.784.843.843 0 00.617.255.742.742 0 00.313-.069.851.851 0 00.265-.186.88.88 0 00.255-.627c.006-.075.006-.15 0-.226a.64.64 0 00-.079-.215 1.073 1.073 0 00-.176-.216 1.957 1.957 0 00-.294-.235l-.558-.363zm.558-.51c.125-.126.234-.267.323-.42a.988.988 0 00.128-.51.805.805 0 00-.226-.598.726.726 0 00-.538-.225.744.744 0 00-.51.186.623.623 0 00-.206.5.658.658 0 00.128.382c.121.153.267.285.431.392l.47.294zm3.978 1.853c-.142.137-.313.24-.5.304-.162.05-.33.077-.5.078-.15 0-.299-.027-.44-.078a.974.974 0 01-.392-.255 1.266 1.266 0 01-.275-.441 1.854 1.854 0 01-.098-.657 1.749 1.749 0 01.412-1.078c.134-.157.297-.286.48-.382.197-.1.416-.151.637-.147.257-.01.513.044.744.157.191.096.356.237.48.411.122.175.208.371.255.579.05.208.077.422.079.637-.001.314-.04.626-.118.93a3.137 3.137 0 01-.402.922c-.202.312-.454.59-.744.823a4.26 4.26 0 01-1.147.657.306.306 0 01-.078-.177.126.126 0 01.069-.098 5.33 5.33 0 00.695-.52c.168-.146.316-.314.441-.5.11-.166.196-.347.255-.538a5.19 5.19 0 00.147-.627zm0-.402a.908.908 0 00.078-.294 2.966 2.966 0 000-.353c.021-.34-.054-.68-.215-.98a.65.65 0 00-.559-.353.733.733 0 00-.588.294 1.455 1.455 0 00-.245.98c-.002.17.021.338.069.5.035.126.092.246.167.353a.686.686 0 00.244.206.642.642 0 00.285.068c.14-.002.28-.028.411-.078a.552.552 0 00.323-.304m3.302 1.47a1.961 1.961 0 01-.745-.137 1.575 1.575 0 01-.568-.382 1.733 1.733 0 01-.362-.588 2.187 2.187 0 01-.128-.764 2.06 2.06 0 01.137-.745 1.825 1.825 0 01.941-1.02c.225-.1.469-.15.715-.146a1.788 1.788 0 011.284.539c.161.173.288.376.372.597a2.21 2.21 0 010 1.51 1.85 1.85 0 01-.363.597c-.158.174-.352.31-.568.402-.235.1-.489.15-.744.147l.029-.01zm-1.058-1.871a2.49 2.49 0 00.078.676c.047.172.123.334.226.48a.898.898 0 00.744.382.819.819 0 00.382-.098.983.983 0 00.324-.274c.102-.142.179-.302.225-.47a2.57 2.57 0 00.078-.687 2.642 2.642 0 00-.078-.686 1.5 1.5 0 00-.225-.48.982.982 0 00-.324-.284.842.842 0 00-.784 0 .987.987 0 00-.333.284c-.104.145-.18.308-.225.48a2.631 2.631 0 00-.078.696" fill="#FFFCF6"/><path d="M117.977 112.959l-.441-.793a38.719 38.719 0 002.048-1.216l.49.765c-.686.431-1.392.852-2.097 1.244zm-39.512-1.244a34.807 34.807 0 01-2.018-1.372l.53-.735c.636.47 1.302.921 1.959 1.342l-.47.765zm43.627-1.382l-.529-.735c.637-.46 1.273-.98 1.881-1.46l.578.696c-.627.519-1.274.98-1.96 1.499h.03zm-47.595-1.489a41.581 41.581 0 01-1.832-1.617l.627-.667a45.95 45.95 0 001.783 1.578l-.578.706zm51.328-1.627l-.627-.657a34.329 34.329 0 001.685-1.685l.656.627a41.24 41.24 0 01-1.724 1.725l.01-.01zm-54.874-1.705a41.621 41.621 0 01-1.617-1.833l.696-.578a45.93 45.93 0 001.577 1.784l-.656.627zm58.214-1.843l-.695-.578c.499-.607.979-1.244 1.46-1.881l.734.529c-.48.656-.979 1.303-1.499 1.96v-.03zm-61.33-1.93c-.48-.657-.98-1.333-1.371-2.019l.764-.49c.421.667.872 1.333 1.342 1.96l-.735.549zm64.201-2.038l-.764-.49a38.95 38.95 0 001.215-2.049l.793.441a41.034 41.034 0 01-1.244 2.098zm-66.817-2.078a37.535 37.535 0 01-1.107-2.166l.823-.392c.334.716.706 1.431 1.078 2.117l-.794.441zm69.168-2.195l-.823-.382c.343-.716.657-1.45.98-2.186l.843.334a32.419 32.419 0 01-.98 2.244l-.02-.01zm-71.225-2.175a40.167 40.167 0 01-.833-2.294l.862-.284c.245.755.52 1.51.814 2.244l-.843.334zm73.018-2.333l-.862-.284c.245-.754.47-1.519.666-2.293l.882.225a46.174 46.174 0 01-.676 2.342l-.01.01zm-74.546-2.313a33.32 33.32 0 01-.53-2.38l.892-.167c.147.774.324 1.558.52 2.322l-.882.225zm75.781-2.371l-.892-.166a38.08 38.08 0 00.372-2.352l.902.107a33.77 33.77 0 01-.382 2.411zm-76.673-2.41a39.974 39.974 0 01-.225-2.43l.901-.06c.05.794.128 1.588.226 2.372l-.902.117zm77.28-2.49h-.862a38.38 38.38 0 00.078-2.381v-.078h.902v.078c0 .813 0 1.627-.079 2.44l-.039-.059zM61.34 78.955h-.911c0-.794 0-1.607.078-2.4l.901.058c0 .774-.068 1.568-.068 2.342zm75.82-2.519a38.841 38.841 0 00-.225-2.371l.901-.118c.098.804.176 1.617.235 2.43l-.911.06zm-75.438-2.253l-.98-.089a39.83 39.83 0 01.373-2.41l.891.166a31.687 31.687 0 00-.362 2.352l.078-.02zm74.811-2.45a37.814 37.814 0 00-.519-2.323l.881-.225c.206.784.382 1.587.539 2.381l-.901.167zm-74.027-2.205l-.882-.226a39.69 39.69 0 01.676-2.342l.862.285c-.245.754-.46 1.528-.656 2.293v-.01zm72.812-2.391c-.245-.745-.519-1.5-.813-2.244l.842-.334c.304.755.578 1.53.833 2.294l-.862.284zM63.975 64.99l-.842-.314c.294-.755.627-1.51.98-2.244l.822.382c-.333.716-.656 1.45-.98 2.186l.02-.01zm69.54-2.284a35.899 35.899 0 00-1.087-2.116l.793-.441c.392.705.765 1.44 1.117 2.165l-.823.392zm-67.6-2.028l-.794-.441c.392-.715.814-1.421 1.245-2.097l.764.49a39.123 39.123 0 00-1.215 2.058v-.01zm65.367-2.146a32.966 32.966 0 00-1.343-1.96l.735-.54c.48.657.98 1.334 1.382 2.01l-.774.49zM68.58 56.65l-.735-.529c.48-.657.98-1.303 1.5-1.96l.695.578c-.51.608-.98 1.245-1.46 1.882v.03zm59.9-1.989a45.891 45.891 0 00-1.578-1.784l.657-.627a40.58 40.58 0 011.616 1.823l-.695.588zm-56.824-1.715l-.666-.617a40.944 40.944 0 011.724-1.725l.627.657a34.253 34.253 0 00-1.685 1.685zm53.591-1.754a40.313 40.313 0 00-1.793-1.578l.578-.696c.627.52 1.234 1.059 1.832 1.617l-.617.657zm-50.191-1.48l-.598-.715c.627-.52 1.274-.98 1.96-1.5l.538.736c-.636.46-1.273.98-1.88 1.46l-.02.02zm46.428-1.519a43.088 43.088 0 00-1.959-1.342l.49-.765c.686.431 1.362.892 2.018 1.372l-.549.735zM78.906 46.9l-.49-.765a45.34 45.34 0 012.097-1.244l.44.794c-.685.382-1.38.793-2.047 1.215zm38.581-1.264a35.916 35.916 0 00-2.126-1.078l.382-.823c.735.343 1.47.715 2.175 1.107l-.431.794zm-34.417-1.03l-.392-.822a45.36 45.36 0 012.234-.98l.333.842c-.735.294-1.47.608-2.185.98l.01-.02zm30.097-.96a35.826 35.826 0 00-2.244-.803l.274-.863c.774.245 1.548.53 2.303.823l-.333.843zm-25.679-.803l-.293-.863c.773-.254 1.557-.48 2.341-.686l.225.882a35.8 35.8 0 00-2.282.667h.01zm21.152-.706a46.676 46.676 0 00-2.322-.52l.167-.891c.803.147 1.597.323 2.381.53l-.226.881zm-16.547-.48l-.166-.892a39.763 39.763 0 012.41-.382l.117.902a37.81 37.81 0 00-2.351.372h-.01zm11.864-.392a38.655 38.655 0 00-2.371-.216l.059-.901c.804 0 1.627.127 2.43.225l-.118.892zm-7.132-.206l-.059-.882a40.294 40.294 0 012.44-.078v.911c-.794 0-1.597 0-2.38.079" fill="#88734B"/><path d="M162.701 91.41c.011-.87.218-1.727.606-2.506a5.786 5.786 0 011.637-1.992 14.617 14.617 0 001.862 7.644 12.568 12.568 0 011.352 7.634 8.66 8.66 0 01-3.625 5.752 8.285 8.285 0 01-5.712 1.558 17.79 17.79 0 01-6.642-2.244 10.695 10.695 0 00-3.351-1.156 11.985 11.985 0 00-4.095.107.356.356 0 01-.361-.156.356.356 0 01.234-.539 12.655 12.655 0 014.34-.118c1.249.21 2.454.627 3.566 1.235a17.065 17.065 0 006.368 2.165 7.607 7.607 0 005.251-1.43 7.98 7.98 0 003.341-5.282 8.354 8.354 0 00-2.175-6.86c-1.959-2.156-3.713-2.136-4.281-1.96-1.068.324-1.685.98-1.636 1.891a1.711 1.711 0 012.39.54 2.077 2.077 0 01-1.342 3.175c-1.568.42-3.116-.402-3.576-2.636a4.307 4.307 0 011.783-4.224 4.142 4.142 0 014.085-.569" fill="#6C5426"/><path fill-rule="evenodd" clip-rule="evenodd" d="M149.093 104.169c2.792.422 3.919 1.313 5.878 2.107a10.56 10.56 0 006.633.431 5.614 5.614 0 003.654-6.095c-.098-.676-.568-1.058-1.107-.98a1.056 1.056 0 00-.813 1.205c.117 1.313-.157 3.019-1.254 3.783a1.393 1.393 0 00-.98-1.333c-.98-.245-3.36 1.206-5.31 1.431a1.433 1.433 0 00-1.283-1.441c-1.784-.127-3.057.294-5.36.392a.25.25 0 00-.16.06.246.246 0 00.092.421" fill="#6C5426"/><path d="M158.625 113.302a5.69 5.69 0 01.627 1.656.343.343 0 01-.254.402.326.326 0 01-.255-.043.327.327 0 01-.147-.212 5.348 5.348 0 00-.852-1.96 5.655 5.655 0 00-1.284-1.313c-.137-.098-.294-.166-.441-.264a.385.385 0 01-.122-.534.386.386 0 01.534-.123 5.416 5.416 0 003.429.98 6.857 6.857 0 003.38-1.362.389.389 0 01.431-.009.407.407 0 01.108.107.522.522 0 01-.079.588 5.685 5.685 0 01-2.674 2.136 3.4 3.4 0 01-2.401 0m-10.15-.343a.455.455 0 01-.174-.476.473.473 0 01.377-.35.46.46 0 01.346.082 14.566 14.566 0 015.663 7.624 9.95 9.95 0 01-1.186 8.3c-1.695 2.597-5.29 4.429-8.406 3.577a5.731 5.731 0 01-3.771-3.224 3.633 3.633 0 01.215-3.352 3.393 3.393 0 013.772-1.568c.436.119.848.314 1.215.578a4.23 4.23 0 011.675 2.94 1.21 1.21 0 01-.872 1.313 1.063 1.063 0 01-1.224-.715c-.373-.882-.902-1.881-1.813-1.891a1.593 1.593 0 00-1.559 1.317 1.6 1.6 0 00.041.731 3.919 3.919 0 002.655 2.94c2.723.872 5.809-.765 7.308-3.058a9.053 9.053 0 001.078-7.634 13.662 13.662 0 00-5.33-7.134" fill="#6C5426"/><path d="M117.908 127.286a.522.522 0 01-.729-.142.528.528 0 01.142-.73 11.32 11.32 0 002.449-2.313 20.228 20.228 0 001.959-2.94 19.793 19.793 0 013.312-4.331 17.634 17.634 0 0110.443-5.096 19.908 19.908 0 016.653.275 16.183 16.183 0 017.112 3.528 11.375 11.375 0 013.792 5.967.534.534 0 01-.068.394.535.535 0 01-.324.234.677.677 0 01-.705-.314c-1.774-2.558-3.106-4.694-5.732-6.595a3.012 3.012 0 01-.049 3.165c-.382.451-1.499.98-1.332 1.96.166.98 1.352 1.47 1.117 1.852-.235.382-1.754-.431-2.792-2.273-.529-.98-.187-2.774-1.499-3.92-.745 1.538-.069 2.685-.333 3.057-.451.637-1.803-.656-3.351-2.783-1.332-1.832-3.37-2.822-6.77-1.96 2.773.432 4.272 2.695 3.743 3.185-.373.343-2.499-.607-5.193-.088-2.694.519-5.878 2.009-7.093 4.194a22.918 22.918 0 01-2.028 3.048 12.34 12.34 0 01-2.684 2.518" fill="#6C5426"/><path d="M105.417 131.559a.525.525 0 01-.419-.126.524.524 0 01-.134-.618.524.524 0 01.33-.288.541.541 0 01.223-.017c1.842.049 4.105-1.039 6.349-2.753a31.698 31.698 0 006.858-7.448 30.027 30.027 0 017.328-7.898 23.193 23.193 0 0110.679-4.263 29.04 29.04 0 019.728 0 16.283 16.283 0 018.818 4.899 14.333 14.333 0 013.595 6.919 12.046 12.046 0 01-.715 7.35c-.392.852-1.244 1.509-1.901 1.352a1.588 1.588 0 01-1.077-1.852c.676-4.077 1.489-8.536-1.695-12.593-3.419-4.351-10.914-6.163-16.655-5.125a24.41 24.41 0 00-10.209 4.067 29.043 29.043 0 00-7.073 7.634 32.635 32.635 0 01-7.123 7.702c-2.42 1.843-4.898 3.028-7.015 2.94" fill="#6C5426"/><path fill-rule="evenodd" clip-rule="evenodd" d="M134.309 122.984c-.372 1.059-1.724 1.872-3.027 2.254-1.764.51-3.919-.529-5.653.226-1.205.539-1.47 2.185-3.194 3.165-1.725.98-4.723.901-6.555.823-.558 0-.734-.255-.744-.412-.01-.156.186-.372.715-.441a9.785 9.785 0 005.193-1.372c2.223-1.362 3.556-4.4 6.505-5.272 2.185-.646 4.193 1.705 6.76 1.039m-4.742 5.507a5.373 5.373 0 00-3.243-.627c-.823.226-1.195 1.245-1.665 1.96a.507.507 0 00-.103.404.51.51 0 00.24.341.547.547 0 00.637-.137 3.998 3.998 0 011.528-1.304 10.596 10.596 0 012.479 0 .357.357 0 00.313-.284.334.334 0 00-.176-.343" fill="#6C5426"/><path d="M159.811 119.937a.53.53 0 01.935-.444.52.52 0 01.084.189 11.628 11.628 0 002.4 5.88 9.427 9.427 0 003.429 2.155.71.71 0 01.353.618.76.76 0 01-.48.588 4.435 4.435 0 01-2.939 0 4.718 4.718 0 01-2.43-1.745 7.536 7.536 0 01-.98-4.311 13.833 13.833 0 00-.313-2.94M33.506 91.41a5.773 5.773 0 00-2.243-4.498 14.634 14.634 0 01-1.862 7.644 12.567 12.567 0 00-1.352 7.634 8.681 8.681 0 003.625 5.752 8.285 8.285 0 005.712 1.558c2.34-.3 4.599-1.063 6.642-2.244a10.689 10.689 0 013.35-1.156 11.99 11.99 0 014.096.107.354.354 0 10.127-.695 12.656 12.656 0 00-4.34-.118c-1.249.21-2.454.627-3.566 1.235a17.063 17.063 0 01-6.368 2.165 7.602 7.602 0 01-5.251-1.43 7.983 7.983 0 01-3.341-5.282 8.364 8.364 0 012.175-6.86c1.96-2.156 3.713-2.136 4.281-1.96 1.068.324 1.685.98 1.636 1.891a1.714 1.714 0 00-2.39.54 2.079 2.079 0 001.342 3.175c1.568.42 3.116-.402 3.576-2.636a4.302 4.302 0 00-1.783-4.224 4.144 4.144 0 00-4.085-.569" fill="#6C5426"/><path fill-rule="evenodd" clip-rule="evenodd" d="M47.105 104.169c-2.793.422-3.92 1.313-5.928 2.107a10.559 10.559 0 01-6.632.431 5.605 5.605 0 01-3.655-6.095c.098-.676.569-1.058 1.107-.98a1.058 1.058 0 01.813 1.205c-.117 1.313.157 3.019 1.255 3.783a1.392 1.392 0 01.98-1.333c.979-.245 3.36 1.206 5.31 1.431a1.43 1.43 0 011.283-1.441c1.783-.127 3.056.294 5.359.392a.246.246 0 01.069.481" fill="#6C5426"/><path d="M37.572 113.302a5.66 5.66 0 00-.637 1.656.345.345 0 00.255.402c.043.01.088.012.131.004a.342.342 0 00.27-.259 5.332 5.332 0 01.853-1.96c.35-.504.78-.948 1.274-1.313.137-.098.293-.166.44-.264a.39.39 0 00.123-.534.388.388 0 00-.534-.123 5.424 5.424 0 01-3.43.98 6.855 6.855 0 01-3.38-1.362.373.373 0 00-.29-.065.379.379 0 00-.248.163.518.518 0 00.078.588 5.681 5.681 0 002.675 2.136 3.398 3.398 0 002.4 0m10.17-.343a.45.45 0 00.098-.637.46.46 0 00-.637-.108 14.562 14.562 0 00-5.663 7.624 9.953 9.953 0 001.186 8.301c1.694 2.596 5.29 4.429 8.405 3.576a5.72 5.72 0 003.753-3.214 3.636 3.636 0 00-.216-3.351 3.39 3.39 0 00-3.772-1.568 3.765 3.765 0 00-1.215.578 4.224 4.224 0 00-1.675 2.94 1.216 1.216 0 00.872 1.313 1.069 1.069 0 001.225-.715c.372-.882.901-1.882 1.812-1.892a1.597 1.597 0 011.519 2.048 3.923 3.923 0 01-2.655 2.94c-2.724.872-5.81-.764-7.309-3.057a9.058 9.058 0 01-1.068-7.556 13.654 13.654 0 015.33-7.134" fill="#6C5426"/><path d="M78.299 127.286a.524.524 0 00.73-.142.525.525 0 00-.143-.73 11.311 11.311 0 01-2.449-2.313 20.243 20.243 0 01-1.96-2.939 19.773 19.773 0 00-3.31-4.332 17.637 17.637 0 00-10.425-5.047 19.904 19.904 0 00-6.652.275 16.184 16.184 0 00-7.064 3.577 11.384 11.384 0 00-3.83 5.879.53.53 0 00.391.627.676.676 0 00.706-.313c1.773-2.558 3.105-4.694 5.731-6.595a3.008 3.008 0 00.05 3.165c.381.451 1.498.98 1.332 1.96-.167.98-1.352 1.47-1.117 1.852.235.382 1.753-.431 2.802-2.273.529-.98.186-2.774 1.498-3.92.745 1.538.07 2.685.334 3.057.45.637 1.802-.656 3.35-2.783 1.333-1.832 3.37-2.822 6.77-1.96-2.773.431-4.272 2.695-3.742 3.185.372.343 2.498-.607 5.192-.088s5.878 2.009 7.093 4.194a23.098 23.098 0 002.028 3.048 12.4 12.4 0 002.685 2.518" fill="#6C5426"/><path d="M90.79 131.559a.528.528 0 00.553-.305.532.532 0 00-.33-.727.544.544 0 00-.223-.017c-1.842.049-4.105-1.039-6.349-2.753a31.687 31.687 0 01-6.858-7.448 30.038 30.038 0 00-7.328-7.898 23.192 23.192 0 00-10.679-4.263 29.042 29.042 0 00-9.728 0 16.28 16.28 0 00-8.818 4.899 14.334 14.334 0 00-3.595 6.919 12.038 12.038 0 00.715 7.35c.392.852 1.244 1.509 1.9 1.352a1.585 1.585 0 001.078-1.852c-.676-4.077-1.489-8.536 1.695-12.593 3.42-4.351 10.914-6.163 16.655-5.125a24.41 24.41 0 0110.082 4.165 29.038 29.038 0 017.073 7.634 32.625 32.625 0 007.123 7.702c2.42 1.843 4.898 3.028 7.014 2.94" fill="#6C5426"/><path fill-rule="evenodd" clip-rule="evenodd" d="M61.889 122.984c.372 1.059 1.724 1.872 3.027 2.254 1.763.51 3.919-.529 5.653.226 1.205.539 1.47 2.185 3.194 3.165s4.722.901 6.554.823c.558 0 .735-.255.745-.412.01-.156-.187-.372-.716-.441a9.782 9.782 0 01-5.192-1.372c-2.224-1.362-3.556-4.4-6.505-5.272-2.185-.646-4.194 1.705-6.75 1.039m4.721 5.507a5.358 5.358 0 013.243-.627c.823.225 1.195 1.245 1.666 1.96a.499.499 0 01-.137.745.547.547 0 01-.637-.138 4.011 4.011 0 00-1.528-1.303 10.593 10.593 0 00-2.48 0 .358.358 0 01-.313-.284.336.336 0 01.177-.343" fill="#6C5426"/><path d="M36.396 119.937a.529.529 0 00-.382-.637.512.512 0 00-.553.193.506.506 0 00-.084.189 11.61 11.61 0 01-2.4 5.879 9.432 9.432 0 01-3.429 2.156.698.698 0 00-.352.618.761.761 0 00.48.588 4.449 4.449 0 002.939 0 4.722 4.722 0 002.43-1.745 7.546 7.546 0 00.98-4.311c-.002-.989.103-1.974.313-2.94" fill="#6C5426"/><path fill-rule="evenodd" clip-rule="evenodd" d="M95.444 123.474c-1.676.186-5.82-.068-4.154-2.655 1.665-2.588 3.625 1.058 4.154 2.655zm2.655-1.166c-1.294-1.587-3.743-5.987 0-5.987 3.742 0 1.293 4.4 0 5.987zm2.655 1.166c1.675.186 5.809-.068 4.154-2.655-1.656-2.588-3.625 1.058-4.154 2.655zm-2.655-.294a1.691 1.691 0 011.558 1.054 1.693 1.693 0 01-1.241 2.305 1.696 1.696 0 11-.317-3.359zm-8.749-4.449c1.744-.382 3.419-2.068 2.939-3.998a2.387 2.387 0 00-1.1-1.494 2.376 2.376 0 00-1.84-.251 1.1 1.1 0 00-.659.587 1.091 1.091 0 00-.007.883.979.979 0 001.548.451c1.284 1.147.324 2.666-.862 3.832" fill="#6C5426"/><path fill-rule="evenodd" clip-rule="evenodd" d="M85.235 116.115c-.891 1.431-.225 3.508.98 3.4 1.205-.107 2.106-1.911 1.156-3.459a3.541 3.541 0 00-2.717-1.712 3.535 3.535 0 00-2.985 1.183c.215-1.068 1.89-2.734 3.85-3.44-.401-1.352-2.567-.921-3.615.647a7.9 7.9 0 00-1.215 3.43 10.704 10.704 0 003.263 8.712 18.437 18.437 0 0010.541 3.92 13.717 13.717 0 01-7.063-4.9 27.195 27.195 0 01-2.048-3.361 2.512 2.512 0 00-1.607 2.028 4.293 4.293 0 01-1.097-4.694c.392-1.274 1.362-2.136 2.596-1.783m21.573 2.645c-1.743-.382-3.419-2.068-2.939-3.998a2.385 2.385 0 011.995-1.806c.316-.043.637-.022.944.061a1.094 1.094 0 01.757 1.028 1.1 1.1 0 01-.09.442.98.98 0 01-1.548.451c-1.284 1.147-.324 2.666.862 3.832m4.105-2.626c.891 1.431.225 3.508-.98 3.4-1.205-.107-2.106-1.911-1.156-3.459a3.541 3.541 0 012.717-1.712 3.535 3.535 0 012.985 1.183c-.216-1.068-1.891-2.734-3.85-3.44.401-1.352 2.567-.921 3.615.647a7.91 7.91 0 011.215 3.43 10.698 10.698 0 01-3.263 8.712 18.435 18.435 0 01-10.541 3.92 13.718 13.718 0 007.063-4.9 27.1 27.1 0 002.038-3.312 2.506 2.506 0 011.607 2.028 4.29 4.29 0 001.097-4.694c-.392-1.274-1.362-2.136-2.596-1.783" fill="#6C5426"/><path d="M122.013 85.707s2.939 1.646 3.4 4.557c.46 2.91 1.773 5.88 1.43 8.623 0 0-3.311 5.821-6.975 8.349-3.664 2.529-.51-3.821-.51-3.821l2.655-17.708z" fill="#B3B3B3"/><path d="M80.748 67.352v-.392c.215-1.626.882-2.998.646-4.057-.235-1.058-.98-.98-.862-3.361 0-.794.647-2.646.716-3.988.068-1.343-.402-4.048-.128-5.478a14.319 14.319 0 013.135-5.126c.853-.793 2.802-2.841 2.802-2.841a.779.779 0 01-.098-.138l.98-.078a1.774 1.774 0 001.166-.735 5.398 5.398 0 011.273-1.333s-.705 1.353-.362 1.656c.343.304.705-.088.705-.088a9.8 9.8 0 01.833-1.401s-.646 1.43-.303 1.666c.342.235.91-.186.98-.431.044-.492.198-.967.45-1.392 0 0 .274 1.176.108 1.47-.167.294-.696.833-.99.833-.294 0-1.567-.098-2.106.578-.54.676-3.155 2.078-3.557 3.989-.401 1.91-.205 4.468.49 4.948.696.48 2.94 1.627 3.057 2.088.117.46-1.156.98-1.666.98-.509 0-2.282-.833-3.223-.088-.94.744-1.391 1.322-.891 1.773a5.632 5.632 0 003.429.813c.676-.284 1.675-1.087 2.243-1.068.568.02.167 1.48.843 1.647.676.166 3.429-.52 5.153-.138 1.12.15 2.189.567 3.115 1.216a3.914 3.914 0 011.352 1.587 1.812 1.812 0 01-.235.725l-1.263.392s-1.049-1.097-1.313-.98l-.784.98-.706.637s.06.343.618.422l.558.078s-2.38.647-3.154.725a3.556 3.556 0 01-2.4-.98c-.745-.764-.52-2.038-.794-2.332-.275-.294-.804-.98-1.51-.98-.705 0-1.508.588-1.557 1.156a3.793 3.793 0 01-.215 1.108v.117c-.069.353-.304 1.598-.48 2.49a5.529 5.529 0 00.097 1.538c.107.671.288 1.328.54 1.96.234.286.401.62.49.98.02.487-.07.973-.265 1.42 0 0 .313.422.578.403l.627-.412.597.274s-.744 1.225-.372 1.725-.147.872.353.98c.286.04.576.04.862 0 .157 0 0-.274.313-.235.314.039.285.48.451.49.5.081.989.216 1.46.401.676.157 1.146.804 1.548.667a12.538 12.538 0 002.087-.304c.627-.304 1.224 0 1.841-.304 1.156-.607 1.313.294 2.068-.108.754-.401.695-.342 1.538-1.293.842-.95 1.215.235 1.812-1.264.291-.92.696-1.798 1.205-2.617.318-.616.699-1.197 1.137-1.734.676-.725.372-2.166.862-2.47.49-.303.588-1.45.891-1.332.304.117 0 1.264 0 1.528v2.098a9.516 9.516 0 01-.372 2.94c-.294.715-.793 1.96-1.087 2.694-.283.69-.61 1.362-.98 2.01-.343.587-.431 2.674-.98 3.654a4.793 4.793 0 00-.646 2.244c-.059.814-1.156 1.235-1.431 2.274-.274 1.039-.783.98-.725 1.96.059.98 1.166 2.989.98 5.595-.049.725 0 2.264 0 3.322.179-.173.409-.283.656-.313h.049c.627-.098.637-.588.784-1.176a2.603 2.603 0 00-.117-1.303s-.373 0-.471-.5c-.045-.373.03-.751.216-1.078 0 0-.098-.627-.118-.882a.384.384 0 01.49 0c.216.215.118.872 0 1.293-.08.377-.116.762-.108 1.147l.392.245c.294.176.392.568.461.608.068.039 0 0 .068-.108.108-.353-.137-.755 0-1.411.138-.657.363-.804.363-.804a3.897 3.897 0 01-.617-.823 1.273 1.273 0 01.264-.98.776.776 0 00.128-.274c.063-.324.102-.651.117-.98 0 0 .059 1.724.108 2.224.031.283.031.57 0 .853.231-.324.479-.635.744-.931.441-.49.618-1.265.892-1.53.274-.264.882-.607.98-.979a10.3 10.3 0 01.685-1.372c.098-.176-.146-.735-.293-1.137-.098-.206-.226-.43 0-.44.225-.01.401.98.489.98.089 0 0 0 0 0 .098-.236.559-.471 0-1.226a5.018 5.018 0 01-.578-2.352l.206.275c.197.477.329.978.392 1.49a8.75 8.75 0 01.078-1.363v-.245c-.058-.51-.46-.764-.343-1.176.118-.411.157-1.509.255-1.744.098-.235 1.293-1.284 1.96-2.107a5.624 5.624 0 00.979-2.616v-2.832c-.02-.406 0-.813.059-1.216l1.215-1.607c.368-.662.673-1.358.911-2.077a7.677 7.677 0 00.715-2.41c.041-.72.021-1.441-.058-2.157a10.389 10.389 0 00-.98-3.459c-1.411-1.245-2.224.069-2.224.069.098.205-.51.43-.686.784a1.228 1.228 0 01-.451.5c-.235-.099-.127-.461-.127-.902a.986.986 0 01.558-.804.285.285 0 01.206 0c.196-.078.412-.157.529-.215a3.469 3.469 0 011.578-.324c.45.069.587.794.607.882l.274-.627a3.928 3.928 0 01-1.097-2.822 3.774 3.774 0 00-.088-.608 3.53 3.53 0 01-.274-.392s.156-.088.274.392c.292.388.68.692 1.127.882.842.314.568 0 .372-.392-.196-.392-.98-2.293-.98-2.293.284.42.613.807.98 1.156.274.194.57.355.882.48l-.079-.156c-.382-.794.059-.853-.196-1.627a2.349 2.349 0 01-.127-1.245l.539.079c-.539-.51-.5-1.235-.578-2.352-.079-1.117-.539-1.372-1.617-2.813-1.077-1.44-.98-1.185-2.616-2.283a24.616 24.616 0 00-2.674-1.803c-1.029-.52-1.685-.676-2.479-1.097-.794-.422-1.538-.833-2.283-1.186a11.636 11.636 0 00-2.89-.422l-1.185-.166c-.784.186-.706.46-1.862.98a1.743 1.743 0 01-.891.206c-.226 0-.373-.138-.686-.187a2.295 2.295 0 00-.51 0 4.31 4.31 0 00-2.135.765 1.146 1.146 0 01-.764.108l-.324-.05a1.96 1.96 0 00-.833.05 3.096 3.096 0 00-1.783.98 4.684 4.684 0 00-1.293 1.519.637.637 0 01-.51.323c.027.053.06.102.099.147 0 0-1.96 2.048-2.802 2.851a14.31 14.31 0 00-3.067 5.077c-.264 1.43.196 4.145.128 5.478-.069 1.332-.686 3.194-.716 3.988-.098 2.4.598 2.215.862 3.361.265 1.147-.548 2.666-.685 4.488v.001l-.01-.04zm12.58-2.264s.685.48.715.736c.029.254-.892.058-.98-.147-.088-.206.049-.373.274-.598l-.01.01zm-2.499 7.233c-.46-.324-.48-.196-.656-.285-.177-.088-.294-.166-.05-.51l.54.207s.607.597.627.911c.02.314 0 0-.46-.323zm1.42-1.96c-.42.055-.849.035-1.263-.06 0 0-.235.148-.706-.283a5.64 5.64 0 00-.98-.716l-.362.52-.47-.392c.212-.212.481-.358.774-.422h.235c.5-.066 1.007.049 1.43.324a.49.49 0 01.089.45l.421.128c.274-.042.53-.157.745-.333.222-.278.343-.624.342-.98.006-.35-.1-.694-.303-.98a.303.303 0 01.127-.422s.225.157.745.55c.519.391.44.881 1.097 1.616a10.193 10.193 0 011.567 1.872c.128.402-.45.51-.45.51s-.98-.98-1.626-1.441c-.647-.46-.833.069-1.421.176l.01-.117zm3.087 3.224c-.186 0-.45-.382-.98-.402-.529-.02-.44-.441-.911-.706-.47-.264-.686-.94-.372-.94.313 0 .607.597.98.901.372.304 1.087.343 1.45.46.362.118 0 .579-.147.55l-.02.137zm7.965 13.72s-.519-.687-.696-.716c-.176-.03-.313-.784-.284-.98 0 0 .539.078.568.323.03.245.814.735.892 1.049.078.313-.48.362-.48.362v-.039zM107.504 85c-.049.363-.216.647-.666.392-.451-.255 0 0 .049-.362.049-.363 0-1.108 0-1.47.281.437.48.922.588 1.43l.029.01zm2.91-18.148c-.333.078-.98-.343-.98-.588 0-.246.549-.304.813-.324.265-.02.461.323.461.323s.049.52-.275.598l-.019-.01zm2.625-9.251c.412.245.431 1.391.539 1.96.108.568.196 1.734.245 2.254a3.318 3.318 0 01-.392 1.842c-.353.705-.245.852-.49 1.195-.245.343-.499 1.255-.656 1.49a4.262 4.262 0 01.186-1.303c.196-.48.892-1.774.892-1.774l.156-1.058a5.007 5.007 0 00-.499-2.676 8.492 8.492 0 01-.833-2.146c.049-.372.451-.059.862.186l-.01.03zm-1.793 1.039l.294.617s-.421.255-.568 0c-.147-.255.274-.598.274-.598v-.02zm-1.263 5.664a6.86 6.86 0 00.548-1.568c.049-.373 0-2.029.372-2.166.326-.044.655-.044.98 0 .245 0 .421.069.304.147.318.42.491.933.49 1.46-.069.5 0 1.196-.314 1.284a1.752 1.752 0 00-.852.637c-.167.294-.412 1.078-.862 1.146a.98.98 0 01-.686-.098c-.06-.294-.04-.598.059-.882l-.039.04zm-.255-3.793c.137-.48.284-1.46.558-1.411.471.069.255.676.196 1.098a3.092 3.092 0 01-.578 1.058.693.693 0 01-.176-.735v-.01zm-.196 9.035a.82.82 0 01-.764.46c-.5-.068-.333-1.185-.333-1.185a.977.977 0 001.097.725zm-.549-15.679c-.539-.078-.715.265-1.185.137-.47-.127-.921.05-1.431-.696-.509-.744-.793-.842-.979-1.371-.186-.53-.128-.814.166-.775.403.146.826.23 1.254.245.5-.049.637.216 1.058.275.422.059.686.774.108.5a5.872 5.872 0 00-1.518-.167c.032.138.078.273.137.402.264-.069.637.47 1.244.666.524.154 1.057.272 1.597.353.019.06.021.124.007.185a.349.349 0 01-.253.253.341.341 0 01-.185-.007h-.02zm-.96 11.397c-.245.412.088-1.068 0-1.392a2.241 2.241 0 01.137-.98c0-.186.373.51.363.98a2.63 2.63 0 01-.51 1.323l.01.069zm3.988-10.642v.637s-.157.607-.578.49c-.422-.118-.598.166-.892-.383-.294-.548-.578-.401-1.097-.725l.46-.127.451-.059.225.225c.226.226.568 0 .568 0l-.107-.587-.52-.775a3.564 3.564 0 00-1.165-.676.746.746 0 01-.578-.402h.578c.578 0 1.283.755 1.792 1.206.35.345.635.75.843 1.195l.02-.02zm-.324-10.104a1.501 1.501 0 01.745.98c.172.4.368.79.588 1.166l-.539-.646a11.362 11.362 0 01-1.166-1.117 13.707 13.707 0 01-.862-1.078c.43.192.843.422 1.234.686v.01zm-9.797-3.714c.402-1.46 2.322-1.626 2.322-1.626a1.413 1.413 0 00-.862.695l.98-.176a2.251 2.251 0 011.714.44 4.897 4.897 0 00-2.841.795c-.304.333.078.774.078.774s1.911-.48 2.489-.588c.488-.027.975.064 1.42.264-.54.182-1.089.336-1.646.461-.587.108-1.665.578-1.645.843.019.264.823 0 1.283-.128a16.908 16.908 0 002.459-.342c.98-.314 2.253 1.528 2.067 1.499a20.17 20.17 0 00-2.028-.863 13.212 13.212 0 00-1.577 0 1.496 1.496 0 001.391.451c.98-.117 1.96 1.039 1.96 1.039s-.912-.255-2.009-.539c-1.097-.284-1.548.157-1.548.157a6.09 6.09 0 001.617.676c.617.088 1.332 1.274 1.332 1.274a7.408 7.408 0 00-1.695-.559.471.471 0 00-.362.706c.923.46 1.888.834 2.88 1.117a2.44 2.44 0 01-1.607.147 6.774 6.774 0 01-1.518-.47 5.275 5.275 0 011.038 1.607 9.37 9.37 0 001.519 2.185 4.563 4.563 0 01-.98-.147c-.49-.137-.588-1.166-.98-1.793-.391-.627-.587-.784-.979-.912a5.771 5.771 0 01-1.568-.539c-.225-.225-.068-.392-.215-1.107a3.137 3.137 0 00-.98-1.656c-.5-.52-.206-1.235-.98-2.038-.774-.804-.578-1.215-.46-1.647" fill="#FFFCF6"/><path d="M118.624 99.524c-1.352.422-2.038.98-2.94.863-.901-.118-1.293-.373-2.126-.128-.65.142-1.279.37-1.871.676-.343.255-.568.53.441.804 1.072.118 2.157.069 3.214-.147a22.594 22.594 0 012.468-.078c.98 0 2.038-.069 2.038-.069l-.215 2.362a6.074 6.074 0 00-2.685-.51 11.814 11.814 0 00-3.468.235c-1.332.294-2.067.314-2.312.706-.245.392-.392.558.088 1.058s.461-.245.48.5c.02.745-.245.823-.411 1.166-.167.343-.265.147.392.666.656.52 1.087.53 1.734 1.167.646.637.49.872 1.126 1.146.637.274.461.617.892 1.049.431.431-2.587-.373-2.587-.373-1.714 0-3.507-.382-3.987 0s-.794.382-.98.98c-.186.598-.538.353-.088 1.46.451 1.108-.313.843-.245 1.215.069.373-3.047-.107-5.437-.391l15.754 2.479 2.312-16.405s-.235-.891-1.587-.48" fill="#B3B3B3"/><path d="M121.406 90.842a30.825 30.825 0 01-1.822-2.646c-.177-.45-2.42-2.372-2.939-3.126a4.166 4.166 0 00-1.548-1.205l.48-.363c.46.295.885.644 1.264 1.039.313.411 1.675 1.96 1.959 2.244.284.284 1.763 1.793 1.763 1.793l1.068 1.5.578-4.028-.813-1.157a17.717 17.717 0 00-2.057-2.322s-1.333-1.744-2.028-2.607c.269.473.489.972.656 1.49.265.715-.157 1.078-.392 1.048-.235-.029-.098-.568-.323-1.156a8.888 8.888 0 00-.794-1.284 2.031 2.031 0 01-.205-1.136c.248.186.487.386.715.597-.314-.352-.921-.872-1.244-1.156a17.74 17.74 0 01-2.019-2.989 10.751 10.751 0 00-1.195-1.96c-.362-.48.177-.833.196-1.323.02-.49-.235-.529-.235-.529l-.931-.255c.177.163.309.369.382.598a8.906 8.906 0 01-.558 2.558 5.008 5.008 0 01-1.528 2.048c-.479.41-.821.957-.98 1.568a8.669 8.669 0 00-.206 1.96c.016.107.016.216 0 .323a8.872 8.872 0 00-.078 1.401 6.258 6.258 0 00-.392-1.528l-.206-.265c-.004.82.194 1.628.578 2.352.568.755.098.98 0 1.225 0 0-.225-.98-.49-.98 0 0-.245 0 0 .431s.402.98.294 1.147c-.265.44-.498.898-.695 1.372-.108.352-.716.695-.98.98-.265.284-.461 1.038-.892 1.528-.266.313-.515.64-.744.98 0 0-.206.157-.363.804-.156.647.088 1.058 0 1.41 0 .09-.049.118-.078.099-.029-.02-.167-.422-.47-.608l-.392-.235c.15.418.19.866.117 1.303-.147.589-.156 1.079-.783 1.176h-.059a3.248 3.248 0 00-1.382.98c-.196.196-.382-.078-.578-.343v-.049a.7.7 0 01.059.441c-.071.023-.14.052-.206.089l.089.058a.138.138 0 01.196.059c.339.172.732.207 1.097.098.911-.255 2.106-1.822 2.106-1.822a38.336 38.336 0 002.734-4.46c1.743-3.184 2.165-4.066 3.007-5.516 1.47-2.548 1.431-3.92 1.852-4.332 0-.186.304 0 .372 1.215 0 .608-.715 1.558-.979 2.872-.265 1.313-1.078 2.792-1.157 3.331-.078.54.098.569.451.314.665-.475 1.294-1 1.881-1.568.372-.44 1.156-.813 1.646-1.607s1.097-1.382 1.401-1.99c.304-.607.47-1.156.47-1.156s.157.206 0 1.049c-.156.843-.676 1.254-.656 1.96.02.705-1.871 1.078-2.302 1.96-.431.882-1.558.98-2.195 2.44-.637 1.46-1.901 1.685-2.616 3.243-.715 1.558-2.028 2.166-2.41 3.087a8.114 8.114 0 01-1.469 2.94 9.77 9.77 0 00-2.077 2.519 12.226 12.226 0 00-1.049 2.547c-.058.853-.431 2.578.059 2.156a38.493 38.493 0 002.479-3.567c.47-.666 2.567-3.312 3.282-4.439a38.883 38.883 0 013.576-3.92l1.146-1.127a3.742 3.742 0 001.391-1.96 4.416 4.416 0 011.822-2.44c.755-.568 1.45-.715 1.362-.049-.26.798-.588 1.572-.979 2.313a7.042 7.042 0 01-.882 1.842c-.549.843-1.803 1.402-1.783 2.137.019.735-.137.108-1.088 1.127a10.309 10.309 0 00-2.145 2.518c-.676 1.254 0 .921.979.206.999-.77 2.1-1.398 3.273-1.862a10.592 10.592 0 012.606-.608c1.44-.225 1.832.079 1.185.294-.891.276-1.749.651-2.557 1.117-.676.451-.882-.254-1.959 1.069-1.078 1.323-1.186.98-.363 1.666a3.143 3.143 0 002.508.48 16.65 16.65 0 012.606-.177c.98 0 1.607-.51 1.96 0l.352.54.196.333 1.254-8.663-.176.539zM81.737 68.97c.872.166 2.812.078 3.184-.52.353-.72.626-1.475.814-2.254 0-.088.548-.98.548-.98l.265-.412a8.404 8.404 0 01-.45 1.696 5.656 5.656 0 00-.599 1.587c.15.54.469 1.019.912 1.362.382.177.734.843.93.98.288.072.586.096.882.069-.255 0-.578-.402-.578-.402.207-.471.297-.985.265-1.5a2.499 2.499 0 00-.49-.98 9.255 9.255 0 01-.54-1.959 5.548 5.548 0 01-.097-1.538c.176-.892.411-2.137.48-2.49-.127.54-.245.98-.245.98a1.431 1.431 0 00-.774 0l-.343.118a.597.597 0 00.206-.539l-.079-.294s-.274.774-.852.813c-.578.04-1.175 0-1.548-1.205a1.96 1.96 0 00-.519 1.029s-.696.559-.862.323a2.645 2.645 0 01-.186-.98 4.14 4.14 0 011.215-.99 1.959 1.959 0 011.312 0s.549-.127.353-.48c-.196-.352-.784-.48-1.42-.372-.637.108-1.51 1.127-1.842 1.166-.334.04-.98-.598-.089-1.685.892-1.088.794-.98 1.392-1.147a5.202 5.202 0 011.96.088c.646.05 1.302 0 1.733.5.431.5.882.657.774 1.46.059-.568.862-1.127 1.558-1.156.695-.03 1.234.686 1.509.98.274.294 0 1.568.793 2.332a3.555 3.555 0 002.4.98c.775-.078 3.155-.725 3.155-.725l-.49-.108c-.558-.078-.617-.421-.617-.421l.706-.637.783-.98c.265-.088 1.313.98 1.313.98l1.264-.392c.13-.222.21-.47.235-.725a3.92 3.92 0 00-1.352-1.588 7.053 7.053 0 00-3.115-1.215c-1.725-.372-4.478.304-5.154.137-.676-.166-.274-1.627-.842-1.646-.569-.02-1.568.784-2.244 1.068a5.622 5.622 0 01-3.429-.813c-.5-.451 0-.98.892-1.774.891-.794 2.704.137 3.223.088.52-.049 1.793-.568 1.665-.98-.127-.411-2.36-1.607-3.056-2.087-.696-.48-.892-3.048-.49-4.949.402-1.901 2.998-3.38 3.537-4.057.538-.676 1.793-.588 2.106-.588.314 0 .784-.588.98-.872.196-.284-.108-1.47-.108-1.47a3.313 3.313 0 00-.48 1.362c0 .245-.608.676-.98.431-.372-.245.304-1.666.304-1.666a9.864 9.864 0 00-.833 1.402s-.372.392-.715.088c-.343-.304.362-1.656.362-1.656-.486.393-.9.867-1.224 1.401a1.783 1.783 0 01-1.186.774l-.98.079a.76.76 0 00.099.127s-1.96 2.048-2.802 2.852a14.327 14.327 0 00-3.067 5.076c-.264 1.43.196 4.145.127 5.478-.068 1.333-.685 3.195-.715 3.988-.098 2.401.598 2.215.862 3.362.265 1.146-.42 2.42-.646 4.057 0 .088.157 1.9.98 2.048l-.04-.03zm9.749-10.516c.372-.274.93-.196 1.665-.45a3.467 3.467 0 012.528.323 9.401 9.401 0 002.204.608c.706.225.764 1.254.764 1.254.314.372-.078.52-.078.52l-.52-.363a2.468 2.468 0 00-1.469-.578c-.264-.157-.774-.56-.186-.432 0 0-1.176-.617-1.636-.323-.46.294.49.559.49.559 1.597.313 1.646.813 1.646.813l-.46-.186c.15.073.303.138.46.196.146 0 0 .392-.108.597-.108.206-.764.373-.764.373a2.389 2.389 0 01-1.108 0c-.43-.147-.656-.872-.656-.872a3.25 3.25 0 01-.597.735c-.226.127-.775 0-.775 0h-.244c-.245 0-.745.911-1.088.705-.343-.206-.098-.754 0-1.636.098-.882.167-.588 0-.902-.166-.314-.43-.676-.069-.98" fill="#B3B3B3"/><path d="M79.739 78.397a19.526 19.526 0 002.116-1.47 15.355 15.355 0 012.4-1.539c.98-.676 2.136-.627 2.812-1.068.676-.441.686-.764 1.088-.706.401.06 0 .334.293.53.294.195.696-.265.823-.334.338-.069.688-.005.98.177.266.182.51.396.725.637.294.245.284.862.676.98.392.117.794.44 1.117.49.323.049.98-.147 1.332-.138a1.313 1.313 0 01.98.304c.284.284.353.667.696.833.343.167.597.696.98.98.393.332.816.627 1.263.882.196.069-.147.431-.333.608-.186.176-.646.519-.725.176-.078-.343-.92-.706-1.117-.735-.196-.03-.842-.118-.98-.5-.137-.382-1.283-1.048-1.204-1.283.078-.236 0-.49-.294-.49s-1.215-.294-1.538-.294a5.045 5.045 0 00-1.127-.118c-.571.035-1.144.035-1.715 0-.45 0-1.087-.363-1.381 0-.294.363-.45.833-.108.98a2.55 2.55 0 001.44-.078c.24-.095.499-.128.755-.098.323 0 .98.146 1.097.323.183.215.39.41.617.578h.53c.114.313.164.647.146.98a.47.47 0 01-.5.372c-.156-.058-.215-.764-.41-.833-.197-.068-.471-.725-.716-.676-.245.05-.137-.186-.255 0-.117.186-.206-.274-.597-.127a5.754 5.754 0 01-1.078.127c-.343.079-.382-.215-.647.236-.264.45-.597.44-.793.666-.196.225-.814.5-.892.774-.078.274-.068.764-.176 1.205-.108.441-.657 1.137-.637 1.588.02.45-.382-.177-.47.706-.089.881.421 1.048.392 1.244-.03.196.685-.186.823-.578.137-.392.117-.52.294.245.176.764.42.754.303 1.274a1.432 1.432 0 00.069 1.195c.168.235.31.488.421.755.049.215.44.069.608-.53.166-.597.117-.803.342-.362.226.441.412.265.48.931 0 .314 0 .324-.088.294l.186.206c.451.558.578 1.391.902.862.323-.529.744-.588.852-1.107.108-.52.108-1.617.392-.98.284.637.46.764.411 1.088-.049.323-.695 1.127-.744 1.773-.05.647.392.422.078.873-.313.45-.068.725-.156 1.372-.089.646-.118.519.235 1.47.352.95 1.077 1.342.823 1.675-.255.333.235.078.097.98-.137.902.236-.215.461-.666.225-.451.46-2.342.676-1.823.215.52 0 0 .333.784s.627.745.382 1.323 0 .862.294.53c.294-.334.353.087.53-1.402.175-1.49.087-1.96.538-1.186.45.774 1.274.225.93.98-.342.754-.205 1.44.275 1.225.26-.097.476-.285.608-.53a6.277 6.277 0 01.538-1.479s0 .98.216.794c.215-.187.558-.226.764-.667.206-.44.686-1.283.686-.93 0 .352.225.754.411.42a2.82 2.82 0 01.627-.685c.247-.094.51-.14.774-.137.647.343 0 .901.294 1.323l.069.098c.196.264.372.538.578.343a3.24 3.24 0 011.381-.98 1.127 1.127 0 00-.656.313c0-1.068-.088-2.597 0-3.322.186-2.606-.921-4.635-.98-5.595-.059-.96.451-.873.725-1.96.274-1.088 1.381-1.46 1.43-2.274a4.82 4.82 0 01.647-2.244c.588-.98.686-3.077.98-3.655.37-.648.697-1.319.979-2.009.294-.715.794-1.96 1.088-2.695a9.547 9.547 0 00.372-2.94V64.58c0-.264.275-1.401 0-1.529-.274-.127-.401.98-.891 1.333s-.186 1.745-.862 2.47a9.877 9.877 0 00-1.137 1.734c-.51.818-.914 1.697-1.205 2.617 0 0 .235.088 0 .744-.235.657-.372.314-.656.598-.284.284-.255.373-.422.98-.166.608.559.118.882-.157a1.079 1.079 0 00.284-.823s.235.079.128.549c-.108.47-.196.539-.118.803.078.265-.392 1.05-.813 1.686-.421.637-.872.363-1.205.108-.333-.255-.294-.53-.5-.48-.206.049-.578-.245-1.136-.373-.559-.127-.431-.392-.324-.617.108-.225.245 0 .716.147.47.147.597.372.774 0 .176-.373.235-.784-.167-.559a.784.784 0 01-.803-.068c-.755.401-.911-.5-2.067.108-.618.333-1.215 0-1.842.303-.686.16-1.384.261-2.087.304-.402.137-.872-.51-1.548-.666a7.02 7.02 0 00-1.46-.402c-.166 0-.127-.441-.45-.49-.324-.049-.157.216-.314.235-.286.04-.576.04-.862 0-.5-.068 0-.45-.353-.98-.353-.529.372-1.724.372-1.724a3.054 3.054 0 00-.91.617c-.213.358-.34.76-.373 1.176 0 .45-.108.98-.108.98l-.362-1.157a2.018 2.018 0 00-.706.637c-.169.313-.42.574-.725.755-.362.235-.558.774-.734.588-.177-.186-.559-.118-.47-.441.087-.323.724-.755.979-.931l.098.176a1.117 1.117 0 00.852-.774c.137-.637.079-.803-.48-.93a1.844 1.844 0 00-1.518.313c-.498.451-.91.99-1.215 1.587-.157.51-.284.824-.549.98-.398.16-.812.278-1.234.353 0 0-1.333.725-1.823 1.098-.49.372-.284 1.127-.45 1.41-.167.285-.921 1.275-.921 1.275a.215.215 0 00.166.108 1.96 1.96 0 00.902-.314c-.038.14-.105.27-.196.382m33.3-27.469s.745 1.882.98 2.293c.235.412.47.706-.372.392a2.764 2.764 0 01-1.127-.882c.045.2.074.403.088.608a3.922 3.922 0 001.039 2.812l-.559-1.176 1.44 1.069-.382-1.588.637 1.068s.696-.588.657-1.127a5.562 5.562 0 00-.559-1.832 4.43 4.43 0 01-.882-.48 7.042 7.042 0 01-.979-1.157m-25.58-9.212a4.703 4.703 0 011.293-1.518 3.095 3.095 0 011.783-.98 1.96 1.96 0 01.832-.05l.324.05c.26.053.53.015.764-.108a4.28 4.28 0 012.136-.765c.172-.02.346-.02.519 0 .313 0 .46.157.686.187.31.01.617-.06.891-.206 1.166-.5 1.078-.774 1.862-.98l-1.538-.167c-1.627-.235-2.371.716-3.557.833-.245 0-2.38.333-3.439.422-1.058.088-1.773.783-2.674 1.96-.657.842-.5 1.41-.363 1.656a.637.637 0 00.51-.324" fill="#B3B3B3"/><path d="M111.481 72.468a5.6 5.6 0 01-.979 2.616c-.676.823-1.871 1.882-1.96 2.107-.088.226-.117 1.274-.254 1.745-.138.47.274.646.343 1.136a8.61 8.61 0 01.205-1.96 3.1 3.1 0 01.98-1.568 5.01 5.01 0 001.568-2.067c.31-.82.498-1.683.558-2.558a1.38 1.38 0 00-.392-.598c0 .431 0 .833-.059 1.088l-.01.059z" fill="#1A1A18"/><path d="M111.364 44.901c.361.413.75.8 1.166 1.157l.539.647c-.22-.377-.416-.766-.588-1.166a1.508 1.508 0 00-.745-.98 8.208 8.208 0 00-1.234-.686c.254.42.588.715.862 1.078m-.235 8.535c-.51-.45-1.215-1.254-1.793-1.205h-.578a.753.753 0 00.578.401c.428.15.824.38 1.166.677l.519.774.108.588s-.343.206-.568 0l-.226-.226-.45.06-.461.127c.519.333.794.176 1.097.725.304.549.471.255.892.382.421.127.578-.49.578-.49v-.637a4.144 4.144 0 00-.843-1.195m.353 5.781l-.294-.607s-.421.323-.274.597c.147.275.568 0 .568 0m-.931 6.017c.451-.059.696-.852.862-1.146.211-.296.509-.519.853-.637.264-.089.245-.794.313-1.284a2.412 2.412 0 00-.489-1.46c-.304.215-.216.813-.069 1.509a1.34 1.34 0 01-.754 1.362c-.334.196.264-1.372-.147-1.558-.412-.186-.657.666-.657.666a6.795 6.795 0 01-.539 1.568 1.664 1.664 0 00-.058.882c.209.115.452.15.685.098z" fill="#B3B3B3"/><path d="M111.148 62.04c.402.187-.196 1.755.147 1.56a1.329 1.329 0 00.745-1.363c-.147-.696-.225-1.294.069-1.51a.522.522 0 00-.304-.146h-.98c-.402.127-.323 1.793-.372 2.165 0 0 .255-.852.656-.666" fill="#1A1A18"/><path d="M110.227 65.902c-.254 0-.754 0-.803.323-.049.324.666.667.98.588.313-.078.274-.597.274-.597s-.206-.343-.46-.324" fill="#B3B3B3"/><path d="M113.49 62.198l-.157 1.058s-.696 1.294-.891 1.774c-.13.422-.193.862-.187 1.303.157-.235.422-1.146.657-1.49.235-.342.137-.49.49-1.195a3.335 3.335 0 00.392-1.842c-.049-.51-.138-1.666-.245-2.254-.108-.588-.128-1.725-.539-1.96-.412-.235-.804-.559-.862-.186.178.75.459 1.472.832 2.146.409.826.582 1.748.5 2.665" fill="#1A1A18"/><path d="M108.748 69.998a.814.814 0 00.764-.46.98.98 0 01-1.097-.725s-.157 1.117.333 1.185zm-6.407-27.536c.774.813.48 1.528.979 2.038.492.436.835 1.015.98 1.656.147.715 0 .892.216 1.107a5.81 5.81 0 001.567.54c.422.127.598.274.98.901s.519 1.656.98 1.793c.32.084.649.133.979.147a9.4 9.4 0 01-1.518-2.185 5.3 5.3 0 00-1.039-1.607c.486.216.996.374 1.519.47a2.43 2.43 0 001.607-.147 16.77 16.77 0 01-2.802-1.117.464.464 0 01-.067-.503.47.47 0 01.429-.271 7.408 7.408 0 011.695.559s-.715-1.186-1.332-1.274a6.07 6.07 0 01-1.617-.677s.441-.44 1.548-.156c1.107.284 2.008.539 2.008.539s-.979-1.157-1.959-1.04a1.51 1.51 0 01-1.391-.45 13.212 13.212 0 011.577 0c.691.25 1.368.538 2.028.862.186 0-1.136-1.813-2.067-1.499-.81.174-1.632.29-2.459.343-.461.127-1.264.392-1.284.127-.019-.264 1.059-.735 1.646-.842a16.573 16.573 0 001.646-.46 3.035 3.035 0 00-1.381-.158c-.588.108-2.489.588-2.489.588s-.382-.43-.078-.774a4.897 4.897 0 012.841-.794 2.262 2.262 0 00-1.714-.44l-.98.176a1.406 1.406 0 01.862-.696s-1.959.167-2.322 1.627c-.117.44-.313.843.461 1.646" fill="#B3B3B3"/><path d="M101.586 72.32c-.832.98-.783.902-1.538 1.294a.785.785 0 00.804.069c.401-.226.342.215.166.558-.176.343-.304.118-.774 0-.47-.117-.597-.372-.715-.147-.118.226-.235.5.323.618.559.117.921.421 1.137.372.215-.049.176.226.499.48.324.255.784.52 1.205-.107.422-.628.902-1.421.814-1.686-.089-.264 0-.323.117-.803.118-.48-.127-.55-.127-.55a1.08 1.08 0 01-.284.823c-.324.275-1.049.746-.882.158.166-.588.137-.677.421-.98.284-.304.441.068.657-.598.215-.666 0-.745 0-.745-.598 1.5-.98.304-1.813 1.264" fill="#1A1A18"/><path d="M94.052 65.784c0-.254-.715-.734-.715-.734-.225.225-.372.392-.274.597.098.206.98.402.98.147m-.393 4.371c.628.47 1.627 1.44 1.627 1.44s.588-.108.45-.51a10.163 10.163 0 00-1.567-1.871c-.656-.725-.578-1.225-1.097-1.617-.52-.392-.745-.549-.745-.549a.305.305 0 00-.127.422c.203.286.31.629.304.98 0 .356-.121.701-.343.98a1.54 1.54 0 01-.745.333l-.421-.128v.569c.411.093.836.113 1.254.059.588-.108.794-.647 1.42-.177m-3.027 1.598l-.5-.206c-.245.343-.127.421.05.51.176.088.195 0 .656.284.46.284.48.636.46.323-.02-.314-.627-.911-.627-.911m4.791 1.205c-.362-.118-1.117-.157-1.45-.46-.333-.304-.637-.902-.94-.902-.304 0-.147.549.323.803.47.255.343.686.911.706.568.02.833.372.98.402.147.03.51-.431.147-.549m12.687-9.976a2.241 2.241 0 00-.137.98c.078.333-.255 1.803 0 1.392.288-.386.464-.844.509-1.323 0-.51-.313-1.206-.362-.98" fill="#B3B3B3"/><path d="M98.304 59.934h-.058c-.61-.26-1.243-.464-1.891-.607-.598-.128-.079.274.186.43.54.028 1.056.231 1.47.579l.519.363s.392-.148.078-.52a.98.98 0 00-.255-.196" fill="#FFFCF6"/><path d="M91.544 60.277c-.127.882-.372 1.421 0 1.637.373.215.833-.696 1.088-.706h.245s.548.157.774 0c.234-.214.436-.462.597-.735 0 0 .226.725.647.872a2.38 2.38 0 001.107 0s-.284-.617-.127-.833c.144-.16.331-.275.538-.333l.461.186s-.049-.5-1.646-.813c0 0-.92-.274-.49-.559.431-.284 1.627.314 1.627.314.65.133 1.284.337 1.89.608h.06a.892.892 0 01.254.196s-.059-1.03-.764-1.255a9.39 9.39 0 01-2.205-.607 3.467 3.467 0 00-2.527-.285c-.735.265-1.293.177-1.666.451-.372.275-.137.637.069.98.206.343.156 0 0 .902" fill="#1A1A18"/><path d="M95.845 60.493c-.156.225.128.833.128.833s.636-.069.764-.373c.127-.304.264-.558.108-.598a4.638 4.638 0 01-.46-.196 1.137 1.137 0 00-.54.334z" fill="#FFFCF6"/><path d="M86.744 58.925c-.421-.47-1.078-.441-1.734-.49a5.202 5.202 0 00-1.96-.088c-.597.196-.46.058-1.391 1.146-.93 1.088-.245 1.725.078 1.686.324-.04 1.215-1.049 1.842-1.166.627-.118 1.225 0 1.42.372.197.372-.352.48-.352.48a1.959 1.959 0 00-1.313 0c-.465.227-.884.54-1.234.921 0 .336.063.668.186.98.167.226.862-.323.862-.323a1.96 1.96 0 01.52-1.03c.362 1.157.98 1.245 1.547 1.206.569-.039.853-.813.853-.813l.078.294a.607.607 0 01-.206.539l.343-.118c.253-.07.521-.07.774 0 0 0 .118-.46.245-.98v-.098c.088-.382.167-.793.216-1.107.117-.804-.343-.98-.774-1.46m1.43 11.583a2.681 2.681 0 01-.882-.069c-.186-.108-.538-.774-.93-.98a2.598 2.598 0 01-.911-1.362 5.67 5.67 0 01.597-1.587c.21-.548.36-1.116.45-1.696l-.264.412s-.539.892-.548.98c-.188.779-.46 1.535-.814 2.254-.372.598-2.312.686-3.184.52-.871-.167-.92-1.96-.98-2.049 0 .167 0 .47-.058.833.011 1.123.186 2.24.52 3.312l.704 3.175a6.248 6.248 0 001.235-.352c.274-.167.402-.47.549-.98a5.546 5.546 0 011.215-1.588 1.84 1.84 0 011.518-.313c.558.117.607.294.48.93a1.116 1.116 0 01-.852.775l-.098-.177c-.226.177-.862.608-.98.931-.118.324.294.245.47.431.177.187.382-.352.745-.588a1.96 1.96 0 00.725-.754c.181-.265.423-.484.705-.637l.363 1.156s.078-.558.108-.98c.032-.415.16-.817.372-1.176.264-.259.572-.468.911-.617l-.588-.275s-.372.392-.627.412" fill="#1A1A18"/><path d="M90.898 69.263a2.116 2.116 0 00-1.43-.323h-.236c-.29.065-.554.211-.764.421l.47.392.363-.52c.351.203.68.443.98.716.47.441.705.285.705.285v-.569a.49.49 0 00-.088-.45m25.56 10.847c.301.405.566.834.794 1.284.225.588.078 1.117.323 1.147.245.029.657-.334.392-1.049a8.078 8.078 0 00-.646-1.49l-.363-.44a8.487 8.487 0 00-.715-.598c-.043.39.028.786.206 1.136" fill="#1A1A18"/><path d="M112.784 55.858a3.439 3.439 0 00-1.577.323c-.117.059-.333.137-.529.215a.275.275 0 00-.206 0 .98.98 0 00-.558.804c0 .441-.118.804.127.902.195-.125.351-.301.451-.51.176-.353.784-.588.686-.784 0 0 .813-1.313 2.224-.069 0-.078-.157-.813-.608-.881m-5.026-2.774c-.617-.196-.979-.735-1.244-.666 0 0-.098-.274-.137-.402-.039-.127-.049 0 0-.059s0 0 0 .06a5.889 5.889 0 011.519.166c.568.264.303-.441-.108-.5-.412-.059-.568-.323-1.058-.274a4.175 4.175 0 01-1.254-.245c-.304 0-.402.245-.177.774.226.529.52.627.98 1.372.46.744.98.568 1.43.695.451.128.647-.215 1.186-.137a.342.342 0 00.431-.43c-.54-.082-1.073-.2-1.597-.354m-4.869 32.809c0-.245-.568-.323-.568-.323 0 .235.097.98.284.98.186 0 .695.715.695.715s.559 0 .48-.362c-.078-.363-.862-.804-.891-1.049m.803 4.576a5.01 5.01 0 01.108-1.146c.118-.412.215-1.078 0-1.294a.382.382 0 00-.49 0c0 .245.118.882.118.882a1.754 1.754 0 00-.216 1.078c.108.47.451.48.48.48zm1.323-2.332c-.049-.5-.108-2.224-.108-2.224a6.88 6.88 0 01-.118.98.775.775 0 01-.127.274 1.274 1.274 0 00-.264.98c.168.3.376.577.617.823a3.92 3.92 0 000-.853m1.851-3.087c-.049.363-.509.108-.049.363.461.255.618 0 .667-.392a4.296 4.296 0 00-.588-1.43c-.049.362 0 1.107 0 1.47m3.008-23.745c.26-.311.456-.67.578-1.058.058-.421.274-1.03-.196-1.098-.275 0-.422.98-.559 1.412a.703.703 0 00.177.734" fill="#B3B3B3"/><path d="M82.11 84.002c-.235.323-.559.803-.755 1.146a4.804 4.804 0 00-.646 2.068c-.157 1.068-.353 3.352 0 2.528.352-.823 1.361-.98 1.264-1.244-.098-.265.313.176-.177.794a6.373 6.373 0 00-.784 2.136 7.09 7.09 0 001.519-1.078c.333-.431.078-.059-.088 1.078-.167 1.137-.637 1.607-.421 2.46.215.852.303 2.156.832 2.704 0 0 .343-.98.51-1.626.166-.647.147 1.313 0 2.048 0 .655.14 1.304.411 1.9a9.06 9.06 0 01.108-2.165c.206-.921.803 1.96.843 2.166a9.037 9.037 0 01.049-1.764c.166-.657.538 1.96.705 2.215.166.254.255-1.735.46-2.245.206-.51.46 1.5 1.049 2.195l.176-1.205c.088-.598.813.98 1.293 1.411a3.754 3.754 0 010-1.283 7.2 7.2 0 001.088 1.45 1.96 1.96 0 01.156-1.068s.412 1.421.863 1.558l.068-.98s.725.647.98.901l.323-.833.843.736c.071-.332.163-.66.274-.98.098-.187.45.607.45.607a.794.794 0 00.53-.803c0-.618.392.127.49.343.095.14.203.272.323.392.411-.334.676-.98.823-1.088.19-.233.347-.49.47-.765.157-.303.294-.588.333-.676 0-.44 0-.852.098-.715s.157.98.284.627c.128-.353.54-.98.431-1.343-.107-.362 0-.411.128-.068.06.194.093.395.098.598.365-.324.616-.757.715-1.235l.088-.696c.092.184.148.384.167.588.003.296-.04.59-.128.872v-.078a3.43 3.43 0 01.334-1.078c.093-.13.205-.246.333-.343v-.078c.068-.353.088-.47.098-.51.038.125.065.253.078.382 0 .206.578-.176.666-.44.088-.265.157-.49.157-.49.082.227.082.477 0 .705-.128.304.343.343.411.108a2.135 2.135 0 010-.196v-.383c.043.062.079.128.108.196l.049.05c-.245-.422.353-.98-.294-1.323a2.105 2.105 0 00-.774.137 2.843 2.843 0 00-.627.686c-.186.333-.411-.06-.411-.422s-.49.48-.686.931c-.196.451-.568.441-.764.667-.196.225-.216-.794-.216-.794a6.279 6.279 0 00-.539 1.48 1.156 1.156 0 01-.607.529c-.48.215-.627-.5-.274-1.225.352-.725-.47-.147-.921-.98-.451-.833-.363-.294-.54 1.195-.175 1.49-.273 1.069-.528 1.392-.255.323-.539 0-.294-.54.245-.538 0-.538-.382-1.322s-.128-.265-.333-.784c-.206-.52-.079 1.421-.304 1.92-.225.5-.598 1.588-.46.667.137-.921-.353-.666-.098-.98.254-.313-.47-.725-.823-1.676-.353-.95-.334-.823-.236-1.47.098-.646-.156-.92.157-1.371.314-.451-.127-.226-.078-.873.049-.646.705-1.45.744-1.773.04-.324-.137-.47-.411-1.088-.274-.617-.274.49-.392.98-.117.49-.529.578-.852 1.107-.324.53-.451-.313-.902-.862l-.186-.206s.128 0 .088-.294c-.068-.666-.254-.49-.48-.93-.225-.442-.166-.226-.343.362-.176.588-.558.735-.607.529a3.852 3.852 0 00-.421-.755 1.43 1.43 0 01-.069-1.195c.118-.52-.127-.51-.303-1.274-.177-.764-.157-.637-.295-.245-.137.392-.852.774-.822.578.029-.196-.48-.353-.392-1.245.088-.891.49-.254.47-.705-.02-.45.539-1.147.637-1.588.098-.44.088-.93.176-1.205.088-.274.696-.559.892-.774.196-.216.519-.206.793-.666.275-.461.314-.157.647-.236a5.76 5.76 0 001.087-.127c.392-.147.48.353.598.127.117-.225 0 0 .255 0 .254 0 .529.608.715.676.186.07.255.775.411.833a.47.47 0 00.51-.372 2.45 2.45 0 00-.147-.98h-.53a3.765 3.765 0 01-.607-.578c-.098-.176-.774-.314-1.097-.323a1.567 1.567 0 00-.754.098 2.537 2.537 0 01-1.44.078c-.343-.176-.187-.686.107-.98.294-.294.98 0 1.382 0a14.05 14.05 0 001.714 0c.38 0 .757.043 1.127.127.323 0 1.215.343 1.509.343.293 0 .372.255.293.49-.078.236 1.098.892 1.206 1.284.107.392.754.48.98.51.225.03 1.048.392 1.116.735.069.343.53 0 .725-.187.196-.186.53-.538.333-.607a8.534 8.534 0 01-1.264-.882c-.362-.294-.617-.823-.98-.98-.362-.157-.41-.549-.695-.833a1.302 1.302 0 00-.98-.304c-.323 0-.98.177-1.322.137-.343-.039-.725-.392-1.117-.49-.392-.098-.392-.715-.676-.98a4.027 4.027 0 00-.725-.636 1.342 1.342 0 00-.98-.177c-.127.059-.48.598-.823.333-.343-.264.108-.47-.294-.529-.401-.059-.411.265-1.087.706-.676.44-1.842.333-2.822 1.01-.837.425-1.634.927-2.38 1.498a19.642 19.642 0 01-2.136 1.51 1.46 1.46 0 01-.392.333h.088a2.48 2.48 0 001.195-.441 2.43 2.43 0 01-1.067.98h.097c.54.078 1.382-.55 1.382-.55-.108.324-.725.628-.666.648.186 0 1.41-.412 1.41-.412l-.058.421a.3.3 0 010 .06c-.116.433-.26.859-.431 1.273 0 0 .725 1.96.42 2.695-.205.48.118.618.373.54l.02.058z" fill="#050506"/><path d="M95.032 99.583a2.579 2.579 0 01-.323-.392c-.108-.216-.54-.98-.5-.343a.793.793 0 01-.529.813s-.362-.803-.46-.607a8.5 8.5 0 00-.275.98l-.842-.735-.324.842c-.303-.245-.98-.901-.98-.901l-.068.98c-.46-.137-.862-1.558-.862-1.558a2.02 2.02 0 00-.157 1.068 7.187 7.187 0 01-1.087-1.45c-.09.421-.106.856-.05 1.283-.48-.411-1.204-2.009-1.292-1.41l-.177 1.204c-.578-.695-.833-2.704-1.048-2.195-.216.51-.304 2.548-.46 2.244-.157-.303-.54-2.87-.706-2.214a9.107 9.107 0 00-.049 1.764c0-.206-.637-3.087-.843-2.166a9.039 9.039 0 00-.107 2.166 4.569 4.569 0 01-.441-1.94c.108-.736.117-2.705 0-2.049-.118.657-.51 1.627-.51 1.627-.529-.549-.617-1.862-.832-2.705-.216-.842.254-1.322.42-2.46.168-1.136.422-1.508.09-1.077a7.093 7.093 0 01-1.52 1.078 6.37 6.37 0 01.784-2.137c.5-.607.088-1.078.186-.793.098.284-.881.421-1.273 1.244-.392.823-.196-1.46 0-2.528.017-.72.194-1.426.52-2.068.195-.343.528-.823.754-1.146-.255.078-.588-.06-.373-.54.304-.705-.411-2.675-.421-2.694l-.735 1.401c-.264.784-.676 2.146-.98 3.009l-.215.695a23.96 23.96 0 00.01 4.528c.068.813.617 2.117.695 2.861 0 .275.186 2.715 1.313 3.685.794.686 1.401 1.636 2.234 2.352a2.48 2.48 0 001.352.548c.852.108 1.695-.088 2.038 0a.187.187 0 01.147.099.608.608 0 00.45.431c.47.107 1.156-.275 1.754-.216a.996.996 0 01.333.098c.284.122.584.198.892.225.915.091 1.835.107 2.753.049.313 0 .656-.705 1.332-.725a.774.774 0 00.46-.196l-.078-.03zm6.153-5.292v-.049l-.235-.705-.04-.05a1.129 1.129 0 00-.107-.195v.382a1.446 1.446 0 000 .186c-.079.245-.539.196-.412-.108a1.042 1.042 0 000-.705s-.068.225-.157.49c-.088.264-.646.647-.666.44a1.96 1.96 0 00-.078-.381s0 .156-.098.51v.087c-.128.097-.24.213-.333.343-.17.339-.282.703-.333 1.078l-.05.079c.088-.282.131-.577.128-.872a1.65 1.65 0 00-.176-.588l-.079.695c-.099.478-.35.911-.715 1.235a2.177 2.177 0 00-.098-.598c-.108-.343-.235-.294-.127.069.108.362-.294.98-.431 1.343-.138.362-.196-.402-.284-.628-.089-.225-.07.275-.099.716a4.103 4.103 0 01-.078.647 20.96 20.96 0 01-.303 1.038c.233-.346.427-.718.578-1.107 0 .235 0 .372.127.176.06-.139.105-.283.137-.43.255.42.137.979.294.675.157-.471.269-.957.333-1.45a1.5 1.5 0 00.353.196c.254.196.568.323.51.206-.06-.118.323-.98.323-.98.055-.428.177-.845.362-1.235.085-.122.188-.23.304-.323a8.183 8.183 0 000 1.038c0 .382.274.069.421-.264v.51c0 .558.539-.353.529-.657-.01-.304.392-.676.509-.804m-.284-.941a.431.431 0 00.059.167l-.059-.167z" fill="#B3B3B3"/><path d="M118.8 86.785c-.265-.284-1.636-1.833-1.959-2.244a6.974 6.974 0 00-1.235-1.039l-.48.363a4.164 4.164 0 011.548 1.205c.509.745 2.743 2.665 2.939 3.126a31.26 31.26 0 001.822 2.656l.196-.461v-.304l-1.068-1.5s-1.499-1.508-1.763-1.792M81.17 49.38c.44-.98.979-1.872 1.459-2.773.452-.58.932-1.135 1.44-1.666l.108-.088c.284-.089 2.743-2.666 2.704-2.43-.206.43-2.88 3.557-3.174 3.92a5.38 5.38 0 00-1.196 3.919c.275-.216.402-.078.441.196a3.92 3.92 0 010 .921.783.783 0 00.245.755.588.588 0 01.176.676 1.32 1.32 0 01-.176.313.352.352 0 01.441.05c.637.46.627.45 0 .98a9.007 9.007 0 00-2.469 3.557c-.147.392-.059.51.372.48.431-.03.931-.059 1.392-.137a2.772 2.772 0 011.636.147c.222.11.46.186.705.225 1.117.127 1.391.98 1.48 1.803a2.667 2.667 0 01-.54 2.107.118.118 0 01-.117-.078 1.294 1.294 0 01.049-.774 2.028 2.028 0 00-1.675-2.617 5.064 5.064 0 00-1.754 0 .764.764 0 00-.715.627c-.069.323-.265.333-.52.177a1.958 1.958 0 00-.773-.304c-.343 0-.441-.255-.383-.559.033-.185.056-.371.07-.558v-.363c.082-.46.193-.915.332-1.362.174-.672.26-1.364.255-2.058a31.62 31.62 0 01.186-5.086z" fill="#1A1A18"/><path d="M80.336 58.964a6.136 6.136 0 00.412 2.773 3.46 3.46 0 01.578 2.94c-.333 1.215-.813 1.225-.53 3.685 0 0 .628-3.058 1.901-4.057a10.609 10.609 0 011.823-1.245 2.086 2.086 0 01-2.058-.549c-.881-.93.706-1.617.706-1.617s-2.195-.078.401-.98c1.313-.44-1.714-1.166-1.714-1.166l-1.519.216z" fill="#1B1B1B"/><path d="M86.48 63.629c-.21.41-.463.799-.755 1.156-.271.288-.493.62-.657.98a5.695 5.695 0 01-.607.98c-.117.166-.206.156-.343 0a2.518 2.518 0 00-1.117-.882c-.127 0-.137-.167-.068-.275a.716.716 0 000-.754.294.294 0 010-.314c.343-.372.529-.862.881-1.234a.402.402 0 01.422-.138c.64.156 1.301.212 1.96.167.185 0 .234.088.224.284" fill="#B3B3B3"/><path d="M90.702 79.17a.721.721 0 000-.088c-.098-.284 0-.52.284-.568.284-.05.44.186.5.45.107.48.176.98.284 1.451 0 .118 0 .412.235.333.235-.078.186-.245.108-.421a.638.638 0 01-.05-.314c0-.147-.166-.353 0-.431.167-.078.363.069.5.176a1.362 1.362 0 01.45 1.167 3.03 3.03 0 00.06 1.391c.078.177-.079.275-.216.353-.137.078-.5.304-.774.421a1.96 1.96 0 00-.98 1.255.715.715 0 01-.862.44c-.215-.068-.245-.235-.078-.391.166-.157.186-.108.274-.177.088-.068.206-.235.088-.362-.117-.128-.186 0-.274.098-.088.098-.411.205-.392.147.118-.324-.588-.402-.166-.814a2.784 2.784 0 00.333-3.45 1.96 1.96 0 01.117-1.802.147.147 0 01.206 0 .216.216 0 01.078.284 1.84 1.84 0 00-.117.872.294.294 0 00.304.294c.176 0 .127-.176.146-.294" fill="#FFFCF6"/><path d="M113.519 100.289c.833-.245 1.215.058 2.126.127.911.069 1.607-.44 2.939-.862 1.333-.422 2.352 1.646 2.352 1.646l-.618-2.127-.195-.342-.353-.55c-.353-.548-.98 0-1.96 0a16.434 16.434 0 00-2.606.167 3.144 3.144 0 01-2.508-.5c-.823-.676-.685-.352.373-1.675s1.254-.618 1.959-1.068a12.478 12.478 0 012.538-1.137c.646-.216.264-.52-1.186-.304-.89.089-1.766.29-2.606.598a13.516 13.516 0 00-3.282 1.862c-.98.715-1.695 1.048-.98-.216a10.43 10.43 0 012.156-2.528c.979-1.029 1.107-.392 1.087-1.137-.019-.744 1.235-1.303 1.793-2.146a7.163 7.163 0 00.892-1.852c.391-.745.719-1.522.979-2.322.098-.667-.597-.52-1.362 0a4.449 4.449 0 00-1.841 2.45 3.78 3.78 0 01-1.401 1.96l-1.107 1.185a39.135 39.135 0 00-3.596 3.92c-.715 1.127-2.831 3.782-3.302 4.459a39.026 39.026 0 01-2.498 3.586c-.49.422-.108-1.313 0-2.165a12.47 12.47 0 011.058-2.568 9.853 9.853 0 012.097-2.528 8.205 8.205 0 001.479-2.94c.382-.98 1.705-1.538 2.43-3.097.725-1.558 1.959-1.803 2.635-3.253.676-1.45 1.774-1.588 2.205-2.45.431-.862 2.331-1.195 2.312-1.96-.02-.764.539-1.156.666-1.96.127-.803 0-1.058 0-1.058s-.206.588-.48 1.166-.931 1.284-1.411 2.078c-.48.793-1.362 1.136-1.734 1.528a16.58 16.58 0 01-1.861 1.617c-.343.255-.53.225-.451-.313.078-.54.911-2.029 1.175-3.352.265-1.323.98-2.273.98-2.88-.068-1.216-.401-1.412-.372-1.226-.421.373-.392 1.793-1.871 4.36-.853 1.461-1.274 2.343-3.037 5.547a39.004 39.004 0 01-2.753 4.479s-1.205 1.578-2.117 1.832a1.478 1.478 0 01-1.097-.107c-.127.127-.529.548-.519.803.01.255-.49 1.225-.529.666a4.812 4.812 0 010-.51c-.147.334-.392.658-.422.266-.021-.35-.021-.7 0-1.05a1.62 1.62 0 00-.313.324 4.167 4.167 0 00-.372 1.245s-.422.803-.333.98c.088.176-.255 0-.51-.206a1.513 1.513 0 01-.353-.196 7.839 7.839 0 01-.333 1.46c-.156.314 0-.255-.293-.676a2.414 2.414 0 01-.138.431c-.098.196-.088.05-.127-.186a5.648 5.648 0 01-.657 1.117s.187-.578.304-1.039c.047-.216.076-.435.088-.656 0 .088-.186.382-.343.686a3.45 3.45 0 01-.48.764c-.156.118-.42.764-.832 1.098a.774.774 0 01-.46.186c-.677 0-.98.715-1.333.725-.921.055-1.845.036-2.763-.059a2.933 2.933 0 01-.892-.235.995.995 0 00-.333-.098c-.587-.059-1.273.323-1.753.216a.622.622 0 01-.45-.431.187.187 0 00-.148-.099c-.343-.078-1.185.108-2.038 0a2.478 2.478 0 01-1.342-.558c-.833-.725-1.43-1.676-2.234-2.372-1.126-.98-1.264-3.449-1.293-3.714-.078-.754-.617-2.067-.676-2.88a24.258 24.258 0 01.127-4.616l.226-.696c.264-.862.686-2.244.98-3.028-.491.76-1.028 1.49-1.607 2.185-.167.21-.32.429-.46.657l-1.078 1.96a32.034 32.034 0 00-2.117 5.556c-.578 2.45-2.85 10.446-2.85 10.446l-1.637 6.644 28.412 4.155s1.225.177 2.733.363c2.391.304 5.477.657 5.438.421-.039-.235.695-.107.245-1.225-.451-1.117-.118-.882.098-1.469.215-.588.519-.608.979-.98.461-.373 2.273 0 3.988 0 0 0 3.008.823 2.586.382-.421-.441-.254-.784-.891-1.059-.637-.274-.48-.499-1.117-1.156-.637-.657-1.068-.657-1.734-1.186-.666-.529-.568-.333-.392-.676.176-.343.431-.431.421-1.176-.01-.745 0 0-.48-.5-.48-.499-.333-.666-.088-1.068.245-.402.98-.411 2.322-.705a11.744 11.744 0 013.478-.226 14.33 14.33 0 013.978.833c.372.304 2.037-.656-1.059-2.685 0 0-1.058.088-2.037.069a22.853 22.853 0 00-2.469.068 10.26 10.26 0 01-3.214.138c-.979-.275-.783-.549-.431-.804a7.548 7.548 0 011.881-.647" fill="#050506"/></g><defs><clipPath id="clip0"><path fill="#fff" d="M0 0h198v175H0z"/></clipPath></defs></svg>