<svg width="214" height="214" fill="none" xmlns="http://www.w3.org/2000/svg"><g clip-path="url(#clip0)"><path fill="#fff" d="M-846-2420h1920v7397H-846z"/><circle cx="113.5" cy="108.5" r="70.5" fill="#FDF7EB"/><path d="M141.367 66.787h-2.874V66.7c0-1.489-1.211-2.7-2.699-2.7h-5.574a2.702 2.702 0 00-2.699 2.7v.087H85.633a6.887 6.887 0 00-6.88 6.88v72.453a6.887 6.887 0 006.88 6.88h55.734a6.887 6.887 0 006.88-6.88V73.666a6.887 6.887 0 00-6.88-6.88zm-11.234-.087c0-.048.039-.088.087-.088h5.574c.048 0 .087.04.087.088v1.38l-.001.013.001.013v14.895l-2.461-.82a1.3 1.3 0 00-.826 0l-2.461.82V66.7zm15.501 79.42a4.272 4.272 0 01-4.267 4.267H85.633a4.272 4.272 0 01-4.267-4.267V73.666a4.272 4.272 0 014.267-4.267h41.888v15.414a1.307 1.307 0 001.719 1.24l3.767-1.256 3.767 1.255a1.304 1.304 0 001.177-.18c.341-.245.543-.639.543-1.059V69.4h2.873a4.272 4.272 0 014.267 4.267v72.454z" fill="#B4965D"/><path d="M85.633 80.72c-.721 0-1.306.585-1.306 1.306v64.094a1.306 1.306 0 102.612 0V82.026c0-.721-.585-1.306-1.306-1.306zm0-8.36c-.721 0-1.306.585-1.306 1.306v2.787a1.306 1.306 0 102.612 0v-2.787c0-.721-.585-1.306-1.306-1.306zm41.8 48.767h-25.08a6.887 6.887 0 00-6.88 6.88v5.573a6.887 6.887 0 006.88 6.88h25.08a6.887 6.887 0 006.88-6.88v-5.573a6.887 6.887 0 00-6.88-6.88zm4.267 12.453a4.272 4.272 0 01-4.267 4.267h-25.08a4.272 4.272 0 01-4.267-4.267v-5.573a4.272 4.272 0 014.267-4.267h25.08a4.272 4.272 0 014.267 4.267v5.573z" fill="#B4965D"/><path d="M124.647 132.274H105.14a1.307 1.307 0 100 2.612h19.507a1.306 1.306 0 100-2.612zm-15.327-2.961h11.147a1.306 1.306 0 000-2.612H109.32a1.305 1.305 0 100 2.612zm-5.574-25.08h5.661v5.66a4.097 4.097 0 004.093 4.093h2.787a4.097 4.097 0 004.092-4.093v-5.66h5.661a4.097 4.097 0 004.093-4.093v-2.787a4.098 4.098 0 00-4.093-4.093h-5.661V87.6a4.097 4.097 0 00-4.092-4.093H113.5a4.097 4.097 0 00-4.093 4.093v5.66h-5.661a4.098 4.098 0 00-4.093 4.093v2.787a4.098 4.098 0 004.093 4.093zm-1.48-6.88c0-.816.664-1.48 1.48-1.48h6.967c.722 0 1.306-.585 1.306-1.306V87.6c0-.816.664-1.48 1.481-1.48h2.787c.816 0 1.48.663 1.48 1.48v6.967c0 .721.585 1.306 1.306 1.306h6.967c.816 0 1.48.664 1.48 1.48v2.787c0 .816-.664 1.48-1.48 1.48h-6.967c-.721 0-1.306.585-1.306 1.307v6.966c0 .817-.664 1.481-1.48 1.481H113.5a1.482 1.482 0 01-1.481-1.481v-6.966c0-.722-.584-1.307-1.306-1.307h-6.967c-.816 0-1.48-.664-1.48-1.48v-2.787z" fill="#B4965D"/><path d="M37.11 150.814a87.72 87.72 0 0044.237 38.846 87.515 87.515 0 0058.788 2.094 87.429 87.429 0 0046.803-35.603 87.596 87.596 0 0013.695-57.23 87.174 87.174 0 00-10.563-33.152c-9.144-16.445-22.986-29.267-40.032-37.081a.548.548 0 00-.605.098.552.552 0 00.147.907c16.829 7.713 30.497 20.375 39.525 36.613 23.182 41.694 8.165 94.45-33.474 117.6-41.638 23.151-94.374 8.065-117.555-33.628a89.714 89.714 0 01-2.009-3.83.544.544 0 00-.318-.279.536.536 0 00-.214-.028.539.539 0 00-.379.187.544.544 0 00-.135.401.554.554 0 00.056.208 89.519 89.519 0 002.032 3.877zm76.553-134.226l.014.002-.014-.002zm21.644 3.746c.028.019.055.04.081.062l-.081-.062zm-5.351-1.817l-.018-.008.044.017-.026-.009zm-3.973-1.181l-.1-.01.1.01zm10.235 4.565l-.008-.014.03.022-.022-.008zm-6.919-2.904l.015.006-.015-.006zm-26.647 2.209l-.042-.053.042.053zm4.614 4.379l.075.055-.075-.055zm-.969-1.982l-.09-.067.09.067zM86.165 29.49l-.03.004.03-.004zm14.776 1.314l-.015-.005.015.005zm-26.232-.573l-.022-.001.022.001zm27.446 2.786l-.041.008.041-.008zm-27.672-2.792l-.049-.004.05.004zm22.428 4.862l-.03.006.03-.006zM69.943 27.25l-.045.024a.192.192 0 01.045-.024zM40.376 55.024l-.016.021.016-.02zM76.07 10.456l.006-.014-.007.014z" fill="#B4965D"/><path d="M80.08 1.375l.002.023v.04l.002.023c-1.16 4.8-2.887 9.703-6.143 13.53l.037-.05c-2.236 2.79-4.942 5.111-7.466 7.624l.058-.06c-5.134 5.19-11.237 9.273-16.514 14.271-1.974 3.175-2.665 7.15-3.937 10.678l.025-.087c-.03.103-.061.214-.086.311 4.293-4.82 8.469-9.901 13.856-13.556l-.029.016c.02-.01.035-.028.053-.044l-.026.015c3.244-2.526 6.615-5.044 10.258-6.957l-.044.025a29.037 29.037 0 003.594-2.09l-.02.01c2.398-2.236 4.671-4.616 6.323-7.489 1.763-2.941 4.552-5.114 7.259-7.153 5.417-4.166 12.5-3.724 18.95-3.501 4.724-.098 9.463-.175 14.174.005.084-.009.199-.042.237.05.021.112-.106.134-.182.174l-.021.012.008-.005a8.827 8.827 0 01-.116.065l.021-.012c-1.198.632-2.584.814-3.827 1.353-1.32.65-2.452 1.62-3.73 2.341-3.861 2.257-7.964 4.168-12.396 4.98l.011-.006-.107.015.025-.004c-3.621.368-7.27-.1-10.9.1-.898.093-1.89.221-2.724.656-1.025.536-1.834 1.381-2.805 1.993-1.185.616-2.554.799-3.674 1.557l.022-.012c-1.972 1.277-3.46 3.11-5.223 4.632 11.97-5.683 25.308-9.311 38.622-8.27l-.028-.002.084.009-.04-.005a21.809 21.809 0 004.071-.304l-.059.01a99 99 0 001.247-.2l-.097.014c6.508-1.009 15.523.423 19.477 6.214l-.007-.012c.319.398.664.776.99 1.167l-.035-.043c.44.487.786 1.048 1.197 1.559l-.011-.02c.06.08.122.155.185.232l-.034-.041c.145.174.307.333.484.475l-.025-.022c.058.052.116.107.172.16l-.022-.021c.394.4 2.32 1.101.452.787l.016.003-.109-.02a2.772 2.772 0 01-.252-.059l-.025-.004c-1.535-.517-2.769-1.679-3.942-2.773-2.12-1.263-4.332-2.43-6.762-2.965-3.715-.721-7.644.119-11.123-1.73l.063.026-.219-.088c-6.021-2.07-12.338-1.886-18.561-1.009 4.331 1.654 8.509 3.758 13.204 4.208 5.225.294 9.561 2.538 13.881 5.308.24.228 2.303 1.58 1.302 1.509-7.855-2.244-13.922 2.826-21.75-3.27l-.062-.047-.032-.024.034.026c-1.676-1.416-3.419-2.737-4.75-4.505l.009.016c-.703-.758-1.546-1.37-2.338-2.03l.091.069c-.14-.103-.279-.215-.42-.32l.07.038-.092-.066.047.037c-1.891-1.622-7.959.76-10.392 1.297-8.779 2.738-17.36 6.36-24.928 11.645 7.336-3.949 14.039-1.733 21.61-2.984l-.018.01.085-.013-.012.007.088-.013-.053.008c.029-.004.058-.01.088-.013l-.048.007c1.778-.371 3.589-.096 5.382-.054 1.868-.12 3.768-.36 5.625.06 2.941.657 5.504 2.467 8.511 2.889l-.024-.001c3.872.628 1.83.53-.433.986-2.766.77-5.482 1.784-8.302 2.358l.01-.005-.053.011-.05.01.008-.004c-4.882.75-10.01 2.399-14.335-.905-2.398-1.845-4.73-3.967-7.98-3.92l.091.006-.122-.009-.2-.013.05.003-.12-.008.02.003a25.54 25.54 0 00-2.06.242l.094-.015-.15.024.034-.005-.09.015.007-.005c-3.577.476-6.84 2.06-10.084 3.548a5.99 5.99 0 01.039-.021c-2.936 1.3-5.294 3.721-7.634 5.888l.018-.01-.069.068.05-.05C49.395 45.228 44.346 50.72 40.435 57.07c-.778.761-1.127 2.133-2.063 2.62-.5.127-.636-.496-.432-.843l-.037.097.06-.157-.008.023c.056-.142.127-.276.213-.402l-.023.03c.727-1.11 1.458-2.208 2.17-3.328l-.043.058c1.69-2.613 4.277-4.753 5.131-7.81l-.025.088c1.666-4.963.55-10.211 1.528-15.256.726-3.45 3.168-6.137 5.634-8.506 3.307-4.378 8.161-6.918 12.853-9.53l-.075.041c5.091-2.503 9.376-6.171 13.008-10.494l-.022.025c.561-.724 1.19-1.428 1.575-2.252a.47.47 0 00.018-.075.093.093 0 01.045-.092.092.092 0 01.138.068zM98.61 15.24c6.295-.248 11.828-3.657 16.978-6.93-8.825 2.11-17.72 4.11-26.387 6.812 3.135.005 6.273.173 9.409.117zm-15.688 3.223c1.256-.337 2.274-1.16 3.25-1.987-1.253.696-2.49 1.41-3.754 2.086.168-.032.335-.065.504-.1zm-2.175.22c5.757-4.143 12.68-5.833 19.501-7.337 5.177-1.112 10.22-2.76 15.447-3.642-1.426-.021-2.861.1-4.279-.03l.052.006c-.093-.008-.189-.016-.275-.028-6.872.293-14.096-1.167-20.587 1.713l.064-.036c-3.364 1.68-6.372 4.228-8.766 7.095l.016-.025-.256.417.016-.025c-.368.685-.763 1.349-1.12 2.037.064-.047.125-.099.187-.146zm36.296-.93c2.131.373 4.04 1.508 6.167 1.87 4.176.225 8.549-.007 12.245 2.335-1.784-1.508-4.064-2.076-6.173-2.966a13.85 13.85 0 00-3.164-.88l.101.011c-3.114-.436-6.257-.205-9.38-.442l.204.072zm18.139 3.367l-.028-.02.028.02zm-14.41-4.103c2.818.114 5.757.05 8.397 1.175.259.103.516.213.775.32l-.023-.009.084.034-.017-.008c1.737.818 3.63 1.358 5.154 2.554l-.023-.018.047.035-.009-.015.24.179-.054-.04c.299.213.581.439.871.659l-.007-.013.052.038-.005-.01c.383.282.74.597 1.118.887l-.027-.02.05.038-.005-.01c.803.52 1.397 1.26 2.039 1.955-.49-.674-1.102-1.248-1.631-1.891l.016.029a21.4 21.4 0 01-.512-.639l.007.011c-2.946-4.084-8.02-4.933-12.662-5.675l.101.01c-2.31-.294-4.641.068-6.93.376.969.115 1.963.021 2.954.048zm-17.315 3.754l.058.072-.072-.091-.009-.016.023.035zm-.291-.368c3.946 5.044 10.282 8.928 16.859 7.356l-.04.006c1.689-.206 3.394-.09 5.088-.145-.451-.161-.886-.37-1.339-.52l.06.02c-.221-.072-.443-.147-.665-.222l.027.01c-2.046-.712-3.996-1.76-6.227-1.665l.017.001c-5.144.124-9.599-2.276-13.842-4.897.027.012.04.036.062.056zm-.511-1.146c4.402 2.632 8.995 5.245 14.272 5.331 3.573-.088 6.524 2.402 9.894 3.075-2.686-1.297-5.053-3.32-8.001-4.008-5.63-.96-11.335-1.72-16.421-4.528.083.046.171.087.257.131l-.001-.001zm-.093 13.676l.018-.01-.022.012.004-.002zm-.162.032l.059-.013-.037.008-.055.012.047-.01-.014.003zm-23.484-2.682c2.614 1.326 4.436 3.855 7.375 4.68 1.741.62 3.542.28 5.312.039 3.698-.212 7.286-1.09 10.845-2.047l-.015.008a20.72 20.72 0 002.224-.574c-8.788.61-17.332-2.019-26.07-2.232.105.04.216.078.323.129l.006-.003zm7.87-.242c3.22.499 6.421 1.127 9.669 1.443l-.093-.012c2.368.313 4.757.434 7.144.363-.892-.226-1.705-.677-2.556-1.03l.022.008-.082-.034.045.019c-2.811-1.396-5.88-1.814-8.97-1.4-1.932-.024-3.87-.343-5.789.09l.014-.007-.088.012.038-.005c-.483.074-.966.166-1.45.236a.316.316 0 00.043-.006l-.04.006c.696.115 1.395.212 2.088.32l.006-.003zm-33.728 2.396l-.058.032c.64-.493 1.253-1.016 1.911-1.485l-.01.006c1.025-.789 2.202-1.348 3.202-2.174l-.06.033c.254-.19.5-.396.756-.586l-.01.005c.197-.151.395-.3.593-.45l-.057.042c.19-.145.383-.285.575-.43a.213.213 0 00-.058.043l.308-.229-.046.026c5.89-5.027 11.784-10.238 15.955-16.838l-.01.006.03-.053-.016.025c.747-1.5 1.438-3.018 2.128-4.54l-.259.426.032-.05a30.58 30.58 0 01-4.637 5.7l.009-.005-.028.015.012-.007c-.088.084-.178.166-.267.248l.015-.008c-.22.203-.439.405-.66.605l.055-.048c-1.84 1.828-4.023 3.244-5.976 4.937.017-.01.03-.028.046-.044-.025.014-.042.04-.063.059l.017-.01-.073.068.025-.025-.053.05c.01-.007.02-.012.027-.026l-.038.035.007-.004-.054.05.065-.06c-4.753 4.652-8.902 9.848-13.44 14.697.039.014.07-.009.1-.032l.005-.004zm-5.886 4.338l.002-.04-.002.04zm31.426-32.25c-3.674 4.231-8.04 7.781-13.073 10.28l.072-.041c-1.684.864-3.213 1.987-4.887 2.863l.079-.044c-4.822 2.644-8.526 7.051-11.806 11.376-2.29 3.708-1.78 8.248-1.615 12.402 1.236-5.703 5.367-9.68 9.175-13.793 2.954-3.674 6.25-7.066 9.587-10.387 2.331-1.913 4.842-3.596 6.999-5.72l-.027.026c.02-.011.034-.032.052-.049l-.015.009c2.186-2.093 3.995-4.55 5.59-7.114a3.8 3.8 0 01-.14.197l.009-.005z" fill="#B4965D"/><path d="M120.464 7.19l-.008.005c-.009.005.004-.004.008-.005zm8.425 21.061l-.028-.024.028.024zm12.431-1.777l-.015-.004.015.004zm-79.723 11.95c.032-.017.07-.025.106-.035l-.106.035zm-8.441 6.656c-.024.028-.047.06-.072.088l.072-.087zM42.392 68.708l-.075.006.075-.006zm6.808-1.515c.03-.016.065-.023.097-.034a1.409 1.409 0 01-.097.034zm-2.396-.335c-.036.02-.076.028-.116.041l.116-.04zm-6.973 21.96l-.014.03.014-.03zM33.498 99.72l-.016.02.016-.02zm19.335-23.303l-.017.042.017-.042zM33.347 99.914l-.032.041.032-.04zm18.159-17.446l-.013.031.013-.031zm-.04.098l.008-.019-.008.02zM27.86 102.224l-.009.056.01-.056zm.492 18.96l.002.021-.002-.021zm-6.292-3.025l.002.042-.002-.042zm.002.057l-.002-.017.002.017z" fill="#B4965D"/><path d="M10.267 77.235l.02.012.04.024.02.011c3.656 4.006 7.06 8.592 8.542 13.91l-.022-.065c1.168 3.753 1.624 7.642 2.364 11.487l-.018-.091c1.578 7.866 1.555 15.933 2.873 23.815 1.68 3.749 4.874 6.821 7.305 10.148l-.065-.078c.075.092.153.181.231.271-1.756-6.875-3.823-13.8-3.85-20.954l.004.036-.008-.075.004.032c-.308-4.506-.537-9.126-.049-13.62l-.01.056c.206-1.51.303-3.034.292-4.558l.003.025c-.568-3.559-1.341-7.091-2.936-10.36-1.598-3.414-1.864-7.29-2.063-11.01-.477-7.5 4.266-13.678 8.418-19.416 2.805-4.365 5.635-8.732 8.685-12.911.044-.083.083-.207.194-.186.116.05.058.175.048.273l-.004.026-.004-.007-.017.145.002-.026c-.158 1.48-.841 2.853-1.113 4.319-.217 1.602-.027 3.227-.154 4.836-.31 4.905-1.088 9.816-3.064 14.347l.007-.013-.051.106.01-.026c-1.882 3.525-4.541 6.56-6.575 9.994-.466.875-.953 1.855-1.07 2.885-.14 1.261.137 2.516.096 3.78-.166 1.46-.84 2.814-.833 4.305v-.028c-.037 2.582.713 5.064 1.018 7.605 2.159-14.396 7.025-28.78 16.126-40.27l-.021.024.06-.07-.03.032a23.954 23.954 0 002.217-3.897l-.028.059c.197-.418.389-.84.582-1.26l-.045.097c3.066-6.55 9.892-13.883 17.58-13.93l-.012.007c.558-.044 1.114-.128 1.669-.185l-.06.004c.714-.102 1.434-.075 2.152-.134l-.024.002c.108-.006.216-.017.323-.026l-.058.006a3.69 3.69 0 00.728-.149c-.01.005-.02.011-.036.01.084-.022.168-.04.252-.06l-.033.008c.606-.113 2.422-1.437.992.072l.015-.009a2.324 2.324 0 01-.086.086 3.37 3.37 0 01-.207.195l-.022.012c-1.412 1.081-3.224 1.492-4.938 1.887-2.448 1.157-4.864 2.454-6.837 4.343-2.932 2.942-4.566 7.035-8.386 9.072l.067-.037c-.075.041-.144.096-.214.144-5.57 4.207-9.272 10.084-12.285 16.293 4.157-2.929 8.633-5.445 11.914-9.445 3.466-4.58 8.163-7.153 13.33-9.388.353-.078 2.848-1.128 2.17-.26-6.852 5.778-5.953 14.422-16.296 17.81l-.08.028-.037.02.04-.022c-2.31.658-4.584 1.434-7.008 1.561l.015-.008c-1.12.175-2.193.567-3.277.885.035-.02.078-.028.118-.043-.182.064-.366.123-.549.186l.044-.024c-.036.02-.078.029-.116.04.02-.01.041-.013.062-.02-2.635.727-4.186 7.72-5.184 10.265-2.884 9.682-4.843 19.727-4.67 29.869.9-9.11 7.02-13.856 10.514-21.519l-.01.022.041-.086-.008.015.043-.089-.025.054c.015-.029.027-.059.042-.088l-.024.049c.752-1.854 2.117-3.332 3.248-4.938 1.035-1.777 1.98-3.65 3.499-5.08 2.398-2.277 5.616-3.5 7.837-5.984l-.015.022c2.943-3.143 1.6-1.341.634 1-.994 2.992-1.727 6.091-2.938 9.013l.005-.012-.021.056-.021.053.008-.005c-2.306 4.91-3.947 10.595-9.6 12.506-3.147 1.053-6.508 1.87-8.455 4.864l.06-.08-.081.106.007-.004-.134.174.033-.044-.08.104.015-.017a30.34 30.34 0 00-1.048 2.028l.044-.095-.07.151.016-.034-.043.09.008-.004c-1.76 3.552-2.316 7.499-2.947 11.368l.007-.049c-.614 3.474.144 7.109.683 10.573l-.01-.019.02.104-.014-.077c1.668 7.995 3.574 15.971 6.957 23.438.217 1.178-.79 1.134-1.375-.202a19.638 19.638 0 01-1.134-2.689c-.831-2.468-1.91-5.983-3.287-7.602l.065.078c-3.491-4.561-8.953-6.773-12.945-10.763-2.696-2.78-3.644-6.658-4.29-10.359-1.959-5.704-1.297-11.688-.802-17.568l-.01.093c.839-6.178.125-12.332-1.584-18.3l.01.037c-.315-.956-.57-1.962-1.085-2.818a.513.513 0 00-.058-.061.127.127 0 01-.042-.174.125.125 0 01.173-.042zm23.96-8.367c3.62-5.887 3.916-13.023 4.09-19.727-3.481 9.34-7.114 18.674-9.96 28.228 1.927-2.852 4.002-5.61 5.87-8.501zm-6.674 16.274c.455-1.352.338-2.785.182-4.181-.134 1.568-.24 3.135-.4 4.701.075-.173.147-.347.218-.52zm-1.13 2.115c-.244-7.788 2.457-15.136 5.265-22.275 2.158-5.4 3.747-11.006 6.146-16.311-.894 1.286-1.662 2.666-2.648 3.881l.037-.044c-.064.08-.13.155-.195.233-3.941 6.443-9.692 12.126-11.048 19.81l.015-.08c-.532 4.099-.056 8.404 1.092 12.346l-.016-.029.222.49-.016-.028c.398.755.76 1.525 1.166 2.272-.006-.09-.016-.177-.02-.265zm21.38-33.64c1.644-1.711 3.846-2.757 5.477-4.47 2.762-3.666 5.227-7.793 9.622-9.722-2.465.699-4.373 2.432-6.477 3.802a15.184 15.184 0 00-2.739 2.343l.072-.085c-2.303 2.57-4.02 5.576-6.146 8.275l.19-.145v.002zm14.172-14.458l-.033.018.033-.018zM49.417 49.766c1.83-2.498 3.57-5.214 6.212-6.929l-.009.005c.252-.173.512-.339.767-.51l-.023.014a.6.6 0 00.081-.055l-.018.01c1.807-1.08 3.458-2.473 5.488-3.127l-.028.016c.02-.011.036-.02.06-.021l-.017.01.31-.11-.07.025c.377-.132.757-.26 1.134-.39l-.016.008.067-.023-.01.007c.49-.178.996-.31 1.493-.47l-.031.018a.139.139 0 01.063-.023l-.013.007c.965-.413 2.004-.498 3.027-.657-.915.034-1.811.238-2.72.324l.037-.003c-.298.031-.596.057-.894.075l.01-.006c-5.517.178-9.391 4.277-12.918 8.05l.072-.088c-1.681 1.923-2.779 4.271-3.9 6.546.692-.851 1.214-1.815 1.846-2.703zM42.23 67.85l.102-.009-.128.011-.019.002.045-.004zm-.517.043c7.005-.498 14.42-3.883 17.015-10.843l-.018.041c.846-1.66 1.996-3.147 2.98-4.728-.422.317-.878.58-1.3.904l.055-.043a59.61 59.61 0 01-.608.467l.027-.016c-1.901 1.428-4.05 2.56-5.329 4.652l.015-.009c-3.039 4.76-7.95 7.348-12.93 9.605a.217.217 0 01.093-.033v.003zm-1.356-.239c5.089-2.394 10.282-4.974 13.593-9.724 2.107-3.31 6.176-4.465 8.857-7.125-2.825 1.65-6.114 2.565-8.546 4.835-4.33 4.542-8.505 9.273-14.176 12.18a3.51 3.51 0 01.277-.17l-.005.004zm12.387 8.488l.01-.022-.011.026.001-.004zm-.07.175l.024-.063-.015.037-.024.059.02-.05-.005.017zM35.855 96.06c2.81-1.562 6.219-1.673 8.776-3.844 1.63-1.204 2.423-3.056 3.287-4.817 2.072-3.5 3.471-7.309 4.776-11.145l-.006.018c.324-.777.605-1.572.841-2.38-4.826 8.382-12.45 14.551-17.996 22.383.106-.071.212-.148.322-.215zm4.6-7.32c2.424-2.627 4.962-5.158 7.233-7.921l-.067.077a48.762 48.762 0 004.7-6.287c-.751.674-1.667 1.138-2.503 1.695l.022-.012a.394.394 0 00-.08.053l.045-.025c-2.99 1.703-5.248 4.235-6.759 7.31-1.202 1.75-2.682 3.315-3.464 5.328l.008-.017-.042.089.019-.04c-.228.488-.442.983-.678 1.46a.363.363 0 00.015-.035l-.019.041c.531-.573 1.044-1.153 1.57-1.717v.001zm-18.473 32.205l.003.072c-.058-.885-.158-1.765-.18-2.654l.005.01c-.09-1.418.121-2.835-.02-4.252l.003.076c-.015-.352-.052-.693-.069-1.045l.006.01-.047-.818.004.079c-.016-.262-.026-.527-.04-.787l.005.079-.02-.423.003.058c-.967-8.455-2.099-17.025-5.55-24.88l.007.011-.032-.057.016.029c-.902-1.602-1.865-3.163-2.829-4.728.078.166.155.331.23.499l-.031-.057a33.677 33.677 0 012.346 7.727l-.005-.01.005.035-.008-.013.061.395-.008-.015.148.973-.012-.079c.537 2.801.489 5.658.833 8.48l-.01-.068.013.093-.004-.023.018.11-.007-.038.014.079-.007-.042.01.056-.004-.007.012.08-.014-.095c1.321 7.187 3.51 14.16 5.153 21.271l.002-.131zm.343 8.033l-.036-.025.036.025zM12.223 80.533c1.6 5.947 2.157 12.107 1.348 18.228l.012-.092c-.244 2.063-.16 4.148-.388 6.213l.01-.098c-.548 6.018 1.195 12.098 3.122 17.744 1.971 4.364 6.422 6.685 10.286 9.092-4.431-4.631-5.523-10.838-6.932-16.834-1.535-4.948-2.602-10.036-3.583-15.117-.312-3.297-.31-6.622-.918-9.891l.006.04-.012-.078.008.015c-.561-3.28-1.693-6.436-3.05-9.464.032.081.063.16.091.24v.002z" fill="#B4965D"/><path d="M10.59 77.125l.012.007-.011-.007zm43.954-3.913l.01-.023-.01.023zM64.867 49.13c-.012.007-.023.013-.039.011l.04-.01zm5.992-12.423a.189.189 0 01-.016.008l.016-.008z" fill="#B4965D"/></g><defs><clipPath id="clip0"><path fill="#fff" transform="translate(-846 -2420)" d="M0 0h1920v7397H0z"/></clipPath></defs></svg>