<svg width="214" height="214" fill="none" xmlns="http://www.w3.org/2000/svg"><circle cx="100.5" cy="108.5" r="70.5" fill="#FDF7EB"/><path d="M131.629 111.377H121.39l2.356-2.749a1.304 1.304 0 00-1.98-1.697l-3.811 4.446h-15.853l16.531-14.17 7.521 7.522a4.773 4.773 0 003.385 1.4 4.773 4.773 0 003.385-1.4 4.792 4.792 0 000-6.77l-8.868-8.868a4.793 4.793 0 00-6.77 0 4.795 4.795 0 00-.462 6.233l-18.729 16.053h-2.752l-.023-23.406c5.269-.102 10.565-2.468 14.717-6.62 4.515-4.515 6.919-10.38 6.597-16.094a1.303 1.303 0 00-1.228-1.229c-5.712-.32-11.579 2.083-16.094 6.597-4.501 4.502-6.599 9.433-6.599 16.045v14.782L78.298 87.037a1.304 1.304 0 10-1.843 1.843l7.098 7.099c-3.272-.609-6.517-2.337-9.104-4.924-3.142-3.142-5.016-7.254-5.158-11.21 3.956.142 8.068 2.017 11.21 5.16a18.635 18.635 0 012.874 3.695 1.304 1.304 0 102.245-1.326 21.23 21.23 0 00-3.276-4.213c-4.042-4.042-9.295-6.194-14.416-5.907a1.304 1.304 0 00-1.228 1.229c-.289 5.12 1.864 10.374 5.906 14.416 3.801 3.801 8.675 5.932 13.5 5.932.099 0 .197-.003.295-.005l4.636 4.637a5.756 5.756 0 011.677 3.597v4.317H70.319a2.7 2.7 0 00-2.697 2.697v9.754c0 11.125 7.738 20.475 18.114 22.954v2.127a4.095 4.095 0 004.09 4.091h22.296a4.095 4.095 0 004.09-4.091v-2.127c10.376-2.479 18.114-11.829 18.114-22.954v-9.754a2.7 2.7 0 00-2.697-2.697zM119.13 90.935a2.175 2.175 0 011.542-.638c.558 0 1.116.213 1.541.638l8.868 8.867c.85.85.85 2.233 0 3.083-.85.85-2.233.85-3.083 0l-8.868-8.867a2.168 2.168 0 01-.638-1.542c0-.582.227-1.13.638-1.541zm-17.974-18.466c3.61-3.61 8.349-5.745 12.893-5.856-.111 4.544-2.246 9.284-5.856 12.894-3.075 3.076-6.972 5.08-10.868 5.674l7.368-7.367a1.304 1.304 0 00-1.844-1.844l-7.368 7.368c.595-3.897 2.6-7.793 5.675-10.869zm12.449 76.441c0 .817-.666 1.483-1.483 1.483H89.827a1.485 1.485 0 01-1.483-1.483v-1.659c.943.115 1.903.175 2.876.175h19.508c.974 0 1.934-.06 2.877-.175v1.659zm18.114-25.082c0 11.574-9.416 20.991-20.991 20.991H91.221c-11.575 0-20.992-9.417-20.992-20.991v-9.754c0-.05.04-.09.09-.09h61.311a.09.09 0 01.089.09v9.754z" fill="#B4965D"/><path d="M100.735 20.987a87.714 87.714 0 00-55.447 19.787A87.51 87.51 0 0014.89 91.137a87.43 87.43 0 008.373 58.207 87.603 87.603 0 0043.364 39.779A87.162 87.162 0 00100.735 196c18.817 0 36.75-5.868 51.862-16.968a.55.55 0 00-.042-.917.548.548 0 00-.613.027c-14.919 10.96-32.628 16.754-51.207 16.754-47.705 0-86.516-38.76-86.516-86.402 0-47.641 38.811-86.402 86.515-86.402 1.438 0 2.892.037 4.324.106a.554.554 0 00.263-1.051.555.555 0 00-.21-.053 89.845 89.845 0 00-4.376-.107zm80.113 132.132l-.008.012.008-.012zm-13.791 17.097c-.03.015-.062.028-.093.041l.093-.041zm4.188-3.794l.016-.012-.037.03.021-.018zm2.963-2.899l.058-.082-.058.082zm-8.963 6.727h.015l-.033.016.018-.016zm5.899-4.635l-.011.01.011-.01zm11.018-24.364l.068-.01-.068.01zm-6.069 1.905l-.084.039.084-.039zm2.203.117l.103-.046-.103.046zm4.638-20.456l.011-.029-.011.029zm-8.328 12.275l.011-.01-.011.01zm13.247-22.648l.012-.019-.012.019zm-15.771 22.634l.012-.04-.012.04zm15.886-22.828l.027-.041-.027.041zm-15.148 17.239l.009-.029-.009.029zm19.955-19.762v-.051c.004.017.002.032 0 .051zm-9.907-39.337l-.011-.025.011.025zm21.608 52.852l.009.013-.009-.013z" fill="#B4965D"/><path d="M210.463 131.16l-.02-.009-.036-.019-.021-.01c-3.631-3.345-7.077-7.238-8.84-11.944l.025.057c-1.351-3.311-2.065-6.803-3.034-10.23l.024.08c-2.041-7.009-2.644-14.327-4.449-21.368-1.815-3.268-4.953-5.803-7.419-8.63l.065.065a9.906 9.906 0 00-.231-.227c2.127 6.095 4.539 12.213 5.115 18.697v-.033c0 .022.008.044.012.068v-.03c.632 4.063 1.194 8.233 1.096 12.346v-.05a28.99 28.99 0 00.08 4.157v-.022c.79 3.181 1.765 6.325 3.473 9.164 1.715 2.97 2.258 6.464 2.725 9.82 1.009 6.759-2.819 12.736-6.149 18.265-2.21 4.176-4.445 8.355-6.892 12.385-.033.077-.06.194-.158.183-.108-.037-.066-.158-.064-.245v-.146.023c.03-1.354.544-2.653.677-4.002.073-1.47-.224-2.93-.234-4.397-.096-4.471.228-8.987 1.672-13.254v.012l.038-.101-.008.024c1.438-3.344 3.62-6.306 5.209-9.576.356-.829.725-1.758.75-2.699.03-1.155-.316-2.273-.379-3.419.038-1.336.543-2.621.425-3.968v.025c-.158-2.345-1.037-4.536-1.511-6.816-.849 13.223-4.159 26.644-11.539 37.774l.016-.023-.049.069.023-.033a21.873 21.873 0 00-1.713 3.706l.021-.057c-.147.396-.289.789-.431 1.188l.035-.092c-2.281 6.179-7.914 13.361-14.896 14.003h.014c-.503.085-1 .203-1.501.298l.054-.01c-.64.149-1.298.179-1.943.289h.022a7.408 7.408 0 00-.292.049l.052-.01a3.43 3.43 0 00-.651.193l.032-.011c-.074.025-.15.049-.224.072l.03-.009c-.542.149-2.09 1.493-.908.012l-.011.013.071-.085c.055-.066.112-.131.174-.193l.015-.018c1.199-1.091 2.814-1.605 4.34-2.099 2.134-1.239 4.229-2.604 5.877-4.469 2.436-2.896 3.61-6.738 6.918-8.881l-.054.043.183-.149c4.736-4.256 7.644-9.867 9.901-15.732-3.55 2.981-7.419 5.611-10.094 9.496-2.795 4.423-6.863 7.122-11.384 9.552-.316.099-2.501 1.245-1.952.405 5.778-5.775 4.296-13.541 13.428-17.421l.071-.031.036-.016-.039.017c2.052-.777 4.054-1.658 6.245-1.962h-.018c1.004-.246 1.948-.686 2.91-1.058l-.104.047c.157-.072.323-.14.484-.211l-.068.041.103-.047-.055.023c2.336-.865 3.203-7.326 3.916-9.713 1.872-9.003 2.876-18.264 1.935-27.446-.113 8.331-5.307 13.112-7.892 20.338v-.021l-.03.08v-.014l-.032.084.019-.051-.032.084.018-.046c-.54 1.734-1.661 3.183-2.569 4.73-.803 1.691-1.517 3.468-2.786 4.887-2.003 2.251-4.83 3.612-6.66 6.035l.013-.02c-2.431 3.079-1.353 1.341-.652-.858.671-2.792 1.105-5.658 1.973-8.401v.011l.016-.052.015-.049v.009c1.716-4.632 2.768-9.915 7.756-12.089 2.778-1.199 5.767-2.207 7.304-5.07l-.049.077.067-.102.109-.169-.027.043.064-.101-.011.016c.291-.631.553-1.271.79-1.919l-.033.09.052-.144-.013.034.032-.087v.009c1.322-3.358 1.525-6.979 1.799-10.537v.044c.291-3.197-.68-6.436-1.436-9.534v.021l-.027-.093.019.068c-2.133-7.12-4.48-14.202-8.13-20.706-.287-1.05-1.317-2.022-1.288-3.076.132-.498.743-.316.947.031l-.066-.079.107.13-.016-.02c.097.118.18.246.248.382l-.016-.034c.618 1.174 1.222 2.347 1.855 3.514l-.03-.066c1.464 2.746 2.076 6.047 4.333 8.28l-.064-.065c3.528 3.867 8.657 5.442 12.591 8.748 2.663 2.311 3.825 5.751 4.696 9.057 2.219 5.018 2.08 10.495 2.084 15.865v-.085c-.286 5.666.838 11.193 2.851 16.468l-.011-.031c.359.842.669 1.734 1.202 2.47a.557.557 0 00.057.052.092.092 0 01.052.12.085.085 0 01-.019.03.102.102 0 01-.03.021.084.084 0 01-.035.007.076.076 0 01-.036-.006zm-21.121 9.459c-2.842 5.622-2.551 12.114-2.193 18.206 2.444-8.739 5.018-17.485 6.869-26.372-1.528 2.737-3.2 5.398-4.675 8.166h-.001zm4.807-15.278c-.316 1.261-.092 2.551.157 3.806 0-1.433-.023-2.862 0-4.295l-.157.489zm.865-2.007c.822 7.044-1.064 13.916-3.064 20.609-1.544 5.065-2.555 10.272-4.324 15.27.712-1.236 1.304-2.549 2.106-3.725l-.03.042c.052-.077.105-.158.158-.227 3.083-6.148 7.869-11.753 8.507-18.825v.074c.165-3.757-.599-7.624-1.942-11.11l.014.027c-.08-.142-.158-.284-.24-.427l.014.026c-.42-.654-.808-1.322-1.236-1.969.01.079.026.158.037.235zm-16.825 32.174c-1.362 1.681-3.282 2.798-4.632 4.481-2.225 3.54-4.148 7.476-7.99 9.568 2.184-.827 3.788-2.543 5.591-3.954a13.862 13.862 0 002.306-2.338l-.058.083c1.894-2.51 3.22-5.37 4.944-7.983l-.161.143zm-11.757 14.217l.031-.014-.031.014zm10.587-10.6c-1.468 2.407-2.841 5.007-5.106 6.768-.217.176-.438.347-.657.522l.019-.016-.07.057.015-.012c-1.559 1.121-2.951 2.513-4.736 3.264l.027-.011-.054.024h.017l-.273.122.062-.028c-.332.158-.666.295-.999.442h.014l-.059.026h.011c-.432.199-.88.358-1.318.547l.03-.014-.057.025h.011c-.844.45-1.78.609-2.699.833.827-.101 1.626-.356 2.445-.506h-.033c.268-.051.537-.098.807-.137h-.013c5.001-.59 8.209-4.612 11.113-8.309l-.058.084c1.38-1.876 2.196-4.09 3.039-6.24-.572.791-.973 1.706-1.478 2.559zm5.134-16.958l-.092.016.116-.019h.017l-.041.003zm.462-.075c-6.325.998-12.799 4.647-14.621 11.16l.015-.038c-.641 1.577-1.571 3.01-2.346 4.517.36-.315.753-.594 1.105-.918l-.047.043c.171-.158.344-.315.517-.473l-.022.019c1.617-1.443 3.481-2.638 4.482-4.633l-.01.014c2.392-4.556 6.654-7.284 11.006-9.718-.023.017-.05.017-.079.027zm1.251.11c-4.439 2.568-8.956 5.313-11.595 9.883-1.659 3.166-5.269 4.535-7.495 7.153 2.439-1.717 5.356-2.803 7.391-5.045 3.575-4.453 7.01-9.071 11.937-12.152-.08.051-.159.108-.24.161h.002zm-11.908-6.727v.021-.026.005zm.051-.158l-.018.059.012-.037.015-.053-.014.046.005-.015zm13.756-19.221c-2.43 1.64-5.525 2.004-7.675 4.172-1.388 1.22-1.966 2.959-2.615 4.624-1.611 3.334-2.588 6.897-3.48 10.473v-.018c-.234.73-.428 1.472-.58 2.223 3.737-7.977 10.187-14.166 14.62-21.701-.087.073-.174.152-.27.221v.006zm-3.614 6.997c-2 2.571-4.104 5.064-5.959 7.749l.055-.076a44.388 44.388 0 00-3.788 6.068c.631-.67 1.42-1.162 2.142-1.734l-.017.016.069-.056-.038.03c2.586-1.778 4.442-4.256 5.582-7.159.96-1.677 2.18-3.216 2.734-5.103v.016l.032-.084-.015.037c.171-.459.326-.926.499-1.383a.286.286 0 00-.015.041l.014-.038c-.439.552-.864 1.116-1.295 1.67v.006zm14.296-30.643v-.066c.12.799.279 1.589.369 2.391v-.01c.191 1.278.108 2.578.345 3.854v-.07c.042.316.102.631.145.946v-.01l.106.737-.01-.071c.035.237.063.473.096.711 0-.023 0-.045-.009-.071l.05.38v-.052c1.532 7.591 3.222 15.274 6.964 22.127v-.013l.031.052-.014-.025c.947 1.381 1.938 2.723 2.935 4.066a47.963 47.963 0 01-.248-.434l.028.052a30.594 30.594 0 01-2.728-6.821v.009-.031.014c-.03-.118-.058-.237-.086-.355v.017c-.072-.29-.141-.58-.209-.87l.016.071c-.704-2.497-.881-5.092-1.411-7.622 0 .02.009.041.015.061 0-.028-.014-.055-.02-.083v.02l-.024-.098.01.035-.018-.071c0 .013 0 .024.01.036l-.013-.05v.008l-.017-.071.02.085c-1.755-6.413-4.281-12.565-6.314-18.887-.03.027-.025.065-.021.103l.002.006zm-.931-7.252l.034.02-.034-.02zm12.916 43.137c-1.914-5.267-2.894-10.809-2.632-16.421v.083c.063-1.892-.175-3.774-.128-5.663v.09c.033-5.499-2.019-10.878-4.205-15.846-2.128-3.802-6.344-5.563-10.054-7.438 4.384 3.852 5.852 9.395 7.596 14.722 1.776 4.367 3.138 8.896 4.42 13.426.538 2.967.789 5.98 1.598 8.896l-.01-.036c0 .024.011.046.018.069v-.017c.767 2.928 2.034 5.702 3.501 8.343a3.494 3.494 0 01-.104-.219v.011zm-22.675 35.295v-.01.01zm-22.501-2.87l.034-.013-.034.013zm-4.487 11.727l.01-.011-.01.011z" fill="#B4965D"/><path d="M187.064 97.003c0 .036-.013.074-.021.11l.021-.11zm-1.716-10.612l-.041-.105.041.105zm-15.42-20.889l.032-.069-.032.069zm-1.984 6.686c0 .035-.011.068-.017.101.004-.035.011-.068.017-.1zm1.457-1.931c0-.04.013-.08.021-.121-.007.04-.015.08-.021.121zm-15.804-16.765l-.02-.027.02.027zm-6.451-10.834l-.009-.023.009.023zm10.971 28.223l-.028-.034.028.034zM147.05 42.433l-.021-.048.021.048zm6.424 24.347l-.021-.025.021.026zm-.067-.081l.013.016-.013-.016zm-5.71-30.185l-.044-.034.044.035zm-16.81-8.782l-.019-.01.019.01zm5.701-4.03l-.038-.019.038.019zm-.05-.026l.016.007-.016-.007z" fill="#B4965D"/><path d="M178.087 33.28l-.021.014-.039.022-.021.012c-5.277 1.249-10.94 1.996-16.308.706l.067.013c-3.847-.802-7.468-2.294-11.187-3.515l.088.028c-7.642-2.444-14.681-6.384-22.21-9.062-4.094-.353-8.331.946-12.419 1.453l.099-.018c-.117.02-.232.045-.349.07 6.862 1.806 13.919 3.365 20.184 6.817l-.033-.014.07.03-.03-.012c4.088 1.92 8.237 3.965 11.927 6.575l-.044-.036a31.98 31.98 0 003.842 2.47l-.023-.009c3.386 1.233 6.849 2.273 10.482 2.469 3.76.262 7.277 1.912 10.624 3.546 6.788 3.228 9.882 10.375 12.879 16.793 2.452 4.572 4.894 9.167 7.065 13.864.05.079.14.173.067.26-.099.077-.181-.035-.262-.091l-.02-.016h.008l-.119-.085.022.014c-1.217-.858-2.085-2.122-3.234-3.071-1.295-.968-2.807-1.593-4.152-2.485-4.136-2.655-8.051-5.721-11.05-9.65l.008.013-.068-.096.017.022c-2.165-3.358-3.526-7.158-5.539-10.604-.538-.833-1.159-1.734-2.001-2.337-1.034-.736-2.266-1.103-3.35-1.753-1.195-.854-2.052-2.101-3.358-2.82l.024.014c-2.239-1.288-4.772-1.838-7.142-2.806 11.533 8.882 21.741 20.124 27.36 33.662l-.011-.03.033.087-.014-.041a23.93 23.93 0 002.329 3.83l-.038-.053c.27.375.544.748.818 1.121l-.062-.087c4.234 5.864 7.326 15.392 3.631 22.135v-.014c-.232.509-.43 1.036-.649 1.548l.025-.054c-.257.674-.631 1.29-.928 1.946l.009-.022c-.047.097-.09.197-.134.295l.024-.054a3.745 3.745 0 00-.224.709c0-.011 0-.023.009-.036-.022.084-.047.166-.071.249l.01-.033c-.196.585.079 2.816-.545.832v.018c-.011-.038-.024-.077-.033-.117a3.279 3.279 0 01-.07-.276v-.025c-.258-1.759.263-3.542.75-5.232.179-2.703.22-5.444-.473-8.087-1.146-3.991-3.929-7.41-3.854-11.737v.076c0-.085-.014-.172-.022-.257-.971-6.912-4.308-13.003-8.27-18.654.54 5.056.564 10.191 2.466 15.003 2.319 5.254 2.284 10.61 1.727 16.211-.103.347-.398 3.038-.827 2.023-1.721-8.796-9.712-12.21-7.647-22.896l.014-.084v-.042.045c.548-2.338.974-4.702 2.041-6.883v.018c.392-1.065.57-2.193.819-3.295 0 .04-.014.082-.02.124.033-.19.071-.38.104-.57v.05c0-.041.013-.082.021-.122 0 .023-.008.043-.011.065.644-2.656-4.714-7.41-6.454-9.519-7.061-7.225-14.887-13.818-23.836-18.595 7.525 5.213 8.699 12.867 13.699 19.645l-.015-.019.056.077-.01-.014.057.08-.035-.047c.018.027.038.052.057.08l-.031-.045c1.255 1.558 1.883 3.468 2.737 5.237 1.05 1.77 2.229 3.505 2.74 5.527.824 3.202.33 6.61 1.421 9.758l-.011-.024c1.316 4.1.395 2.05-1.182.068-2.133-2.322-4.485-4.47-6.451-6.948l.008.011-.038-.046-.036-.044v.01c-3.171-4.402-7.342-8.599-6.265-14.468.609-3.262 1.528-6.596-.142-9.753l.041.092-.054-.123v.008l-.087-.202.022.05-.052-.12.008.021a30.257 30.257 0 00-1.263-1.901l.062.085-.098-.136.022.032-.058-.082v.01c-2.25-3.264-5.429-5.668-8.504-8.1l.039.029c-2.737-2.224-6.283-3.328-9.572-4.54h.022l-.101-.034.074.026c-7.798-2.427-15.696-4.637-23.865-5.309-1.135-.383-.608-1.24.844-1.103a19.63 19.63 0 012.902.315c2.56.473 6.156 1.238 8.24.822l-.1.018c5.683-.835 10.271-4.534 15.698-6.083 3.74-1.006 7.59.05 11.139 1.285 5.937 1.059 10.844 4.545 15.743 7.835l-.076-.054c4.992 3.735 10.717 6.102 16.763 7.508l-.036-.01c.988.19 1.992.456 2.99.421a.518.518 0 00.082-.02.126.126 0 01.125.219zm-4.331 25.008c3.387 6.026 9.48 9.75 15.254 13.16-6.472-7.58-12.864-15.291-19.831-22.42 1.556 3.069 2.958 6.222 4.577 9.26zm-10.98-13.741c.961 1.055 2.27 1.649 3.566 2.191-1.306-.88-2.624-1.734-3.915-2.634.115.15.232.296.349.443zm-1.299-2.016c6.925 3.572 12.035 9.503 16.909 15.426 3.672 4.51 7.799 8.623 11.27 13.298-.69-1.406-1.523-2.748-2.106-4.2l.021.054c-.038-.095-.073-.19-.109-.284-3.716-6.576-5.888-14.364-11.945-19.283l.063.052c-3.325-2.456-7.319-4.132-11.322-5.045h.033l-.537-.044h.034c-.854-.019-1.702-.077-2.553-.085.082.04.163.073.242.11zm19.012 35.033c.696 2.269.54 4.702 1.244 6.96 1.863 4.194 4.272 8.355 3.822 13.133.587-2.494 0-5.004-.175-7.509a15.204 15.204 0 00-.717-3.531l.039.104c-1.127-3.262-2.92-6.223-4.246-9.393.014.085.024.16.035.236h-.002zm5.749 19.412v-.038.038zm-3.168-16.13c1.295 2.813 2.823 5.654 3.037 8.796v-.01c.029.305.048.612.073.918v-.027c0 .033.003.066.008.098v-.02c.066 2.104.481 4.223.066 6.315v-.031c0 .022 0 .04-.011.063v-.02l-.055.323.013-.073c-.068.394-.141.788-.21 1.18v-.017l-.013.07v-.013c-.084.516-.213 1.022-.316 1.534v-.036c0 .022 0 .044-.011.066v-.014c-.107 1.044-.538 1.993-.896 2.964.415-.815.672-1.698 1.038-2.534l-.016.033c.119-.275.24-.548.37-.818v.013c2.526-4.91.825-10.287-.758-15.203l.041.106c-.863-2.404-2.382-4.504-3.825-6.59.408 1.018.996 1.944 1.465 2.928zm-12.313-15.07l-.041.094.052-.117.008-.017-.019.04zm.215-.472c-2.97 6.364-3.614 14.49 1.207 20.14l-.026-.037c1.04 1.547 1.78 3.275 2.683 4.904-.071-.524-.08-1.05-.158-1.577l.011.07a62.897 62.897 0 01-.112-.759v.032c-.323-2.356-.27-4.784-1.476-6.918v.017c-2.683-4.97-2.559-10.519-2.11-15.969a.225.225 0 01-.018.098l-.001-.002zm.866-1.07c-.38 5.612-.648 11.404 1.895 16.606 1.869 3.45.901 7.568 1.922 11.203-.069-3.271.73-6.59-.072-9.819-1.866-5.99-3.972-11.939-3.757-18.308.011.114.014.22.014.325l-.002-.006zm-13.437 6.703l.015.018-.018-.022.003.003zm-.118-.147l.043.052-.026-.032-.039-.049.033.041-.011-.012zm-9.085-24.293c0 3.215-1.559 6.248-.904 9.538.26 2.01 1.493 3.603 2.612 5.214 2.052 3.51 4.701 6.585 7.42 9.59l-.013-.014c.522.66 1.08 1.292 1.672 1.891-4.981-8.29-6.668-17.952-10.818-26.605.011.128.027.257.031.386zm4.163 7.577c1.118 3.396 2.096 6.844 3.408 10.172l-.035-.096a48.77 48.77 0 003.211 7.162c-.224-.984-.184-2.01-.265-3.011v.025c0-.032 0-.065-.008-.096v.052c-.035-3.442-1.151-6.645-3.103-9.46-.947-1.9-1.595-3.955-2.974-5.617l.011.016-.057-.08.025.036c-.316-.437-.644-.864-.947-1.302l.024.03-.027-.037c.243.743.5 1.473.737 2.207v-.001zm-19.17-31.794l-.065-.033c.802.38 1.619.72 2.407 1.132h-.011c1.284.61 2.419 1.483 3.726 2.05l-.068-.035c.315.157.631.291.947.447h-.011l.737.357-.071-.035c.237.113.474.233.707.348l-.071-.034.379.187-.052-.025c7.86 3.263 15.9 6.439 24.443 7.24h-.014.066-.033c1.837-.01 3.67-.094 5.506-.175a50.472 50.472 0 01-.548-.041h.065c-2.69-.25-5.34-.822-7.893-1.705h.011l-.033-.012h.016l-.376-.14h.017l-.922-.343.075.029c-2.709-.893-5.183-2.323-7.816-3.393l.065.023-.089-.033.022.008-.104-.038.037.013-.076-.027.039.014-.053-.018h.007l-.075-.029.09.035c-6.924-2.338-14.081-3.814-21.095-5.833l.114.066zm-7.188-3.604l.04-.019-.04.019zm47.251 14.712c-5.975-1.491-11.63-3.998-16.587-7.68l.075.056c-1.685-1.215-3.547-2.155-5.241-3.358l.08.057c-4.993-3.404-11.154-4.835-17.025-5.895-4.772-.397-8.963 2.365-12.944 4.572 6.2-1.622 12.155.44 18.081 2.122 5.07 1.063 10.035 2.603 14.952 4.214 3.034 1.33 5.939 2.947 9.091 4.005l-.038-.015.075.027h-.018c3.14 1.104 6.449 1.648 9.754 1.933a6.548 6.548 0 01-.254-.036l-.001-.002zm3.771.229l-.011.008.011-.008zm-17.938 40.317l.016.02-.016-.02z" fill="#B4965D"/><path d="M176.118 94.659c0-.015 0-.027.009-.04l-.009.04zm7.947 11.273a.054.054 0 010-.018v.018z" fill="#B4965D"/></svg>