<svg width="80" height="48" fill="none" xmlns="http://www.w3.org/2000/svg"><path d="M75.928 26.582a.7.7 0 01.535.142.744.744 0 01.282.495.783.783 0 01-.135.558.716.716 0 01-.474.294 53.37 53.37 0 01-14.977.14 51.82 51.82 0 01-14.29-4.013 102.256 102.256 0 01-11.74-6.516c-8.692-5.373-17.4-10.648-25.575-8.036-2.897.829-5.385 2.768-6.967 5.43a13.327 13.327 0 00-1.37 9.116c.636 2.892 2.148 5.495 4.312 7.423 4.254 3.728 11.129 1.153 11.254-3.305a8.898 8.898 0 00-.619-3.552 8.6 8.6 0 00-1.967-2.973 4.873 4.873 0 012.403-1.297c2.86-.46 4.501 2.178 4.896 4.702-.03.183.06.388.079.61a8.822 8.822 0 01-.413 3.444 8.557 8.557 0 01-1.7 2.982c-1.611 1.84-3.779 3.047-6.142 3.422l-.838.106a10.342 10.342 0 01-4.21-.672 10.688 10.688 0 01-3.63-2.325C2.213 30.61.517 27.703-.194 24.469a14.94 14.94 0 011.548-10.171c1.766-2.982 4.548-5.157 7.788-6.091 8.723-2.815 17.72 2.73 26.726 8.22a100.973 100.973 0 0011.551 6.48 50.333 50.333 0 0013.906 3.898c4.854.617 9.765.547 14.6-.209" fill="#B4965D"/><path d="M27.788 16.91a.64.64 0 01.399.245.692.692 0 01-.058.9.63.63 0 01-.427.187 22.573 22.573 0 01-7.275-2.139c-2.48-1.052-4.816-2.048-7.397-1.668a10.73 10.73 0 00-2.936.909c-1.437 1.098.532 3.114-.557 6.525-1.306 4.11.974 4.53 2.31 5.023-3.087 3.13-7.448-.373-8.01-3.971a7.546 7.546 0 01-.083-1.074 8 8 0 01.774-3.095 7.687 7.687 0 011.908-2.502 12.468 12.468 0 016.432-3.165c2.86-.459 5.458.63 8.051 1.746a21.633 21.633 0 006.89 2.039m34.866 12.49a.622.622 0 01.468.203.675.675 0 01.182.493.695.695 0 01-.215.477.638.638 0 01-.48.168 60.343 60.343 0 01-3.048-.156c-1.044-.077-2.752-.174-3.977-.168-1.016.001-2.815.192-4.675.255-2.226.082-3.96-.194-5.444.606-1.157-.808.33-2.695-.632-3.017-.96-.323-2.697 2.548-5.072 1.617-.702-.289-1.652-1.088-2.433-.913-1.214.27-1.43 2.043-3.011 1.36 1.064-2.023-.866-3.858 1.434-5.537-2.334-.43-3.569 1.285-4.51 1.01-.54-.1-.794-1.887-.192-3.066a3.482 3.482 0 00-1.778.578 3.684 3.684 0 00-1.26 1.429c-.867 1.435.976 2.877.002 3.872a.867.867 0 01-1.104.029 4.856 4.856 0 01-1.641-1.898 3.586 3.586 0 01-.383-2.435 4.483 4.483 0 011.824-2.564 6.665 6.665 0 013.307-1.218c2.655.04 5.264.729 7.617 2.014l.893.397 2.51 1.115a62.973 62.973 0 009.14 3.542 47.32 47.32 0 005.917 1.206 61.21 61.21 0 006.557.542" fill="#B4965D"/><path fill-rule="evenodd" clip-rule="evenodd" d="M68.026 24.024c-6.459 2.173-18.942-.592-24.117-6.448-2.08-2.429-3.105-5.098-6.273-6.683a8.983 8.983 0 00-6.002-.294c-.334.084-.814.213-1.065-.196-.251-.41.135-.802.4-1.058 2.703-2.663 5.924-5.1 9.678-2.537 5.204 3.54 4.076 7.756 7.55 11.08 3.473 3.323 11.43 6.458 19.827 6.15" fill="#B4965D"/><path fill-rule="evenodd" clip-rule="evenodd" d="M60.233 20.832c-5.331.931-11.501-2.57-12.857-8.056a3.882 3.882 0 011.861.322 4.05 4.05 0 011.517 1.171 2.206 2.206 0 011.596-.626 2.22 2.22 0 011.561.715c2.002 1.82 2.665 4.16 6.381 5.382.658.223.616.97-.059 1.092z" fill="#B4965D"/></svg>