<svg width="170" height="170" fill="none" xmlns="http://www.w3.org/2000/svg"><g clip-path="url(#clip0)" fill="#B4965D"><path d="M25.584 129.423a75.874 75.874 0 0038.266 33.602 75.69 75.69 0 0050.851 1.811 75.626 75.626 0 0040.485-30.796 75.773 75.773 0 0011.846-49.504 75.414 75.414 0 00-9.138-28.675c-7.909-14.226-19.883-25.317-34.627-32.076a.475.475 0 00-.675.417.48.48 0 00.278.452c14.557 6.672 26.381 17.625 34.19 31.67 20.052 36.066 7.062 81.699-28.955 101.724-36.017 20.025-81.633 6.976-101.685-29.088a77.836 77.836 0 01-1.737-3.313.484.484 0 00-.46-.266.486.486 0 00-.42.324.476.476 0 00.023.365 77.654 77.654 0 001.758 3.353zM91.803 13.319l.012.002-.012-.002zm18.722 3.241a.993.993 0 01.07.052l-.07-.053zm-4.629-1.573l-.016-.006.038.015-.022-.009zm-3.437-1.021l-.087-.01.087.01zm8.854 3.948l-.007-.012.026.019-.019-.007zm-5.985-2.511l.013.004-.013-.004zM82.28 17.314l-.037-.046.036.046zm3.99 3.787l.064.047-.065-.047zm-.838-1.714l-.078-.059.078.059zm-17.414 5.092l-.027.004.027-.005zm12.78 1.137l-.013-.005.013.005zm-22.69-.496l-.018-.001.018.001zm23.741 2.41l-.035.007.035-.007zm-23.936-2.415l-.042-.003.042.003zm19.4 4.205l-.026.006.025-.006zm-23.328-6.78l-.038.022a.117.117 0 01.038-.021zM28.41 46.566l-.013.018.014-.018zM59.285 8.014l.006-.012-.006.012z"/><path d="M62.754.16l.001.02.001.035.002.02c-1.004 4.15-2.498 8.392-5.314 11.703l.032-.043c-1.935 2.413-4.275 4.42-6.459 6.593l.051-.051c-4.441 4.489-9.72 8.021-14.285 12.345-1.707 2.746-2.305 6.184-3.405 9.236l.021-.076c-.026.09-.053.185-.074.27 3.714-4.17 7.325-8.565 11.985-11.726l-.025.014c.017-.01.03-.025.046-.038l-.022.012c2.806-2.185 5.722-4.363 8.873-6.017a25.111 25.111 0 003.07-1.787l-.016.009c2.073-1.934 4.04-3.993 5.468-6.478 1.525-2.544 3.938-4.423 6.28-6.187 4.685-3.604 10.812-3.222 16.392-3.029 4.086-.085 8.185-.151 12.26.005.072-.008.172-.036.204.042.019.098-.091.117-.157.152l-.018.01.007-.004-.1.055.018-.01c-1.037.547-2.235.704-3.311 1.171-1.141.563-2.12 1.4-3.226 2.025-3.34 1.952-6.89 3.605-10.723 4.307l.01-.005-.092.013.021-.004c-3.133.319-6.289-.085-9.43.087-.775.08-1.633.191-2.355.568-.886.463-1.586 1.194-2.426 1.723-1.025.533-2.209.691-3.178 1.347l.019-.01c-1.706 1.104-2.993 2.69-4.517 4.007 10.353-4.916 21.89-8.055 33.407-7.154l-.025-.002.074.008-.035-.004a18.87 18.87 0 003.522-.263l-.052.008c.36-.055.717-.113 1.079-.173l-.084.012c5.63-.872 13.427.367 16.847 5.376l-.006-.011c.276.345.575.671.856 1.01l-.029-.037c.38.421.68.906 1.035 1.348l-.01-.017c.052.068.106.134.16.2l-.029-.035c.126.15.266.288.419.41l-.022-.018c.05.045.1.092.149.139l-.02-.02c.341.347 2.008.953.392.682l.014.003-.095-.018a2.437 2.437 0 01-.218-.05l-.021-.005c-1.328-.447-2.396-1.452-3.41-2.398-1.834-1.093-3.747-2.103-5.85-2.565-3.213-.624-6.611.103-9.62-1.497l.054.023-.19-.076c-5.208-1.791-10.672-1.63-16.054-.872 3.746 1.43 7.36 3.25 11.42 3.64 4.52.253 8.271 2.194 12.008 4.591.207.197 1.992 1.367 1.126 1.305-6.794-1.94-12.042 2.444-18.814-2.829l-.054-.04-.027-.021.03.022c-1.45-1.224-2.958-2.367-4.109-3.896l.007.013c-.608-.655-1.337-1.184-2.022-1.755l.08.06c-.122-.09-.243-.186-.364-.278l.06.034-.08-.058.042.032c-1.637-1.403-6.885.658-8.99 1.122-7.593 2.369-15.016 5.502-21.562 10.073 6.345-3.416 12.143-1.5 18.692-2.581l-.015.008.073-.01-.01.005.076-.011-.046.007.076-.012-.042.006c1.538-.32 3.105-.082 4.656-.046 1.616-.103 3.26-.31 4.865.052 2.544.569 4.761 2.134 7.362 2.499l-.02-.001c3.35.543 1.583.459-.375.853-2.392.667-4.742 1.543-7.18 2.04l.008-.005-.046.01-.044.009.007-.004c-4.223.65-8.659 2.075-12.399-.782-2.075-1.596-4.092-3.432-6.903-3.391l.079.004-.105-.007-.174-.011.044.002-.104-.006.017.002c-.599.045-1.193.116-1.782.21l.081-.014-.13.021.03-.004-.078.013.007-.004c-3.095.411-5.918 1.78-8.723 3.068l.033-.018c-2.539 1.124-4.579 3.22-6.603 5.093l.015-.009-.059.06.044-.043c-4.486 4.605-8.854 9.356-12.237 14.85-.673.658-.975 1.844-1.784 2.266-.432.11-.55-.43-.374-.73l-.032.084c.017-.045.034-.09.053-.135l-.008.02c.048-.123.11-.24.184-.348l-.02.026c.63-.96 1.262-1.91 1.878-2.879l-.038.05c1.461-2.26 3.7-4.11 4.438-6.756l-.021.076c1.44-4.292.475-8.832 1.321-13.195.628-2.985 2.74-5.31 4.873-7.358 2.861-3.787 7.06-5.984 11.118-8.244l-.064.036c4.404-2.165 8.11-5.338 11.252-9.077l-.02.021c.486-.626 1.03-1.235 1.363-1.948a.401.401 0 00.015-.064.08.08 0 01.148-.05.08.08 0 01.01.029zm16.029 11.992c5.444-.215 10.23-3.164 14.685-5.995-7.634 1.826-15.328 3.556-22.825 5.892 2.712.005 5.427.15 8.14.101v.002zM65.212 14.94c1.086-.292 1.967-1.003 2.81-1.72-1.083.603-2.153 1.221-3.246 1.806l.436-.086zm-1.88.19c4.979-3.583 10.967-5.046 16.867-6.347 4.478-.962 8.84-2.387 13.362-3.15-1.234-.018-2.475.086-3.702-.026l.045.005c-.08-.007-.163-.014-.238-.024-5.944.254-12.193-1.009-17.808 1.482l.056-.031c-2.91 1.453-5.512 3.657-7.583 6.137l.015-.022-.222.361.014-.022c-.318.593-.66 1.167-.97 1.762.056-.04.11-.085.163-.126zm31.395-.805c1.843.324 3.495 1.305 5.334 1.618 3.612.195 7.395-.006 10.592 2.02-1.543-1.305-3.515-1.796-5.34-2.566a11.976 11.976 0 00-2.737-.76l.088.009c-2.694-.377-5.413-.178-8.114-.382l.177.061zm15.69 2.913l-.024-.018.024.018zm-12.465-3.549c2.437.098 4.98.044 7.264 1.016.224.09.446.185.67.277l-.02-.007.072.028-.014-.006c1.502.707 3.14 1.174 4.458 2.209l-.02-.016.041.03-.008-.012.208.154-.047-.034c.258.184.503.38.753.57l-.006-.011.045.033-.004-.009c.332.244.64.516.967.767l-.023-.017.043.033-.005-.009c.695.45 1.209 1.09 1.764 1.691-.424-.583-.953-1.08-1.41-1.636l.014.025c-.151-.181-.3-.364-.443-.552l.005.01c-2.548-3.533-6.936-4.268-10.952-4.91l.088.01c-1.999-.255-4.015.058-5.995.325.838.1 1.698.018 2.555.041zm-14.977 3.247l.05.062-.063-.079-.007-.013.02.03zm-.252-.318c3.413 4.363 8.894 7.723 14.583 6.363l-.034.005c1.46-.178 2.935-.078 4.4-.126-.389-.14-.766-.319-1.158-.45l.052.019-.575-.193.024.009c-1.77-.616-3.457-1.523-5.387-1.44h.015c-4.45.108-8.304-1.968-11.973-4.235.023.01.034.03.053.048zm-.442-.992c3.808 2.277 7.781 4.537 12.346 4.612 3.09-.076 5.642 2.078 8.558 2.66-2.324-1.122-4.371-2.871-6.921-3.467-4.87-.831-9.805-1.487-14.205-3.917.072.04.148.075.223.114v-.002zm-.08 11.83l.015-.009-.02.01.005-.001zm-.14.028l.05-.011-.032.007-.047.01.04-.008-.012.002zm-20.314-2.32c2.26 1.147 3.837 3.334 6.38 4.049 1.505.536 3.063.242 4.594.032 3.198-.183 6.303-.942 9.38-1.77l-.012.007a17.98 17.98 0 001.924-.496c-7.602.528-14.992-1.747-22.551-1.93.091.034.187.067.28.11l.005-.002zm6.808-.21c2.785.432 5.554.975 8.363 1.249l-.08-.01c2.048.27 4.115.375 6.18.313-.772-.195-1.476-.585-2.212-.89l.02.006-.072-.029.039.016c-2.431-1.207-5.085-1.569-7.759-1.21-1.671-.021-3.347-.297-5.007.077l.012-.006-.076.011.033-.005c-.418.064-.836.144-1.255.204a.266.266 0 00.038-.005l-.035.005c.602.1 1.207.184 1.806.277l.005-.002zM39.38 27.028l-.05.028c.554-.427 1.084-.88 1.653-1.285l-.009.005c.887-.682 1.905-1.165 2.77-1.88l-.053.029c.22-.165.434-.343.654-.508l-.008.005.513-.39-.05.037c.165-.126.332-.247.498-.372a.162.162 0 00-.05.037c.088-.066.178-.131.266-.198l-.04.022c5.096-4.348 10.193-8.855 13.802-14.564l-.01.005.026-.046-.013.022a115.75 115.75 0 001.84-3.928l-.223.37.027-.044a26.448 26.448 0 01-4.01 4.93l.007-.004-.024.013.01-.006-.23.215.012-.007-.57.523.047-.042c-1.592 1.582-3.48 2.806-5.17 4.271.016-.009.028-.024.04-.038-.021.012-.035.034-.054.05l.015-.008-.064.06.023-.023-.047.044c.01-.006.018-.01.024-.023l-.033.03.006-.002-.047.043.056-.052c-4.11 4.023-7.7 8.518-11.624 12.712.033.012.06-.008.086-.027l.004-.004zm-5.091 3.752v-.034.034zM61.472 2.883c-3.178 3.66-6.956 6.73-11.309 8.892l.064-.035c-1.457.747-2.78 1.719-4.228 2.477l.068-.038c-4.171 2.286-7.375 6.099-10.212 9.84-1.98 3.207-1.54 7.135-1.397 10.727 1.07-4.933 4.643-8.373 7.937-11.93 2.555-3.179 5.406-6.113 8.292-8.985 2.017-1.655 4.189-3.11 6.054-4.948l-.023.023c.017-.01.03-.028.045-.043l-.013.008c1.89-1.81 3.455-3.935 4.835-6.154-.043.063-.08.118-.122.17l.009-.004z"/><path d="M97.686 5.19l-.007.004c-.008.004.004-.004.007-.004zm7.288 18.217l-.025-.02.025.02zm10.752-1.537l-.013-.003.013.003zm-68.96 10.337c.028-.015.062-.022.092-.031l-.092.03zm-7.301 5.758c-.02.024-.04.05-.062.075l.062-.075zm-9.311 20.437l-.065.005.065-.005zm5.889-1.31c.027-.014.056-.02.084-.03-.028.012-.056.02-.084.03zm-2.073-.29c-.03.017-.065.024-.1.036.033-.012.067-.023.1-.036zm-6.031 18.995l-.012.026.012-.026zm-5.479 9.431l-.013.017.013-.017zM39.185 65.07l-.014.037.014-.036zM22.33 85.395l-.028.036.028-.036zm15.707-15.091l-.01.027.01-.027zm-.033.086l.006-.017-.006.017zm-20.42 17.004l-.008.048.008-.048zm.426 16.4v.018-.018zm-5.443-2.617l.002.037-.002-.037zm.002.049l-.001-.015v.015z"/><path d="M2.366 65.778l.019.01.033.02.018.011c3.162 3.465 6.107 7.432 7.389 12.032l-.02-.056c1.011 3.246 1.406 6.61 2.046 9.935l-.016-.078c1.364 6.804 1.345 13.782 2.485 20.6 1.453 3.243 4.216 5.9 6.319 8.778l-.056-.067c.064.079.132.156.2.233-1.52-5.946-3.307-11.936-3.33-18.124l.003.031-.007-.065.003.028c-.267-3.898-.464-7.894-.042-11.782l-.009.05c.178-1.308.263-2.625.253-3.944l.003.022c-.492-3.078-1.16-6.134-2.54-8.962-1.383-2.953-1.613-6.306-1.785-9.522-.412-6.49 3.69-11.832 7.282-16.796 2.426-3.775 4.874-7.553 7.512-11.168.038-.072.072-.18.168-.16.1.042.05.151.041.236l-.003.022-.003-.006-.015.125.002-.023c-.137 1.281-.728 2.469-.963 3.737-.187 1.385-.024 2.79-.133 4.183-.269 4.242-.941 8.491-2.65 12.41l.006-.011-.045.091.01-.022c-1.629 3.049-3.929 5.675-5.688 8.645-.404.757-.824 1.605-.925 2.495-.122 1.091.117 2.176.082 3.27-.143 1.262-.726 2.434-.72 3.723v-.023c-.033 2.233.616 4.38.88 6.578 1.868-12.453 6.076-24.895 13.949-34.833l-.018.02.051-.061-.025.028a20.722 20.722 0 001.918-3.37l-.025.05c.17-.361.336-.725.504-1.089l-.04.083c2.653-5.665 8.557-12.008 15.208-12.048l-.01.005c.482-.038.963-.11 1.442-.16l-.05.004c.616-.089 1.24-.065 1.86-.116l-.02.002c.093-.005.186-.015.279-.023l-.05.005a3.232 3.232 0 00.598-.121c.073-.018.146-.034.219-.05l-.03.006c.525-.098 2.096-1.243.859.062l.013-.008-.074.075a2.936 2.936 0 01-.18.168l-.019.01c-1.221.936-2.788 1.292-4.27 1.633-2.118 1.001-4.208 2.123-5.915 3.757-2.536 2.544-3.95 6.085-7.253 7.847l.057-.032c-.065.036-.124.083-.185.125-4.817 3.639-8.02 8.722-10.626 14.093 3.595-2.534 7.467-4.71 10.305-8.17 2.998-3.962 7.061-6.187 11.53-8.12.306-.068 2.464-.976 1.877-.225-5.926 4.998-5.149 12.474-14.095 15.405l-.07.024-.032.018.035-.02c-1.998.57-3.965 1.241-6.062 1.35l.014-.006c-.97.151-1.898.49-2.836.765.031-.017.068-.023.103-.037-.158.056-.317.106-.475.161l.038-.02c-.031.017-.067.024-.1.035.016-.01.035-.012.053-.019-2.28.63-3.62 6.678-4.484 8.88-2.494 8.375-4.189 17.063-4.039 25.837.779-7.88 6.072-11.986 9.094-18.614l-.008.018.035-.074-.007.013.037-.076-.021.046c.013-.025.023-.05.036-.076l-.02.042c.65-1.604 1.83-2.882 2.808-4.27.896-1.538 1.713-3.159 3.027-4.396 2.074-1.969 4.858-3.027 6.78-5.175l-.014.018c2.546-2.718 1.384-1.16.548.865-.859 2.589-1.494 5.27-2.541 7.797l.005-.01-.019.047-.018.046.007-.004c-1.994 4.248-3.414 9.165-8.304 10.818-2.722.91-5.629 1.618-7.313 4.207l.052-.07-.07.093.005-.004-.116.151.03-.038-.07.09.013-.015a26.24 26.24 0 00-.907 1.754l.039-.082-.062.13.015-.03-.038.08.008-.005c-1.522 3.073-2.003 6.487-2.55 9.834l.006-.042c-.531 3.004.125 6.148.591 9.145l-.01-.017.018.091-.012-.067c1.444 6.915 3.092 13.815 6.019 20.273.187 1.019-.683.981-1.19-.174a17.008 17.008 0 01-.981-2.326c-.719-2.135-1.652-5.175-2.843-6.575l.056.067c-3.02-3.945-7.744-5.859-11.197-9.31-2.332-2.405-3.152-5.759-3.71-8.961-1.695-4.934-1.123-10.11-.694-15.195l-.01.08c.726-5.344.109-10.667-1.37-15.83l.009.032c-.273-.826-.493-1.697-.939-2.437a.45.45 0 00-.05-.053.11.11 0 01-.036-.15.11.11 0 01.15-.037zm20.726-7.237c3.132-5.093 3.387-11.265 3.538-17.064-3.011 8.08-6.154 16.153-8.615 24.417 1.666-2.467 3.46-4.852 5.077-7.353zm-5.773 14.077c.393-1.17.293-2.41.158-3.617-.117 1.356-.208 2.712-.346 4.067.065-.15.126-.3.188-.45zm-.978 1.83c-.21-6.738 2.126-13.094 4.554-19.269 1.867-4.671 3.242-9.52 5.317-14.109-.773 1.113-1.437 2.307-2.29 3.357.01-.014.021-.026.032-.038-.056.069-.113.135-.169.202-3.41 5.573-8.384 10.489-9.557 17.136l.013-.07c-.46 3.546-.048 7.27.945 10.68l-.014-.025.192.424-.014-.025c.345.654.657 1.319 1.009 1.966-.005-.08-.014-.154-.018-.23zm18.494-29.1c1.422-1.48 3.327-2.384 4.738-3.865 2.389-3.172 4.521-6.742 8.323-8.41-2.132.604-3.783 2.103-5.603 3.289a13.137 13.137 0 00-2.369 2.026l.062-.074c-1.992 2.223-3.476 4.824-5.316 7.159.058-.047.112-.086.164-.126v.001zm12.259-12.506l-.029.016.029-.016zM36.23 42.017c1.583-2.16 3.088-4.51 5.373-5.993l-.007.004c.218-.15.443-.293.663-.44l-.02.01a.529.529 0 00.07-.046l-.015.008c1.563-.934 2.99-2.139 4.747-2.704l-.024.013a.11.11 0 01.052-.018l-.015.008c.089-.03.178-.063.267-.094l-.06.021c.327-.114.655-.225.981-.337l-.013.007.058-.02-.01.006c.425-.154.862-.269 1.293-.407l-.028.016a.118.118 0 01.055-.02l-.01.006c.833-.357 1.732-.43 2.617-.568-.79.029-1.566.206-2.352.28l.032-.002c-.259.026-.516.05-.774.065l.01-.006c-4.774.154-8.125 3.7-11.175 6.963l.062-.075c-1.454 1.663-2.404 3.694-3.374 5.661.599-.736 1.05-1.57 1.597-2.338zM30.014 57.66l.088-.008-.11.01-.017.001.039-.003zm-.448.037c6.06-.43 12.473-3.359 14.719-9.379l-.016.036c.732-1.437 1.727-2.723 2.578-4.09-.366.274-.76.502-1.125.782l.047-.037c-.174.135-.35.27-.526.403l.024-.013c-1.645 1.235-3.503 2.215-4.61 4.024l.014-.008c-2.629 4.118-6.877 6.356-11.186 8.308a.187.187 0 01.082-.028v.002zm-1.172-.206c4.401-2.07 8.893-4.303 11.758-8.412 1.822-2.863 5.342-3.862 7.66-6.162-2.443 1.427-5.288 2.218-7.392 4.182-3.745 3.928-7.356 8.02-12.262 10.535.081-.056.16-.102.24-.147l-.004.004zm10.714 7.341l.009-.018-.01.022.001-.004zm-.06.152l.02-.054-.012.032-.02.05.016-.042-.005.014zM24.5 82.063c2.43-1.352 5.38-1.447 7.591-3.326 1.41-1.041 2.096-2.643 2.844-4.166 1.791-3.027 3.002-6.322 4.131-9.64l-.005.015c.28-.672.523-1.36.727-2.059-4.174 7.25-10.769 12.587-15.566 19.362.092-.062.183-.128.278-.186zm3.979-6.332c2.097-2.272 4.293-4.462 6.257-6.852l-.058.066a42.185 42.185 0 004.065-5.437c-.65.583-1.442.984-2.165 1.466l.02-.01a.25.25 0 00-.07.046l.04-.022c-2.588 1.472-4.54 3.663-5.848 6.322-1.039 1.515-2.32 2.868-2.996 4.61l.007-.016-.037.077.017-.034c-.197.422-.382.85-.586 1.263a.302.302 0 00.012-.03l-.016.035c.46-.496.903-.997 1.359-1.485h-.001zM12.5 103.588l.002.063c-.05-.766-.136-1.528-.156-2.296l.005.008c-.078-1.227.105-2.452-.017-3.678l.003.066c-.014-.305-.045-.6-.06-.904l.005.008-.04-.707.003.068c-.014-.226-.023-.456-.034-.68l.004.068-.018-.366.003.05c-.836-7.313-1.815-14.726-4.8-21.522l.005.011-.028-.05.014.025c-.78-1.385-1.613-2.736-2.446-4.089.067.144.134.286.199.431l-.027-.049a29.13 29.13 0 012.029 6.684l-.005-.008.005.03-.007-.012.053.342-.007-.013.127.842-.01-.068c.465 2.422.423 4.894.72 7.334l-.008-.059.012.081-.004-.02.015.095-.005-.033.011.069-.005-.036.008.048-.004-.006.01.07-.01-.083c1.142 6.217 3.035 12.248 4.456 18.399l.002-.113zm.297 6.948l-.031-.022.03.022zM4.059 68.631c1.383 5.144 1.865 10.472 1.166 15.767l.01-.08c-.21 1.785-.138 3.588-.336 5.374l.01-.084c-.475 5.205 1.033 10.465 2.7 15.348 1.705 3.775 5.555 5.783 8.897 7.865-3.833-4.006-4.777-9.375-5.996-14.562-1.328-4.28-2.25-8.68-3.1-13.075-.27-2.853-.268-5.728-.793-8.556l.005.034-.01-.067.006.013c-.485-2.838-1.465-5.568-2.638-8.187.028.07.055.139.08.208l-.001.002zm-1.413-2.948l.01.005-.01-.005zm38.02-3.385l.008-.02-.008.02z"/><path d="M49.595 41.468c-.011.005-.02.01-.034.009l.034-.01zm5.183-10.747a.143.143 0 01-.014.008l.014-.008z"/></g><defs><clipPath id="clip0"><path fill="#fff" transform="translate(-167 -168)" d="M0 0h1920v1894H0z"/></clipPath></defs></svg>