<svg width="171" height="157" fill="none" xmlns="http://www.w3.org/2000/svg"><path d="M75.865 5.124A75.872 75.872 0 0027.903 22.24 75.695 75.695 0 001.61 65.803a75.626 75.626 0 007.243 50.349 75.779 75.779 0 0037.51 34.409 75.396 75.396 0 0029.502 5.948c16.277 0 31.789-5.076 44.86-14.677a.48.48 0 00.181-.499.485.485 0 00-.217-.294.473.473 0 00-.53.024c-12.905 9.48-28.223 14.492-44.294 14.492-41.264 0-74.836-33.528-74.836-74.738S34.601 6.08 75.864 6.08a77.6 77.6 0 013.74.091.479.479 0 00.046-.954 77.7 77.7 0 00-3.785-.093zm69.298 114.294l-.008.009.008-.009zm-11.929 14.788a.988.988 0 01-.081.035l.081-.035zm3.623-3.281l.013-.011-.031.026.018-.015zm2.562-2.508l.05-.071-.05.071zm-7.753 5.819h.014l-.029.014.015-.014zm5.103-4.01l-.01.009.01-.009zm9.531-21.074l.058-.01-.058.01zm-5.251 1.648l-.072.033.072-.033zm1.907.1l.089-.039-.089.039zm4.012-17.694l.009-.025-.009.025zm-7.205 10.618l.01-.009-.01.009zm11.46-19.591l.01-.015-.01.015zm-13.643 19.579l.011-.034-.011.034zm13.742-19.747l.023-.035-.023.035zm-13.103 14.913l.008-.025-.008.025zm17.26-17.095v-.044a.132.132 0 010 .044zm-8.569-34.026l-.01-.021.01.02zm18.691 45.717l.007.011-.007-.01z" fill="#B4965D"/><path d="M170.78 100.423l-.018-.008-.031-.017-.018-.008c-3.14-2.894-6.121-6.26-7.647-10.331l.022.049c-1.169-2.864-1.786-5.884-2.624-8.85l.02.07c-1.765-6.063-2.287-12.393-3.848-18.483-1.57-2.827-4.284-5.02-6.417-7.465l.056.056a9.281 9.281 0 00-.2-.196c1.84 5.272 3.926 10.564 4.424 16.173v-.029c0 .02.007.039.011.059v-.026c.547 3.514 1.033 7.121.948 10.68v-.044c-.063 1.198-.039 2.4.07 3.596v-.02c.682 2.752 1.526 5.472 3.004 7.928 1.483 2.569 1.952 5.59 2.357 8.494.872 5.846-2.439 11.016-5.319 15.799-1.912 3.612-3.845 7.227-5.962 10.713-.028.067-.052.167-.136.158-.094-.031-.058-.136-.056-.211v-.127.02c.026-1.171.471-2.295.586-3.462.062-1.271-.194-2.534-.203-3.804-.083-3.867.197-7.773 1.447-11.464v.011l.032-.088-.007.021c1.244-2.892 3.132-5.455 4.507-8.283.307-.717.626-1.52.648-2.335.026-1-.273-1.966-.328-2.958.033-1.155.47-2.266.368-3.432v.022c-.137-2.028-.897-3.924-1.307-5.895-.735 11.437-3.598 23.046-9.982 32.674l.014-.021-.042.06.02-.028a18.813 18.813 0 00-1.481 3.206l.017-.05c-.127.343-.249.682-.372 1.027l.03-.079c-1.973 5.345-6.845 11.558-12.885 12.113h.012c-.435.073-.865.175-1.298.257l.046-.008c-.553.128-1.122.154-1.681.25h.019a7.353 7.353 0 00-.252.042l.045-.008a2.91 2.91 0 00-.563.166l.028-.009-.194.062.026-.008c-.469.13-1.808 1.292-.786.011l-.009.011.061-.074c.048-.057.097-.113.151-.166l.013-.016c1.037-.944 2.433-1.389 3.754-1.815 1.846-1.072 3.658-2.253 5.084-3.867 2.107-2.505 3.122-5.828 5.983-7.681l-.046.037.158-.129c4.096-3.682 6.612-8.535 8.564-13.608-3.071 2.579-6.417 4.853-8.731 8.214-2.418 3.826-5.937 6.161-9.847 8.262-.273.086-2.163 1.078-1.688.351 4.998-4.996 3.715-11.713 11.615-15.069l.061-.027.032-.014-.035.015c1.775-.672 3.507-1.435 5.402-1.698h-.015c.869-.213 1.685-.593 2.517-.915l-.09.041c.136-.063.28-.121.419-.183l-.059.036.089-.041-.048.02c2.021-.748 2.771-6.337 3.388-8.401 1.619-7.788 2.488-15.799 1.674-23.741-.098 7.206-4.591 11.342-6.827 17.592v-.018l-.026.07v-.013l-.028.072.017-.043-.028.072.015-.04c-.467 1.5-1.436 2.754-2.221 4.092-.695 1.463-1.312 3-2.41 4.227-1.733 1.947-4.179 3.124-5.761 5.22l.011-.017c-2.103 2.663-1.171 1.16-.564-.742.58-2.415.956-4.895 1.707-7.267v.01l.013-.046.014-.042v.008c1.484-4.006 2.394-8.576 6.708-10.457 2.404-1.037 4.989-1.909 6.318-4.385l-.042.067.058-.09.094-.145-.023.037.056-.087-.01.013c.251-.545.478-1.1.683-1.66l-.029.078.045-.124-.011.029.027-.075v.008c1.145-2.905 1.32-6.037 1.557-9.115v.038c.251-2.765-.588-5.566-1.242-8.246v.018c-.009-.028-.015-.054-.024-.08l.017.058c-1.845-6.159-3.876-12.284-7.033-17.911-.248-.908-1.138-1.748-1.114-2.66.115-.431.643-.273.82.027l-.058-.068c.032.036.063.073.093.111l-.014-.016c.084.102.156.212.215.33l-.014-.03c.534 1.016 1.057 2.03 1.605 3.04l-.026-.058c1.265 2.376 1.795 5.232 3.748 7.163l-.056-.056c3.052 3.345 7.488 4.707 10.891 7.567 2.303 1.999 3.308 4.975 4.062 7.834 1.92 4.34 1.8 9.078 1.803 13.723v-.074c-.248 4.902.725 9.683 2.466 14.246l-.01-.028c.311.728.579 1.5 1.041 2.137a.297.297 0 00.049.045.09.09 0 01.026.017.077.077 0 01.024.056.065.065 0 01-.005.031.078.078 0 01-.017.026.077.077 0 01-.056.024.065.065 0 01-.031-.005zm-18.27 8.182c-2.458 4.863-2.207 10.479-1.897 15.748 2.114-7.559 4.341-15.125 5.942-22.812-1.322 2.367-2.768 4.669-4.044 7.064h-.001zm4.158-13.216c-.273 1.091-.079 2.207.136 3.292 0-1.24-.02-2.475 0-3.714l-.136.422zm.748-1.736c.712 6.093-.92 12.038-2.65 17.827-1.336 4.381-2.21 8.886-3.74 13.208.616-1.069 1.128-2.205 1.821-3.222l-.026.037c.045-.067.092-.136.137-.196 2.667-5.319 6.807-10.167 7.358-16.284v.064c.144-3.25-.517-6.595-1.679-9.61l.012.023c-.069-.123-.136-.246-.207-.37l.012.024c-.363-.566-.699-1.145-1.069-1.704.008.069.022.137.031.203zm-14.553 27.831c-1.179 1.453-2.839 2.42-4.006 3.875-1.926 3.063-3.589 6.467-6.912 8.277 1.889-.715 3.277-2.2 4.836-3.42a11.971 11.971 0 001.995-2.023l-.051.072c1.639-2.171 2.786-4.644 4.277-6.905l-.139.124zm-10.17 12.298l.027-.013-.027.013zm9.158-9.17c-1.27 2.082-2.458 4.331-4.417 5.854-.187.153-.378.3-.568.452l.016-.014-.06.049.012-.009c-1.347.969-2.552 2.173-4.096 2.823l.023-.01-.046.02h.015l-.237.107.054-.025c-.287.137-.577.255-.865.382h.013l-.051.023h.01c-.374.172-.762.31-1.14.474l.025-.013-.049.022h.01c-.731.389-1.54.526-2.335.72.715-.087 1.406-.308 2.115-.438h-.029c.232-.043.465-.084.698-.118h-.011c4.326-.51 7.101-3.989 9.613-7.187l-.05.072c1.193-1.622 1.899-3.537 2.628-5.397-.494.684-.841 1.475-1.278 2.213zm4.441-14.668l-.08.014.1-.017h.015l-.035.003zm.4-.065c-5.472.863-11.072 4.02-12.647 9.653l.012-.032c-.554 1.363-1.359 2.603-2.029 3.907.311-.273.651-.515.956-.794l-.041.037c.148-.137.297-.273.448-.409l-.02.016c1.399-1.248 3.011-2.281 3.877-4.008l-.008.012c2.069-3.941 5.755-6.3 9.52-8.405-.021.015-.044.015-.068.023zm1.081.095c-3.84 2.222-7.746 4.596-10.029 8.549-1.435 2.739-4.558 3.922-6.484 6.187 2.11-1.485 4.634-2.424 6.394-4.364 3.092-3.852 6.064-7.846 10.325-10.511-.069.044-.138.093-.207.139h.001zm-10.3-5.819v.018-.022.004zm.044-.136l-.015.05.01-.031.013-.046-.012.039.004-.012zm11.899-16.626c-2.102 1.418-4.779 1.733-6.639 3.608-1.2 1.056-1.7 2.56-2.261 4-1.395 2.884-2.24 5.966-3.011 9.059v-.015c-.203.631-.37 1.273-.501 1.923 3.232-6.9 8.811-12.255 12.645-18.772-.075.063-.15.131-.233.191v.006zm-3.126 6.052c-1.73 2.224-3.55 4.38-5.154 6.702l.047-.065a38.557 38.557 0 00-3.277 5.249c.546-.58 1.229-1.005 1.853-1.5l-.015.013.06-.047-.033.026c2.237-1.539 3.843-3.682 4.829-6.193.83-1.45 1.885-2.782 2.365-4.414v.013l.027-.072-.012.032c.147-.397.281-.801.431-1.196a.229.229 0 00-.013.035l.012-.033c-.38.477-.747.966-1.12 1.444v.006zm12.366-26.506v-.058c.104.692.242 1.375.32 2.07v-.01c.165 1.106.092 2.23.297 3.334v-.06c.037.273.089.545.126.818v-.01l.091.639-.008-.062c.03.205.055.41.083.615 0-.02 0-.04-.008-.061l.044.329v-.045c1.324 6.566 2.787 13.211 6.023 19.14v-.012l.027.045-.012-.022a117.886 117.886 0 002.538 3.517l-.214-.375.025.045a26.476 26.476 0 01-2.36-5.9v.008-.027.012c-.026-.102-.05-.205-.075-.307v.015c-.061-.25-.122-.502-.18-.753l.013.062c-.609-2.16-.762-4.405-1.22-6.594 0 .018.008.036.013.053 0-.024-.012-.047-.017-.072v.018l-.021-.085.008.03-.015-.061c0 .01 0 .02.008.031l-.01-.043v.006l-.015-.06.017.073c-1.518-5.548-3.703-10.869-5.462-16.337-.026.023-.021.055-.017.088l.001.006zm-.806-6.273l.03.017-.03-.017zm11.173 37.313c-1.655-4.556-2.503-9.35-2.277-14.204v.072c.055-1.636-.151-3.264-.11-4.898v.078c.028-4.757-1.747-9.41-3.638-13.707-1.84-3.29-5.488-4.812-8.697-6.434 3.792 3.332 5.062 8.126 6.571 12.734 1.536 3.778 2.715 7.696 3.823 11.614.466 2.566.683 5.172 1.382 7.695l-.008-.032c0 .02.01.04.015.06v-.014c.664 2.532 1.76 4.932 3.029 7.216-.034-.068-.064-.128-.09-.19v.01z" fill="#B4965D"/><path d="M149.409 128.51v-.009c0-.009.002.005 0 .009zm-19.464-2.484l.03-.011-.03.011zm-3.881 10.145l.009-.01-.009.01zm24.476-65.294c0 .032-.011.064-.018.096l.018-.096zm-1.485-9.179c-.011-.03-.025-.06-.035-.091l.035.091zm-13.337-18.069l.027-.06-.027.06zM134 49.412c0 .03-.009.06-.015.088.004-.03.01-.059.015-.088zm1.262-1.67c0-.035.011-.07.018-.105l-.018.105zM121.59 33.24l-.017-.023.017.023zm-5.579-9.37l-.008-.02.008.02zm9.49 24.412l-.024-.03.024.03zm-9.574-24.608l-.018-.042.018.042zm5.557 21.061l-.018-.022.018.022zm-.058-.071l.011.014-.011-.014zm-4.939-26.109l-.038-.03.038.03zm-14.54-7.597l-.017-.008.017.008zm4.931-3.486l-.032-.016.032.016zm-.043-.022l.014.006-.014-.006z" fill="#B4965D"/><path d="M142.774 15.758l-.018.011-.034.02-.018.01c-4.565 1.08-9.463 1.726-14.107.61l.059.012c-3.328-.694-6.46-1.984-9.677-3.041l.076.024c-6.61-2.113-12.699-5.521-19.212-7.838-3.54-.306-7.206.818-10.742 1.257l.086-.016c-.101.017-.2.04-.302.061 5.936 1.562 12.04 2.91 17.459 5.897l-.029-.013.061.026-.026-.01c3.536 1.66 7.125 3.43 10.317 5.688l-.038-.032a27.652 27.652 0 003.323 2.137l-.02-.008c2.929 1.066 5.925 1.966 9.067 2.135 3.252.227 6.295 1.655 9.189 3.067 5.872 2.793 8.548 8.975 11.141 14.526 2.121 3.955 4.233 7.93 6.111 11.993.044.068.121.15.059.225-.086.067-.157-.03-.227-.08l-.018-.013h.007l-.102-.074.019.013c-1.053-.742-1.804-1.836-2.798-2.657-1.12-.837-2.428-1.377-3.591-2.149-3.578-2.297-6.964-4.949-9.559-8.347l.007.01-.059-.082.015.019c-1.873-2.905-3.05-6.192-4.791-9.173-.466-.72-1.002-1.5-1.731-2.02-.895-.637-1.96-.955-2.898-1.517-1.034-.74-1.775-1.818-2.904-2.44l.02.013c-1.936-1.114-4.128-1.59-6.177-2.428 9.976 7.683 18.805 17.408 23.666 29.118l-.009-.026.028.075-.012-.035a20.743 20.743 0 002.014 3.313l-.033-.046c.234.325.471.646.708.97l-.054-.075c3.663 5.071 6.337 13.313 3.141 19.146V74c-.201.441-.371.896-.561 1.34l.022-.047c-.223.583-.547 1.116-.803 1.683l.008-.019c-.041.085-.078.17-.116.255l.02-.046c-.085.197-.15.403-.194.613 0-.01 0-.02.009-.031l-.062.215.008-.028c-.169.506.069 2.435-.471.72v.015c-.009-.033-.02-.067-.028-.101a2.847 2.847 0 01-.061-.239v-.022c-.223-1.521.227-3.064.649-4.526.154-2.337.19-4.709-.41-6.994-.991-3.453-3.398-6.41-3.333-10.153v.066c0-.074-.012-.149-.019-.223-.84-5.978-3.726-11.247-7.154-16.135.467 4.373.488 8.815 2.133 12.977 2.006 4.545 1.976 9.178 1.494 14.023-.089.3-.344 2.628-.715 1.75-1.489-7.608-8.401-10.562-6.615-19.805l.013-.073v-.037.04c.473-2.022.842-4.068 1.765-5.954v.015c.339-.92.493-1.897.709-2.85 0 .035-.012.071-.018.108.029-.165.061-.329.09-.494v.044c0-.036.011-.071.018-.105 0 .019-.007.037-.01.056.557-2.298-4.077-6.41-5.582-8.234-6.107-6.25-12.878-11.953-20.618-16.085 6.509 4.51 7.525 11.13 11.849 16.993l-.012-.017.048.067-.008-.012.049.07-.03-.041c.015.023.032.045.049.068l-.028-.038c1.086 1.347 1.629 3 2.368 4.53.908 1.53 1.928 3.031 2.371 4.781.712 2.77.285 5.717 1.229 8.44l-.01-.02c1.139 3.545.341 1.772-1.023.058-1.844-2.009-3.879-3.866-5.579-6.01l.007.01-.033-.04-.031-.038v.008c-2.744-3.807-6.351-7.437-5.42-12.514.527-2.822 1.322-5.706-.123-8.436l.036.079-.047-.106v.006l-.075-.174.019.043-.045-.103.007.018a26.321 26.321 0 00-1.092-1.645l.053.074-.085-.118.019.028-.05-.071v.008c-1.946-2.823-4.696-4.903-7.356-7.007l.034.026c-2.368-1.924-5.434-2.879-8.28-3.927h.019l-.087-.029.064.022C92.39 8.604 85.559 6.693 78.493 6.11c-.982-.331-.526-1.073.73-.954.842.028 1.681.12 2.51.272 2.215.41 5.325 1.07 7.128.71l-.087.017c4.916-.722 8.884-3.922 13.579-5.262 3.235-.87 6.565.043 9.635 1.111 5.135.917 9.38 3.932 13.618 6.778l-.066-.047c4.318 3.231 9.27 5.278 14.5 6.494l-.031-.008c.854.164 1.723.394 2.586.364a.434.434 0 00.071-.018.11.11 0 01.108.19zm-3.746 21.631c2.929 5.212 8.2 8.434 13.195 11.384-5.599-6.558-11.127-13.228-17.155-19.394 1.347 2.655 2.559 5.382 3.96 8.01zm-9.498-11.886c.832.912 1.963 1.427 3.085 1.896-1.13-.761-2.27-1.5-3.387-2.28.1.13.201.257.302.384zm-1.124-1.744c5.99 3.09 10.411 8.22 14.627 13.344 3.176 3.901 6.746 7.46 9.748 11.502-.596-1.216-1.317-2.377-1.821-3.633a.583.583 0 01.017.047l-.094-.246c-3.214-5.688-5.093-12.424-10.332-16.679l.054.045c-2.875-2.125-6.33-3.574-9.793-4.364h.029l-.464-.038h.028c-.739-.016-1.472-.067-2.208-.074.071.035.141.063.209.096zm16.446 30.304c.602 1.962.467 4.066 1.076 6.02 1.611 3.628 3.695 7.227 3.306 11.36.508-2.157 0-4.328-.152-6.495a13.109 13.109 0 00-.62-3.055l.034.09c-.975-2.821-2.526-5.382-3.673-8.125.013.074.021.14.03.205h-.001zm4.973 16.791v-.033.033zm-2.741-13.952c1.12 2.433 2.442 4.89 2.628 7.608v-.008c.024.263.041.53.062.794v-.024c0 .029.003.057.007.085v-.018c.058 1.82.417 3.654.058 5.463v-.027c0 .02 0 .035-.01.055v-.018c-.016.093-.031.187-.048.28l.011-.063c-.058.34-.121.681-.181 1.021v-.015l-.011.06v-.01c-.073.445-.185.883-.273 1.326v-.031c0 .019 0 .038-.01.057v-.012c-.093.902-.466 1.723-.776 2.563.36-.705.582-1.468.899-2.191l-.014.029c.103-.239.208-.475.32-.708v.01c2.185-4.246.714-8.897-.656-13.15l.036.092c-.747-2.08-2.061-3.896-3.309-5.7.353.88.862 1.681 1.267 2.532zm-10.65-13.035l-.036.08.045-.1.007-.016-.016.036zm.185-.41c-2.568 5.506-3.125 12.534 1.045 17.422l-.023-.032c.9 1.338 1.54 2.833 2.321 4.241-.061-.452-.069-.908-.136-1.363l.009.06a47.28 47.28 0 01-.097-.656v.027c-.28-2.037-.233-4.137-1.276-5.984v.015c-2.322-4.298-2.214-9.098-1.826-13.813a.201.201 0 01-.015.085l-.002-.002zm.75-.924c-.329 4.853-.561 9.864 1.639 14.364 1.616 2.983.779 6.545 1.663 9.69-.06-2.83.631-5.7-.063-8.493-1.614-5.182-3.436-10.327-3.25-15.837.01.099.012.19.012.281l-.001-.005zm-11.623 5.797l.012.016-.015-.019.003.003zm-.102-.127l.037.045-.022-.027-.034-.042.028.035-.009-.01zm-7.859-21.013c0 2.78-1.349 5.404-.782 8.25.225 1.739 1.292 3.116 2.26 4.51 1.775 3.037 4.066 5.696 6.418 8.295l-.011-.012c.451.572.934 1.118 1.446 1.637-4.308-7.172-5.768-15.529-9.358-23.014.01.11.023.222.027.334zm3.601 6.554c.967 2.937 1.814 5.92 2.948 8.798l-.03-.083a42.19 42.19 0 002.778 6.195c-.194-.85-.16-1.738-.23-2.604v.022c0-.028 0-.056-.007-.084v.045c-.03-2.977-.995-5.748-2.684-8.182-.819-1.644-1.379-3.421-2.573-4.858l.01.013-.049-.07.022.032c-.274-.378-.558-.747-.82-1.127.007.01.013.018.021.026l-.023-.031c.21.642.432 1.274.637 1.91v-.002zM104.804 6.242l-.056-.028c.694.328 1.401.623 2.082.979h-.009c1.11.527 2.092 1.283 3.222 1.773l-.059-.03c.274.136.547.252.82.387h-.01l.638.308-.062-.03c.205.098.41.202.612.301l-.061-.03.327.163-.045-.022c6.799 2.823 13.753 5.57 21.143 6.262h-.012.057-.028c1.589-.008 3.175-.08 4.763-.151a24.56 24.56 0 01-.474-.036h.056a29.14 29.14 0 01-6.828-1.474h.01l-.029-.011h.014l-.325-.12h.015l-.797-.297.064.024c-2.343-.772-4.483-2.008-6.761-2.934l.056.02-.076-.029.019.007-.09-.032.031.01-.065-.023.034.013-.047-.017h.007l-.065-.024.077.03c-5.989-2.023-12.18-3.3-18.246-5.046l.098.057zm-6.217-3.117l.034-.017-.034.017zm40.871 12.726c-5.168-1.29-10.059-3.459-14.347-6.643l.064.048c-1.457-1.051-3.068-1.864-4.533-2.905l.07.05c-4.319-2.945-9.649-4.183-14.727-5.1-4.128-.343-7.753 2.046-11.197 3.955 5.364-1.403 10.514.38 15.64 1.836 4.386.919 8.681 2.251 12.934 3.645 2.625 1.15 5.137 2.549 7.864 3.464l-.033-.013.064.024h-.015c2.716.954 5.578 1.425 8.438 1.671a5.086 5.086 0 01-.22-.03l-.002-.002z" fill="#B4965D"/><path d="M142.721 16.05l-.01.005.01-.006zm-15.517 34.873l.013.017-.013-.017zm13.867 17.927c0-.013 0-.024.008-.035l-.008.034z" fill="#B4965D"/></svg>