<svg width="23" height="23" fill="none" xmlns="http://www.w3.org/2000/svg"><path d="M21.151 16.707v2.988a1.992 1.992 0 01-2.17 1.991 19.709 19.709 0 01-8.595-3.057 19.42 19.42 0 01-5.976-5.976A19.709 19.709 0 011.353 4.02a1.992 1.992 0 011.982-2.171h2.987A1.992 1.992 0 018.314 3.56c.126.956.36 1.895.697 2.798a1.992 1.992 0 01-.448 2.102L7.298 9.725a15.935 15.935 0 005.976 5.976l1.265-1.265a1.993 1.993 0 012.101-.448c.904.337 1.842.57 2.799.697a1.993 1.993 0 011.712 2.022zM13.582 5.433a4.98 4.98 0 013.934 3.934m-3.933-7.918A8.964 8.964 0 0121.5 9.357" stroke="#2F3130" stroke-width="2.5" stroke-linecap="round" stroke-linejoin="round"/></svg>