<svg width="25" height="25" fill="none" xmlns="http://www.w3.org/2000/svg"><path d="M7.85 20.667c0 1.928 1.645 3.483 3.65 3.483s3.65-1.555 3.65-3.483c0-.458-.388-.817-.85-.817-.462 0-.85.359-.85.817 0 1.013-.868 1.85-1.95 1.85-1.082 0-1.95-.837-1.95-1.85 0-.458-.388-.817-.85-.817-.462 0-.85.359-.85.817z" fill="#2F3130" stroke="#2F3130" stroke-width=".3"/><path d="M3.61 19.286h0a.174.174 0 00-.005.004l-.02.017a.086.086 0 00-.01.04c0 .045.04.086.087.086h15.675a.09.09 0 00.088-.086.084.084 0 00-.01-.04l-.018-.015a.41.41 0 00-.008-.006l-.003-.003h0a7.898 7.898 0 01-2.811-6.037v-1.03a.86.86 0 01.863-.858.86.86 0 01.862.859v1.029c0 1.792.777 3.49 2.137 4.672a.821.821 0 01.08.06c.402.342.633.842.633 1.37a1.81 1.81 0 01-1.813 1.802H3.662a1.81 1.81 0 01-1.812-1.803 1.8 1.8 0 01.633-1.37m1.128 1.309L2.58 18.09m1.03 1.195l.003-.003a7.9 7.9 0 002.811-6.037V10.61c0-2.78 2.277-5.044 5.075-5.044h.05c.062-.001.112-.002.16.006a.866.866 0 00.992-.705.859.859 0 00-.709-.988 3.02 3.02 0 00-.493-.03c-3.748 0-6.8 3.032-6.8 6.761v2.635c0 1.79-.776 3.487-2.133 4.668m1.044 1.372l-.954-1.252m-.174-.057h.001l.097.114m-.098-.114v.001l.098.113m-.098-.114a.793.793 0 01.084-.063m.014.177c.024-.02.05-.04.076-.057m-.09-.12a.46.46 0 00-.008.007l.098.113m-.09-.12l.01-.006.08.126M12.85 6c0 2.84 2.31 5.15 5.15 5.15 2.84 0 5.15-2.31 5.15-5.15 0-2.84-2.31-5.15-5.15-5.15-2.84 0-5.15 2.31-5.15 5.15zm1.8 0A3.354 3.354 0 0118 2.65 3.354 3.354 0 0121.35 6 3.354 3.354 0 0118 9.35 3.354 3.354 0 0114.65 6z" fill="#2F3130" stroke="#2F3130" stroke-width=".3"/></svg>