<svg width="83" height="48" fill="none" xmlns="http://www.w3.org/2000/svg"><path d="M78.847 27.567a.705.705 0 01.536.143.766.766 0 01.15 1.048.711.711 0 01-.474.291 53.615 53.615 0 01-14.983.095 52.29 52.29 0 01-14.308-4.035 103.18 103.18 0 01-11.763-6.518C29.282 13.216 20.57 7.945 12.398 10.52c-2.896.817-5.38 2.74-6.956 5.383a13.166 13.166 0 00-1.347 9.067 13.942 13.942 0 004.334 7.399c4.23 3.773 11.11 1.174 11.224-3.261a8.838 8.838 0 00-.63-3.536 8.621 8.621 0 00-1.974-2.964 4.846 4.846 0 012.44-1.276c2.86-.448 4.51 2.18 4.911 4.693-.03.182.061.387.08.607a8.714 8.714 0 01-.403 3.426 8.44 8.44 0 01-1.694 2.962 10.266 10.266 0 01-6.135 3.387l-.839.103a10.425 10.425 0 01-4.214-.68 10.782 10.782 0 01-3.638-2.325C5.124 31.36 3.42 28.462 2.7 25.243a14.762 14.762 0 011.522-10.116c1.76-2.962 4.536-5.119 7.775-6.038 8.815-2.758 17.756 2.73 26.774 8.26a101.813 101.813 0 0011.573 6.482 50.788 50.788 0 0013.924 3.92c4.857.628 9.77.573 14.605-.165" fill="#FFFDFA"/><path d="M30.692 17.833a.647.647 0 01.393.252.69.69 0 01-.065.89.628.628 0 01-.424.184 22.775 22.775 0 01-7.29-2.154c-2.485-1.056-4.826-2.056-7.41-1.685a10.732 10.732 0 00-2.936.897c-1.436 1.09.54 3.107-.541 6.504-1.296 4.094.987 4.52 2.326 5.015-3.082 3.11-7.458-.394-8.03-3.983a7.504 7.504 0 01-.086-1.071 7.918 7.918 0 01.767-3.083A7.605 7.605 0 019.3 17.11a12.436 12.436 0 016.43-3.136c2.862-.45 5.466.643 8.066 1.764a21.838 21.838 0 006.896 2.095zm34.892 12.444a.648.648 0 01.43.223.685.685 0 01-.03.921.628.628 0 01-.442.188 60.822 60.822 0 01-3.049-.164c-1.044-.08-2.753-.181-3.979-.178-1.015-.002-2.814.182-4.674.239-2.226.075-3.961-.204-5.443.586-1.16-.806.322-2.676-.64-2.999-.962-.323-2.69 2.524-5.068 1.592-.703-.29-1.656-1.085-2.436-.914-1.213.264-1.424 2.025-3.008 1.341 1.06-2.005-.876-3.834 1.42-5.495-2.335-.434-3.566 1.267-4.508.99-.54-.1-.8-1.876-.2-3.046a3.482 3.482 0 00-1.777.569 3.636 3.636 0 00-1.256 1.416c-.864 1.423.916 2.848.011 3.846a.867.867 0 01-1.104.025 4.854 4.854 0 01-1.654-1.762 3.564 3.564 0 01-.388-2.419 4.433 4.433 0 011.816-2.541 6.658 6.658 0 013.305-1.2c2.655.046 5.267.739 7.623 2.022l.894.397 2.514 1.115a63.595 63.595 0 009.15 3.545 47.76 47.76 0 005.921 1.216 61.73 61.73 0 006.56.557" fill="#FFFDFA"/><path fill-rule="evenodd" clip-rule="evenodd" d="M70.96 24.91c-6.457 2.144-18.954-.645-24.147-6.487-2.088-2.423-3.12-5.082-6.226-6.655a9.04 9.04 0 00-6.005-.311c-.334.082-.815.209-1.067-.199-.252-.407.133-.797.399-1.05 2.676-2.603 5.908-5.03 9.667-2.527 5.215 3.538 4.097 7.73 7.581 11.047s11.452 6.46 19.853 6.178" fill="#FFFDFA"/><path fill-rule="evenodd" clip-rule="evenodd" d="M63.161 21.711c-5.332.912-11.515-2.593-12.887-8.058a3.912 3.912 0 011.864.326 4.08 4.08 0 011.52 1.17 2.201 2.201 0 013.16.098c2.008 1.817 2.677 4.15 6.399 5.378.659.224.619.967-.056 1.086z" fill="#FFFDFA"/></svg>